<svg width="302" height="261" viewBox="0 0 302 261" fill="none" xmlns="http://www.w3.org/2000/svg">
<g clip-path="url(#clip0_5072_132285)">
<path fill-rule="evenodd" clip-rule="evenodd" d="M265.848 84.7612C265.96 84.3774 266.017 84.037 266.025 83.7425C266.037 83.2303 265.878 82.7705 265.551 82.3619C265.183 81.9039 264.715 81.7012 264.151 81.7504C263.81 81.7521 263.468 81.8855 263.131 82.1529C262.856 82.3719 262.62 82.6455 262.421 82.9737C261.929 83.7936 261.638 84.8481 261.545 86.1365C261.514 86.5961 261.502 87.1949 261.51 87.933C261.525 88.8937 261.528 89.4939 261.523 89.7342C261.492 91.0195 261.255 92.273 260.812 93.4909C260.669 93.8885 260.446 94.4813 260.143 95.2712C259.881 95.973 259.689 96.5746 259.568 97.076C259.26 98.3336 259.168 99.6241 259.291 100.949C259.335 101.394 259.412 102.052 259.523 102.928C259.598 103.696 259.591 104.355 259.505 104.909C259.43 105.402 259.279 106.028 259.048 106.787C258.747 107.799 258.566 108.419 258.509 108.647C258.388 109.141 258.311 109.706 258.276 110.343C257.752 110.369 257.191 110.44 256.599 110.536C256.886 109.819 257.099 109.275 257.238 108.904C257.658 107.755 257.88 106.577 257.901 105.372C257.911 104.891 257.884 104.305 257.815 103.608C257.731 102.823 257.672 102.233 257.639 101.84C257.533 100.634 257.616 99.4515 257.891 98.2961C257.943 98.0784 258.085 97.5435 258.324 96.6902C258.505 96.0326 258.637 95.4958 258.716 95.0772C258.936 93.9023 258.925 92.8843 258.683 92.0213C258.583 91.6757 258.438 91.3675 258.246 91.0987C258.008 90.7703 257.739 90.5601 257.436 90.4678C256.946 90.2717 256.484 90.3302 256.051 90.6396C255.665 90.9175 255.417 91.2851 255.307 91.7456C255.244 92.0109 255.217 92.3301 255.225 92.7031L255.224 92.7068C255.229 92.9212 255.245 93.2444 255.275 93.6747C255.315 94.513 255.327 95.2567 255.311 95.9058C255.285 96.9286 255.147 98.1525 254.899 99.576C254.781 100.232 254.708 100.827 254.68 101.361C254.645 101.993 254.67 102.598 254.752 103.175C254.771 103.304 254.872 103.894 255.054 104.941C255.177 105.653 255.247 106.241 255.265 106.708C255.284 107.262 255.227 107.877 255.091 108.554C255.014 108.924 254.861 109.521 254.63 110.347C254.573 110.552 254.521 110.746 254.473 110.929C252.7 111.273 250.727 111.636 248.632 111.636C245.642 111.636 244.906 112.116 244.174 112.593C243.45 113.065 242.73 113.534 239.833 113.534C236.248 113.534 234.682 115.331 233.372 116.834C232.553 117.773 231.834 118.597 230.785 118.797C229.613 119.019 229.22 120.565 228.788 122.262C228.215 124.512 227.575 127.029 224.96 127.078C221.292 127.147 219.548 128.717 219.135 129.494C218.392 130.356 216.607 131.461 215.417 128.976C214.031 126.082 209.418 126.11 206.489 126.127C206.274 126.128 206.069 126.129 205.874 126.129C203.023 126.129 202.776 124.921 202.776 121.126C202.776 119.055 199.567 117.138 196.711 115.432C194.331 114.009 192.196 112.733 192.365 111.636C192.585 110.208 190.505 109.08 188.487 107.987C187.095 107.232 185.733 106.494 185.177 105.684C184.516 104.722 182.923 104.834 181.005 104.97C178.967 105.113 176.561 105.283 174.518 104.216C172.186 102.999 169.17 104.107 165.644 105.403C163.172 106.312 160.45 107.312 157.539 107.668C153.628 108.145 153.781 108.887 153.898 109.453C153.993 109.91 154.064 110.254 151.962 110.254C148.641 110.254 147.477 111.326 146.166 112.533C145.618 113.038 145.045 113.567 144.277 114.05C143.172 114.746 143.475 115.645 143.867 116.806C144.397 118.377 145.09 120.429 142.666 123.109C141.31 124.608 140.557 125.634 140.031 126.35C138.925 127.858 138.827 127.991 136.222 128.283C133.738 128.562 133.222 130.571 132.867 131.956C132.672 132.714 132.526 133.285 132.132 133.285C131.503 133.285 130.835 135.313 129.971 137.933C129.304 139.961 128.519 142.342 127.546 144.412C126.519 146.596 126.043 149.201 125.648 151.368C125.185 153.908 124.831 155.845 123.828 155.799C120.794 155.658 119.263 157.31 118.432 158.206C118.271 158.38 118.136 158.526 118.022 158.624C117.071 158.653 115 159.311 115 162.442C115 162.442 118.967 162.816 120.991 162.442C120.991 163.037 125.063 162.825 128.883 162.627C130.702 162.533 132.465 162.442 133.703 162.442C134.467 162.442 135.08 162.45 135.601 162.457C137.701 162.485 138.296 162.492 141.116 161.868C143.455 161.35 147.475 161.52 151.546 161.693C153.601 161.78 155.668 161.868 157.539 161.868H170.874C172.337 161.868 179.338 162.122 185.338 162.341C189.838 162.504 193.776 162.647 194.393 162.647C200.921 162.647 275.975 162.988 275.975 162.988C275.975 162.988 300.059 164.005 301.271 162.988C302.52 160.822 301.663 159.938 300.839 159.088C300.368 158.603 299.908 158.128 299.857 157.432C299.707 155.391 292.89 152.951 289.231 151.641C288.069 151.225 287.226 150.923 287.016 150.785C285.578 149.834 287.016 142.397 287.016 142.397C287.016 142.397 285.136 135.655 283.395 134.012C282.353 131.834 280.553 130.714 278.987 129.739C277.354 128.722 275.975 127.864 275.975 126.129C275.975 124.183 274.065 123.402 272.261 122.664C270.247 121.84 268.366 121.071 269.422 118.797C270.343 116.815 269.272 115.762 267.629 114.917C267.905 114.104 268.276 113.355 268.742 112.669C268.86 112.495 269.191 112.041 269.734 111.304C270.144 110.747 270.458 110.283 270.676 109.911C270.955 109.442 271.198 108.918 271.398 108.339C271.554 107.88 271.705 107.328 271.848 106.684C272.001 105.993 272.139 105.422 272.262 104.969C272.435 104.354 272.626 103.794 272.833 103.29C273.023 102.83 273.514 101.784 274.307 100.154C274.934 98.8697 275.376 97.8066 275.632 96.9668C275.818 96.3609 275.944 95.7617 276.012 95.1713C276.051 94.8465 276.069 94.588 276.063 94.3933C276.056 94.1054 276.003 93.8509 275.91 93.6289C275.757 93.2685 275.574 92.9955 275.357 92.813C275.046 92.5493 274.637 92.4257 274.128 92.444C273.621 92.4627 273.127 92.9082 272.647 93.7802L272.645 93.7797C272.268 94.4682 272.01 95.1607 271.869 95.8568C271.79 96.2492 271.721 96.7386 271.659 97.3246C271.621 97.6517 271.567 98.1411 271.5 98.7914C271.357 99.9588 271.106 100.91 270.748 101.648C270.621 101.907 270.391 102.335 270.059 102.93C269.754 103.476 269.528 103.906 269.383 104.222C269.05 104.931 268.762 105.835 268.52 106.931C268.444 107.267 268.337 107.77 268.197 108.441C268.063 109.027 267.933 109.525 267.802 109.935C267.665 110.36 267.464 110.825 267.202 111.327C267.083 111.549 266.832 111.992 266.449 112.654C266.183 113.113 265.958 113.589 265.771 114.084C264.801 113.676 263.81 113.257 262.995 112.726C262.999 112.711 263.002 112.695 263.006 112.68C263.242 111.589 263.645 110.606 264.216 109.729C264.321 109.567 264.617 109.141 265.106 108.453C265.474 107.932 265.754 107.498 265.949 107.152C266.2 106.714 266.411 106.227 266.584 105.687C266.72 105.261 266.847 104.749 266.966 104.152C267.093 103.51 267.21 102.98 267.316 102.559C267.462 101.988 267.628 101.468 267.809 100.999C267.974 100.571 268.408 99.5971 269.108 98.0792C269.661 96.8828 270.05 95.8938 270.271 95.1148C270.431 94.551 270.535 93.9966 270.585 93.4503C270.615 93.1503 270.627 92.9116 270.617 92.7313C270.604 92.4651 270.552 92.2301 270.462 92.0282C270.313 91.6962 270.138 91.4484 269.935 91.2825C269.643 91.0448 269.263 90.9361 268.792 90.9599C268.324 90.9843 267.878 91.4028 267.453 92.2168L267.451 92.2162C267.117 92.8572 266.891 93.5015 266.775 94.1479C266.712 94.5111 266.655 94.965 266.61 95.5069C266.582 95.8092 266.543 96.2618 266.492 96.8639C266.384 97.9449 266.17 98.8282 265.854 99.5142C265.741 99.7552 265.54 100.154 265.243 100.712C264.972 101.219 264.773 101.621 264.644 101.914C264.351 102.575 264.104 103.413 263.9 104.43C263.838 104.742 263.749 105.209 263.631 105.832C263.522 106.375 263.409 106.836 263.295 107.218C263.176 107.612 263 108.045 262.77 108.514C262.664 108.722 262.442 109.133 262.101 109.751C261.834 110.234 261.614 110.739 261.441 111.265C260.983 110.82 260.434 110.561 259.806 110.434C259.93 110.121 260.17 109.581 260.524 108.813C260.849 108.107 261.081 107.533 261.222 107.092C261.404 106.525 261.523 105.892 261.58 105.193C261.621 104.691 261.635 104.047 261.621 103.259C261.608 102.329 261.612 101.662 261.63 101.255C261.674 100.511 261.783 99.8525 261.956 99.2829C262.103 98.8048 262.339 98.2151 262.661 97.5156C263.139 96.4855 263.407 95.9046 263.462 95.7766C263.707 95.2029 263.899 94.5825 264.039 93.9155C264.155 93.3516 264.243 92.7114 264.301 91.995C264.432 90.4395 264.625 89.1271 264.879 88.0558C265.041 87.378 265.258 86.6096 265.531 85.751C265.681 85.3144 265.787 84.9827 265.85 84.7614L265.848 84.7612Z" fill="url(#paint0_linear_5072_132285)" fill-opacity="0.5"/>
<path fill-rule="evenodd" clip-rule="evenodd" d="M-21.4497 -0.256836C-16.3304 2.3093 -5.69525 8.33532 -4.10891 11.9103C-2.52258 15.4853 0.517885 19.1291 1.83982 20.5041L4.4837 25.6603C6.81565 25.7767 11.0455 29.9306 13.8615 32.6961C14.9566 33.7715 15.8378 34.6369 16.3106 34.9733C17.9991 36.175 20.717 35.474 21.8649 34.9733C23.309 32.5922 26.486 27.83 27.6413 27.83C29.0855 27.83 31.5293 25.4986 31.9737 24.5743C32.418 23.6499 35.3063 19.3747 38.0834 19.3747C40.2768 19.3747 42.6291 20.9611 44.1977 22.019C44.6151 22.3006 44.977 22.5447 45.2657 22.7115C45.7524 22.9927 46.9863 23.269 48.4107 23.588C51.0065 24.1694 54.235 24.8924 54.7277 26.045C55.4907 27.83 59.0577 33.1221 61.4688 34.6268C63.8798 36.1315 65.1336 38.539 65.1336 39.0406V42.4513C69.7628 42.5181 79.3684 42.993 80.7572 44.3572C82.146 45.7215 83.1361 47.1326 83.4576 47.6676L85.0006 50.1754C87.8296 50.4429 93.6611 51.4995 94.3555 53.5861C94.6771 54.5522 94.6545 55.3257 94.6359 55.9625C94.6125 56.7653 94.5954 57.3509 95.2819 57.8318C96.1121 57.7768 96.936 57.5962 97.5332 57.261C98.3171 56.821 98.3048 56.2959 98.2857 55.4742C98.272 54.8876 98.2548 54.1498 98.5213 53.184C98.559 53.0475 98.5948 52.9182 98.6289 52.7954C98.6611 52.6795 98.6917 52.5692 98.721 52.4641C99.1867 50.7907 99.2919 50.4126 99.4848 48.6587C99.6421 47.2291 99.3706 46.8891 99.0012 46.4265C98.8589 46.2482 98.7019 46.0516 98.5494 45.7675C98.3529 45.4013 97.8269 44.9903 97.2086 44.5072C96.1024 43.6427 94.7009 42.5476 94.3632 41.0658C94.2615 40.6198 94.1595 40.2094 94.066 39.8333C93.605 37.9794 93.3516 36.9605 94.38 36.6353C95.617 36.244 96.5775 39.4468 96.81 40.5234C97.0425 41.6001 99.1626 44.0149 99.4027 43.0827C99.5359 42.5658 99.3403 41.3503 99.1406 40.1093L99.1405 40.1091C98.9801 39.1121 98.817 38.0987 98.8196 37.4178C98.8213 36.9647 98.9532 36.2981 99.0997 35.5578C99.4474 33.8008 99.8773 31.6283 98.8443 30.9071C97.6226 30.0541 96.5174 27.2808 95.9149 25.769L95.9148 25.7688C95.7933 25.4638 95.6923 25.2102 95.6148 25.0341C95.3501 24.432 95.2959 23.3181 95.2394 22.1569V22.1568C95.1974 21.2944 95.1542 20.4059 95.0225 19.6815C94.7135 17.9818 94.6684 16 95.6482 16.2022C96.532 16.3846 96.4979 19.6557 96.4778 21.5774L96.4778 21.5805C96.4756 21.7881 96.4736 21.9799 96.473 22.1502C96.4665 23.8637 99.061 29.2095 99.3256 28.7577C99.5902 28.3058 99.6195 27.5133 99.6231 26.5509C99.6242 26.272 99.6366 25.9077 99.6506 25.4957C99.685 24.4856 99.7292 23.189 99.6398 22.1632C99.6301 22.0529 99.6196 21.9352 99.6085 21.8111C99.4745 20.3103 99.2575 17.8793 99.5301 16.4163C99.8253 14.8323 100.613 15.1752 101.241 15.7722C101.87 16.3693 101.573 25.2567 101.384 26.5581C101.195 27.8595 100.601 32.0183 100.754 33.3494C100.887 34.5064 101.925 32.3738 102.351 31.4991C102.416 31.3675 102.466 31.2643 102.497 31.2052C102.735 30.7532 103.716 28.6342 104.061 27.7014C104.358 26.9012 104.44 26.3294 104.526 25.7364V25.7364L104.526 25.7339C104.54 25.6365 104.554 25.5385 104.569 25.4389C104.677 24.7316 104.939 23.3571 105.836 24.0853C106.349 24.5015 106.063 26.3583 105.61 27.9134C105.24 29.1835 104.625 30.8018 103.75 32.1515C104.338 31.9755 104.976 32.739 105.386 33.2299L105.407 33.2549C105.457 33.3148 105.642 33.465 105.874 33.6533C106.229 33.9417 106.694 34.3195 106.953 34.5991C106.843 33.1758 106.623 30.0371 106.623 28.8692C106.623 27.4094 107.533 26.6858 107.83 27.6347C108.057 28.3601 108.012 29.4463 107.978 30.2621C107.968 30.5135 107.959 30.7392 107.959 30.9208C107.959 31.5952 107.898 32.2308 107.841 32.8376V32.8377C107.734 33.9723 107.636 35.0061 107.959 36.0048C108.034 36.2394 108.24 36.584 108.484 36.992C108.966 37.7995 109.596 38.8552 109.659 39.7969C109.956 44.2274 110.423 44.0924 110.423 44.0924C110.423 44.0924 111.48 34.7086 111.15 31.278C111.122 30.9874 111.097 30.7188 111.074 30.4694L111.074 30.4661C110.824 27.7727 110.781 27.312 109.393 25.5756C107.876 23.6779 106.856 20.9957 106.295 18.9884C105.734 16.9811 105.384 14.5857 106.029 14.0518C107.159 13.1177 107.481 14.8912 107.613 15.8036C107.631 15.9333 107.649 16.0607 107.666 16.1874C107.771 16.9523 107.871 17.6901 108.239 18.7233C108.668 19.9277 109.888 22.6649 110.185 23.2488C110.224 23.3252 110.286 23.4585 110.366 23.6286C110.897 24.7585 112.19 27.5134 112.362 26.0225C112.56 24.3072 111.834 18.9423 111.603 17.2635C111.372 15.5846 111.043 4.12488 111.834 3.35847C112.626 2.59205 113.615 2.15411 113.978 4.19789C114.313 6.0854 114.029 9.21807 113.854 11.1522V11.1525L113.852 11.1699C113.838 11.3235 113.825 11.4695 113.813 11.6066C113.696 12.9286 113.745 14.6005 113.783 15.9029C113.799 16.4342 113.813 16.904 113.813 17.2635C113.813 18.5043 113.846 19.5262 114.176 20.1102C114.505 20.6941 117.786 13.8157 117.786 11.6066C117.786 11.3858 117.784 11.1372 117.783 10.8681C117.767 8.39046 117.739 4.17285 118.849 3.94241C120.079 3.68694 120.013 6.24166 119.618 8.43143C119.449 9.36466 119.39 10.51 119.334 11.6217C119.257 13.1185 119.184 14.5543 118.849 15.3292C118.751 15.5559 118.623 15.8824 118.469 16.275C117.706 18.2209 116.306 21.7906 114.769 22.8839C113.47 23.8082 113.999 26.6114 114.427 28.8785C114.607 29.8337 114.769 30.6937 114.769 31.278C114.769 32.1558 114.56 33.4614 114.354 34.7458L114.354 34.7462V34.7463L114.354 34.7465C114.097 36.3454 113.846 37.9113 114.011 38.5784C114.308 39.7815 116.979 36.6794 117.276 35.2925C117.573 33.9057 118.793 29.7816 120.343 30.2926C121.632 30.7173 121.309 32.0296 120.722 34.4173C120.603 34.9017 120.473 35.4303 120.343 36.0048C119.912 37.9133 118.149 39.3179 116.757 40.4265C115.979 41.0461 115.317 41.5733 115.068 42.0443C114.876 42.4098 114.678 42.6624 114.499 42.8915C114.033 43.486 113.691 43.9229 113.881 45.7669C114.115 48.0291 114.245 48.5171 114.821 50.677L114.822 50.6788C114.896 50.9577 114.978 51.2643 115.068 51.6063C115.398 52.8528 115.373 53.8039 115.353 54.5601C115.325 55.6194 115.307 56.2964 116.289 56.8678C117.971 57.8471 121.096 57.824 122.515 57.2096C123.933 56.5952 125.064 59.3578 123.392 59.3578C123.211 59.3578 122.964 59.3514 122.669 59.3439C120.238 59.2816 114.515 59.1348 115.068 61.7437C115.339 63.0157 114.661 63.8877 114.109 64.5986C113.562 65.3036 113.137 65.8502 113.881 66.4715L119.592 71.7868L119.226 73.0204C121.89 74.1144 124.518 75.8509 127.043 78.9343C132.115 85.1273 133.258 85.1563 135.619 85.2163C135.806 85.221 136 85.2259 136.204 85.2341C137.34 85.2795 138.244 83.8727 139.177 82.4204C140.539 80.3024 141.962 78.0878 144.255 80.1411C146.157 81.8448 148.397 82.764 150.348 83.5644C152.361 84.3901 154.065 85.0894 154.774 86.3932C155.29 87.3423 155.849 87.8949 156.458 88.4962C157.497 89.5218 158.68 90.6894 160.033 94.2085L160.307 94.9205C162.254 99.9793 163.062 102.078 163.575 105.708C163.759 107.003 163.742 108.168 163.725 109.301V109.301C163.694 111.489 163.664 113.555 165.078 116.203C166.205 118.313 165.8 121.303 165.441 123.944C165.117 126.334 164.832 128.439 165.756 129.346C166.67 130.245 166.892 130.398 167.218 130.623C167.586 130.877 168.087 131.223 169.862 132.831C171.607 134.411 173.937 135.473 175.861 136.351C177.633 137.158 179.061 137.809 179.372 138.564C179.641 139.216 181.848 141.077 184.342 143.179C186.563 145.051 189.011 147.115 190.517 148.686C190.661 148.543 190.755 148.474 190.787 148.498C191.625 147.273 193.574 145.101 193.574 145.101C194.44 145.75 193.659 147.061 193.225 147.606C193.199 147.691 193.176 147.798 193.149 147.926C193.034 148.471 192.839 149.399 191.945 150.667C191.954 150.715 191.959 150.76 191.959 150.802C191.959 152.647 192.774 153.34 193.418 153.888C194.213 154.564 194.748 155.019 193.166 157.148C193.114 157.218 193.06 157.289 193.005 157.361C193.126 157.826 193.264 158.267 193.391 158.673C193.715 159.705 193.965 160.505 193.673 160.862C193.489 161.085 193.579 161.287 193.698 161.554C193.916 162.043 194.232 162.751 193.154 164.218C192.023 165.756 192.015 165.839 191.917 166.779C191.871 167.225 191.804 167.865 191.588 168.945C191.202 170.875 192.092 170.908 192.774 170.933C193.277 170.952 193.667 170.966 193.345 171.737C193.122 172.273 193.001 172.708 192.886 173.123C192.611 174.116 192.366 174.999 190.821 176.882C189.843 178.074 189.972 178.105 190.142 178.146C190.353 178.197 190.63 178.264 188.943 180.58C187.687 182.305 186.698 184.056 185.799 185.646C184.518 187.914 183.421 189.854 182 190.924C180.755 191.861 179.683 193.26 178.774 194.446C177.92 195.561 177.21 196.488 176.636 196.663C176.153 196.811 175.316 197.43 174.459 198.062C173.218 198.98 171.939 199.925 171.646 199.504C171.421 199.181 170.075 200.127 168.574 201.182C166.774 202.447 164.751 203.869 164.178 203.44C163.128 202.652 162.679 202.542 161.353 204.159C161.262 204.269 161.167 204.386 161.067 204.508C159.71 206.172 157.571 208.794 156.126 208.98C154.885 209.139 154.361 210.38 154.254 210.98C154.276 211.376 153.9 212.69 152.213 214.784C151.01 216.277 151.409 217.162 151.765 217.953C152.033 218.55 152.278 219.094 151.794 219.805C151.362 220.441 151.256 221.019 151.135 221.678C150.941 222.733 150.71 223.993 149.042 226.026C147.695 227.669 147.49 228.175 147.283 228.683C147.075 229.197 146.865 229.714 145.474 231.409C144.452 232.655 143.604 233.907 142.847 235.024C141.555 236.931 140.53 238.444 139.364 238.858C138.655 239.11 137.713 239.887 136.807 240.635C135.35 241.837 133.985 242.964 133.823 241.713C133.685 240.642 132.597 241.549 131.433 242.52C130.39 243.39 129.285 244.311 128.747 243.907C128.267 243.548 127.388 244.152 126.347 244.867C125.349 245.553 124.202 246.341 123.114 246.48C121.85 247.126 119.11 246.794 119.11 246.794C119.11 246.794 117.721 244.437 116.79 245.055C116.379 245.327 115.623 245.211 114.92 244.956C101.912 251.522 84.8203 252.013 72.7844 250.364C71.9916 254.94 62.1733 254.843 51.4545 254.736C41.2307 254.635 30.1877 254.526 25.3757 258.456C21.5905 261.548 10.9148 260.667 -2.2866 259.579C-7.28978 259.166 -12.6557 258.723 -18.1469 258.456L-21.4497 -0.256836ZM108.693 60.8367C109.062 60.8382 109.324 61.0735 109.51 61.417C111.383 60.7219 113.15 59.257 112.786 57.2096C112.598 56.1482 112.487 55.1516 112.382 54.1957V54.1956C112.111 51.7512 111.87 49.5733 110.423 47.2595C110.344 47.1334 110.266 47.01 110.19 46.8891L110.186 46.8824C109.172 45.2689 108.437 44.1002 108.437 42.7293V42.6897C108.437 41.366 108.437 40.3188 107.729 38.9872C107.377 39.6259 106.598 40.5751 105.885 41.4446L105.885 41.4447C105.349 42.098 104.85 42.7063 104.596 43.1041C104.031 43.991 103.887 44.7011 103.848 45.4749C104.143 46.8685 104.637 47.7761 105.008 48.4587C105.035 48.5081 105.061 48.5564 105.086 48.6035C105.107 48.6409 105.126 48.6775 105.146 48.7136C105.413 49.2162 105.361 49.6977 105.276 50.491C105.218 51.0271 105.146 51.7056 105.146 52.6292C105.146 53.5039 105.097 54.0897 105.055 54.59V54.59V54.5901C104.987 55.3996 104.938 55.9854 105.146 57.2096C105.275 57.9762 105.229 58.576 105.189 59.1021C105.134 59.8165 105.09 60.3953 105.51 61.0719C105.682 61.0148 105.819 60.933 105.911 60.8252C106.46 60.1801 106.422 59.6768 106.374 59.0304C106.343 58.6222 106.308 58.1568 106.414 57.5626C106.583 56.6138 106.546 56.1593 106.494 55.5312C106.462 55.1429 106.425 54.6884 106.427 54.0099C106.43 53.2935 106.374 52.767 106.33 52.351C106.264 51.7355 106.225 51.3618 106.439 50.9729C106.474 50.9097 106.511 50.8442 106.549 50.7756C106.91 50.1363 107.414 49.2416 107.61 47.7312C107.702 47.0302 107.59 46.4188 107.497 45.9146C107.357 45.1491 107.262 44.6307 107.992 44.4207C109.167 44.0828 108.626 50.1781 108.626 50.1781C107.878 51.0843 108.013 52.467 108.155 53.918C108.267 55.072 108.384 56.2692 108.064 57.3042C107.844 58.4799 107.662 60.8324 108.693 60.8367ZM105.886 36.4322C106.393 37.0728 106.875 37.6801 107.215 38.1604C106.869 38.2968 106.532 38.6857 106.293 38.9625L106.276 38.9818C106.236 39.0281 106.088 39.144 105.903 39.2893C105.619 39.5118 105.247 39.8033 105.04 40.0193C105.127 38.9672 105.299 36.7062 105.318 35.7127C105.507 35.9538 105.698 36.1951 105.886 36.4319L105.886 36.4321L105.886 36.4322ZM103.362 32.7074C103.448 33.1108 103.861 33.7667 104.402 34.51C104.387 34.5414 104.374 34.5763 104.361 34.6147C104.178 35.1765 104.211 36.0191 104.235 36.652C104.243 36.8471 104.25 37.0222 104.249 37.1631C104.247 37.6861 104.293 38.1792 104.337 38.65L104.337 38.6502C104.419 39.5306 104.494 40.3328 104.234 41.1064C104.186 41.251 104.071 41.4496 103.928 41.6838C104.032 40.972 103.978 40.483 103.228 40.258C101.968 39.88 102.261 45.5775 102.372 47.2331C102.297 47.3856 102.246 47.3713 102.246 47.3713C102.246 47.3713 101.431 40.0895 101.704 37.4296C101.728 37.2034 101.748 36.9943 101.768 36.8001C101.975 34.7119 102.01 34.3547 103.122 33.0125C103.204 32.9135 103.284 32.8116 103.362 32.7074ZM102.427 49.5353C102.61 49.2546 102.782 48.9913 102.938 48.7397C103.245 49.8099 103.114 51.1321 102.979 52.5016C102.832 53.9888 102.68 55.5316 103.076 56.8678C103.274 57.9753 103.443 59.8915 103.016 60.8451C101.492 60.314 100.021 59.1576 100.324 57.5376C100.477 56.715 100.568 55.9425 100.655 55.2015L100.655 55.2013C100.878 53.3062 101.076 51.6177 102.237 49.8278C102.271 49.7762 102.304 49.7252 102.336 49.6748C102.367 49.6281 102.397 49.5818 102.427 49.5361L102.427 49.5353Z" fill="url(#paint1_linear_5072_132285)"/>
</g>
<defs>
<linearGradient id="paint0_linear_5072_132285" x1="211.13" y1="106.591" x2="211.13" y2="163.44" gradientUnits="userSpaceOnUse">
<stop stop-color="#3A61D2"/>
<stop offset="0.81" stop-color="#347ED3" stop-opacity="0"/>
</linearGradient>
<linearGradient id="paint1_linear_5072_132285" x1="89.4597" y1="-11.0583" x2="89.4597" y2="260.586" gradientUnits="userSpaceOnUse">
<stop stop-color="#3A61D2"/>
<stop offset="0.81" stop-color="#347ED3" stop-opacity="0"/>
</linearGradient>
<clipPath id="clip0_5072_132285">
<rect width="302" height="261" fill="white"/>
</clipPath>
</defs>
</svg>
