<svg width="2500" height="164" viewBox="0 0 2500 164" fill="none" xmlns="http://www.w3.org/2000/svg">
<g opacity="0.32">
<path fill-rule="evenodd" clip-rule="evenodd" d="M691.62 95.0625C691.62 94.8629 691.62 94.6235 691.502 94.3441C692.68 94.843 692.374 95.1423 691.62 95.0625ZM691.62 95.0625C691.62 94.8629 691.62 94.6235 691.502 94.3441C692.68 94.843 692.374 95.1423 691.62 95.0625ZM691.62 95.0625C691.62 94.8629 691.62 94.6235 691.502 94.3441C692.68 94.843 692.374 95.1423 691.62 95.0625ZM691.62 95.0625C691.62 94.8629 691.62 94.6235 691.502 94.3441C692.68 94.843 692.374 95.1423 691.62 95.0625ZM691.62 95.0625C691.62 94.8629 691.62 94.6235 691.502 94.3441C692.68 94.843 692.374 95.1423 691.62 95.0625ZM691.62 95.0625C691.62 94.8629 691.62 94.6235 691.502 94.3441C692.68 94.843 692.374 95.1423 691.62 95.0625ZM691.62 95.0625C691.62 94.8629 691.62 94.6235 691.502 94.3441C692.68 94.843 692.374 95.1423 691.62 95.0625ZM691.62 95.0625C691.62 94.8629 691.62 94.6235 691.502 94.3441C692.68 94.843 692.374 95.1423 691.62 95.0625ZM691.62 95.0625C691.62 94.8629 691.62 94.6235 691.502 94.3441C692.68 94.843 692.374 95.1423 691.62 95.0625ZM691.62 95.0625C691.62 94.8629 691.62 94.6235 691.502 94.3441C692.68 94.843 692.374 95.1423 691.62 95.0625ZM691.62 95.0625C691.62 94.8629 691.62 94.6235 691.502 94.3441C692.68 94.843 692.374 95.1423 691.62 95.0625ZM691.62 95.0625C691.62 94.8629 691.62 94.6235 691.502 94.3441C692.68 94.843 692.374 95.1423 691.62 95.0625ZM691.62 95.0625C691.62 94.8629 691.62 94.6235 691.502 94.3441C692.68 94.843 692.374 95.1423 691.62 95.0625ZM691.62 95.0625C691.62 94.8629 691.62 94.6235 691.502 94.3441C692.68 94.843 692.374 95.1423 691.62 95.0625ZM691.62 95.0625C691.62 94.8629 691.62 94.6235 691.502 94.3441C692.68 94.843 692.374 95.1423 691.62 95.0625ZM691.62 95.0625C691.62 94.8629 691.62 94.6235 691.502 94.3441C692.68 94.843 692.374 95.1423 691.62 95.0625ZM691.62 95.0625C691.62 94.8629 691.62 94.6235 691.502 94.3441C692.68 94.843 692.374 95.1423 691.62 95.0625ZM691.62 95.0625C691.62 94.8629 691.62 94.6235 691.502 94.3441C692.68 94.843 692.374 95.1423 691.62 95.0625ZM691.62 95.0625C691.62 94.8629 691.62 94.6235 691.502 94.3441C692.68 94.843 692.374 95.1423 691.62 95.0625ZM691.62 95.0625C691.62 94.8629 691.62 94.6235 691.502 94.3441C692.68 94.843 692.374 95.1423 691.62 95.0625ZM691.62 95.0625C691.62 94.8629 691.62 94.6235 691.502 94.3441C692.68 94.843 692.374 95.1423 691.62 95.0625ZM691.62 95.0625C691.62 94.8629 691.62 94.6235 691.502 94.3441C692.68 94.843 692.374 95.1423 691.62 95.0625ZM691.62 95.0625C691.62 94.8629 691.62 94.6235 691.502 94.3441C692.68 94.843 692.374 95.1423 691.62 95.0625ZM691.62 95.0625C691.62 94.8629 691.62 94.6235 691.502 94.3441C692.68 94.843 692.374 95.1423 691.62 95.0625ZM691.62 95.0625C691.62 94.8629 691.62 94.6235 691.502 94.3441C692.68 94.843 692.374 95.1423 691.62 95.0625ZM691.62 95.0625C691.62 94.8629 691.62 94.6235 691.502 94.3441C692.68 94.843 692.374 95.1423 691.62 95.0625ZM691.62 95.0625C691.62 94.8629 691.62 94.6235 691.502 94.3441C692.68 94.843 692.374 95.1423 691.62 95.0625ZM691.62 95.0625C691.62 94.8629 691.62 94.6235 691.502 94.3441C692.68 94.843 692.374 95.1423 691.62 95.0625ZM691.62 95.0625C691.62 94.8629 691.62 94.6235 691.502 94.3441C692.68 94.843 692.374 95.1423 691.62 95.0625ZM691.62 95.0625C691.62 94.8629 691.62 94.6235 691.502 94.3441C692.68 94.843 692.374 95.1423 691.62 95.0625ZM691.62 95.0625C691.62 94.8629 691.62 94.6235 691.502 94.3441C692.68 94.843 692.374 95.1423 691.62 95.0625ZM691.62 95.0625C691.62 94.8629 691.62 94.6235 691.502 94.3441C692.68 94.843 692.374 95.1423 691.62 95.0625ZM691.62 95.0625C691.62 94.8629 691.62 94.6235 691.502 94.3441C692.68 94.843 692.374 95.1423 691.62 95.0625ZM691.62 95.0625C691.62 94.8629 691.62 94.6235 691.502 94.3441C692.68 94.843 692.374 95.1423 691.62 95.0625ZM691.62 95.0625C691.62 94.8629 691.62 94.6235 691.502 94.3441C692.68 94.843 692.374 95.1423 691.62 95.0625ZM691.62 95.0625C691.62 94.8629 691.62 94.6235 691.502 94.3441C692.68 94.843 692.374 95.1423 691.62 95.0625ZM691.62 95.0625C691.62 94.8629 691.62 94.6235 691.502 94.3441C692.68 94.843 692.374 95.1423 691.62 95.0625ZM691.62 95.0625C691.62 94.8629 691.62 94.6235 691.502 94.3441C692.68 94.843 692.374 95.1423 691.62 95.0625ZM691.62 95.0625C691.62 94.8629 691.62 94.6235 691.502 94.3441C692.68 94.843 692.374 95.1423 691.62 95.0625ZM691.62 95.0625C691.62 94.8629 691.62 94.6235 691.502 94.3441C692.68 94.843 692.374 95.1423 691.62 95.0625ZM691.62 95.0625C691.62 94.8629 691.62 94.6235 691.502 94.3441C692.68 94.843 692.374 95.1423 691.62 95.0625ZM691.62 95.0625C691.62 94.8629 691.62 94.6235 691.502 94.3441C692.68 94.843 692.374 95.1423 691.62 95.0625ZM691.62 95.0625C691.62 94.8629 691.62 94.6235 691.502 94.3441C692.68 94.843 692.374 95.1423 691.62 95.0625ZM691.62 95.0625C691.62 94.8629 691.62 94.6235 691.502 94.3441C692.68 94.843 692.374 95.1423 691.62 95.0625ZM691.62 95.0625C691.62 94.8629 691.62 94.6235 691.502 94.3441C692.68 94.843 692.374 95.1423 691.62 95.0625ZM691.62 95.0625C691.62 94.8629 691.62 94.6235 691.502 94.3441C692.68 94.843 692.374 95.1423 691.62 95.0625ZM691.62 95.0625C691.62 94.8629 691.62 94.6235 691.502 94.3441C692.68 94.843 692.374 95.1423 691.62 95.0625ZM691.62 95.0625C691.62 94.8629 691.62 94.6235 691.502 94.3441C692.68 94.843 692.374 95.1423 691.62 95.0625ZM691.62 95.0625C691.62 94.8629 691.62 94.6235 691.502 94.3441C692.68 94.843 692.374 95.1423 691.62 95.0625ZM691.62 95.0625C691.62 94.8629 691.62 94.6235 691.502 94.3441C692.68 94.843 692.374 95.1423 691.62 95.0625ZM691.62 95.0625C691.62 94.8629 691.62 94.6235 691.502 94.3441C692.68 94.843 692.374 95.1423 691.62 95.0625ZM691.62 95.0625C691.62 94.8629 691.62 94.6235 691.502 94.3441C692.68 94.843 692.374 95.1423 691.62 95.0625ZM691.62 95.0625C691.62 94.8629 691.62 94.6235 691.502 94.3441C692.68 94.843 692.374 95.1423 691.62 95.0625ZM1998.22 54.4706C1997.47 54.4706 1997.19 54.2311 1998.34 53.7522C1998.29 54.0316 1998.27 54.271 1998.22 54.4706ZM691.62 95.0625C691.62 94.8629 691.62 94.6235 691.502 94.3441C692.68 94.843 692.374 95.1423 691.62 95.0625ZM1998.22 54.4706C1997.47 54.4706 1997.19 54.2311 1998.34 53.7522C1998.29 54.0316 1998.27 54.271 1998.22 54.4706ZM691.62 95.0625C691.62 94.8629 691.62 94.6235 691.502 94.3441C692.68 94.843 692.374 95.1423 691.62 95.0625ZM1998.22 54.4706C1997.47 54.4706 1997.19 54.2311 1998.34 53.7522C1998.29 54.0316 1998.27 54.271 1998.22 54.4706ZM691.62 95.0625C691.62 94.8629 691.62 94.6235 691.502 94.3441C692.68 94.843 692.374 95.1423 691.62 95.0625ZM1998.22 54.4706C1997.47 54.4706 1997.19 54.2311 1998.34 53.7522C1998.29 54.0316 1998.27 54.271 1998.22 54.4706ZM691.62 95.0625C691.62 94.8629 691.62 94.6235 691.502 94.3441C692.68 94.843 692.374 95.1423 691.62 95.0625ZM1998.22 54.4706C1997.47 54.4706 1997.19 54.2311 1998.34 53.7522C1998.29 54.0316 1998.27 54.271 1998.22 54.4706ZM691.62 95.0625C691.62 94.8629 691.62 94.6235 691.502 94.3441C692.68 94.843 692.374 95.1423 691.62 95.0625ZM1998.22 54.4706C1997.47 54.4706 1997.19 54.2311 1998.34 53.7522C1998.29 54.0316 1998.27 54.271 1998.22 54.4706ZM691.62 95.0625C691.62 94.8629 691.62 94.6235 691.502 94.3441C692.68 94.843 692.374 95.1423 691.62 95.0625ZM1998.22 54.4706C1997.47 54.4706 1997.19 54.2311 1998.34 53.7522C1998.29 54.0316 1998.27 54.271 1998.22 54.4706ZM691.62 95.0625C691.62 94.8629 691.62 94.6235 691.502 94.3441C692.68 94.843 692.374 95.1423 691.62 95.0625ZM1998.22 54.4706C1997.47 54.4706 1997.19 54.2311 1998.34 53.7522C1998.29 54.0316 1998.27 54.271 1998.22 54.4706ZM691.62 95.0625C691.62 94.8629 691.62 94.6235 691.502 94.3441C692.68 94.843 692.374 95.1423 691.62 95.0625ZM1998.22 54.4706C1997.47 54.4706 1997.19 54.2311 1998.34 53.7522C1998.29 54.0316 1998.27 54.271 1998.22 54.4706ZM691.62 95.0625C691.62 94.8629 691.62 94.6235 691.502 94.3441C692.68 94.843 692.374 95.1423 691.62 95.0625ZM1998.22 54.4706C1997.47 54.4706 1997.19 54.2311 1998.34 53.7522C1998.29 54.0316 1998.27 54.271 1998.22 54.4706ZM2490.93 120.148C2486.22 126.135 2479.7 130.126 2463.84 132.84C2455.19 133.926 2446.46 134.487 2437.71 134.517C2421.81 135.076 2405.84 135.375 2389.98 136.113C2369.35 137.098 2348.71 137.956 2328.07 138.688C2295.51 139.885 2263.85 141.601 2231.48 143.437C2174.94 146.63 2118.66 150.941 2061.71 153.416C2023.78 155.072 1985.67 156.968 1947.57 157.986C1908.39 159.063 1869.14 159.981 1829.92 160.88C1733.84 163.254 1637.23 162.037 1540.97 162.875C1439.66 163.733 1337.87 162.995 1236.37 163.035C1181.67 163.035 1127.04 162.336 1072.38 162.276C1022.81 162.276 973.291 161.99 923.817 161.418C870.385 160.78 816.553 160.44 763.216 158.984C709.878 157.527 657.2 155.93 604.24 154.493C547.109 152.937 489.979 151.4 433.037 149.165C412.619 148.38 392.296 147.489 372.066 146.491C350.852 148.352 329.5 148.832 308.198 147.928C281.317 146.571 251.892 148.167 228.545 141.941C225.812 141.222 223.268 140.404 220.771 139.606C213.703 138.708 206.918 137.61 199.827 136.113L188.425 133.719C172.719 132.388 156.903 131.131 140.977 129.947C145.009 129.143 148.951 128.041 152.756 126.654C155.984 125.377 158.316 123.86 161.732 122.663C167.212 120.855 172.907 119.557 178.718 118.791C185.786 117.653 192.17 116.296 199.638 115.418C203.856 114.919 207.908 114.241 212.219 113.862L219.122 113.323C221.101 113.183 222.396 112.824 224.281 112.604C228.592 112.085 233.021 111.567 237.474 111.128C242.249 110.682 246.975 109.922 251.609 108.852C253.543 108.38 255.323 107.541 256.816 106.398C258.277 105.3 257.523 103.624 257.523 102.407C257.718 101.473 257.488 100.512 256.881 99.7161C256.273 98.9201 255.333 98.3483 254.248 98.1158C251.044 97.078 246.285 97.2178 242.327 96.8586C241.012 96.6706 239.68 96.5771 238.346 96.5792C237.427 96.5792 236.202 96.5792 235.307 96.5792C232.715 96.4195 230.807 96.2 228.027 96.22C224.682 96.22 221.454 96.2199 218.156 96.3995C214.399 96.6 210.629 96.4998 206.895 96.1003C201.382 95.7011 195.563 95.5813 190.144 95.0225C185.786 94.6234 181.663 93.9249 177.305 93.5657C169.365 92.9072 160.813 91.57 152.497 92.2885C150.353 92.4481 148.492 92.8672 146.254 92.9471C144.817 92.9471 143.168 92.9471 141.731 92.9471C139.186 92.9471 136.618 92.9471 134.121 92.9471C127.289 92.508 120.928 91.4902 114.261 90.8317C103.973 89.9172 93.573 90.6965 83.6342 93.1266C78.8047 94.2442 73.7867 95.262 68.9807 96.3796C66.3421 96.9982 63.8212 97.7366 61.3946 98.3752C58.9798 99.2181 56.6205 100.171 54.3269 101.229C39.4377 107.216 26.2211 115.059 28.153 123.181C24.2835 123.208 20.4287 123.589 16.6562 124.319C11.2141 125.237 6.26671 126.414 9.16446 131.763C5.67774 127.771 7.39753 123.561 7.23261 119.39C6.90279 111.966 4.07575 104.622 2.26171 97.2178C9.68278 97.2178 16.3971 96.4594 23.9124 96.1401C31.6743 95.8955 39.4098 95.2289 47.0709 94.1444C54.9396 92.9869 62.2663 91.4504 70.2292 90.3727C72.5851 90.0734 74.517 90.0932 76.7787 89.8936C79.6529 89.6342 82.7391 89.295 85.6133 88.9757C92.6809 88.2174 99.2539 86.98 106.086 85.9622C110.986 85.2438 114.167 84.2859 115.18 82.3501C115.51 81.7115 114.449 80.8733 113.672 80.3544C111.811 79.0972 106.109 78.3587 102.905 77.6802C93.5257 75.6276 84.0267 73.989 74.4463 72.7709C68.8393 72.1124 63.303 71.374 57.6724 70.7753C49.3796 69.8772 40.8513 69.2785 32.4643 68.5401C21.6823 67.5793 10.838 67.2125 0 67.4424C1.13083 59.6992 1.71983 51.8962 3.41608 44.193C3.56196 42.8544 4.11355 41.5704 5.01749 40.4655C5.92143 39.3606 7.14707 38.4723 8.57549 37.8866C13.6642 35.6714 22.2396 35.452 29.0011 35.2125C39.3434 34.8732 49.521 33.4762 59.8398 33.3365C70.1586 33.1969 80.0062 32.658 90.1601 32.4784C98.1702 32.3188 106.439 32.9175 114.379 32.4784C121.022 32.0993 126.747 31.6801 133.485 31.6801C143.615 31.6801 153.793 31.6801 163.947 31.6801C168.066 31.6877 172.182 31.4677 176.268 31.0215C182.18 30.6753 188.111 30.6087 194.032 30.822C207.696 30.822 221.36 30.822 235 30.822C242.846 30.822 249.607 31.6801 257.617 31.6801C264.874 31.777 272.133 31.5506 279.362 31.0017C285.675 30.6037 291.925 29.6745 298.021 28.2276C304.311 26.5513 309.8 24.4159 316.585 22.979C323.818 21.4025 330.579 18.9876 338.354 17.9299C346.764 16.7525 355.999 15.9344 364.598 15.1361C377.975 13.7019 391.428 12.8361 404.908 12.5417C414.143 12.422 423.449 11.8631 432.707 11.7035C440.835 11.5239 449.811 11.1048 457.892 10.5859C474.807 9.50825 490.591 10.3864 507.483 10.7456C513.585 10.8653 520.017 11.6436 526.048 12.0827C534.293 12.7013 542.138 12.7013 550.384 13.5994C558.63 14.4974 566.64 15.6949 574.532 16.8923C579.856 17.7105 586.076 17.8901 591.754 18.5885C596.727 19.2302 601.754 19.5305 606.784 19.4866C613.534 19.5021 620.278 19.1488 626.974 18.4289C639.178 17.1516 652.889 16.0141 663.797 13.5994C669.409 12.5075 675.125 11.8397 680.877 11.6037C685.306 11.3243 689.688 11.005 694.094 10.7456C697.039 10.546 699.701 10.107 702.646 9.90745C706.274 9.66797 709.925 10.0272 713.577 9.76774C741.73 7.77207 770.307 6.35511 798.978 6.35511C822.867 6.35511 846.756 6.35511 870.644 6.35511C880.937 6.26523 891.225 6.772 901.436 7.87183C913.71 9.2688 926.691 9.6879 938.895 11.1248C952.7 12.7413 967.519 14.0584 980.241 17.1118C985.306 18.2892 988.368 19.5266 994.376 19.5066C1007.05 19.5066 1019.73 19.5066 1032.38 19.5066C1038.1 19.5066 1043.4 18.7083 1049.06 18.5686C1054.71 18.4289 1060.08 18.848 1065.55 18.4289C1074.97 17.6905 1084.7 17.6705 1094.27 16.9521C1098.81 16.6128 1103.34 17.0918 1107.91 16.6727C1113.04 16.2137 1118.18 16.054 1123.31 15.5751C1129.46 14.9764 1135.52 15.4354 1141.71 14.9364C1150.55 14.218 1158.94 14.2779 1167.93 14.238C1181.06 14.238 1193.85 15.5951 1206.83 15.9942C1211.42 16.075 1216.01 16.3614 1220.57 16.8523C1223.16 17.4082 1225.83 17.7095 1228.5 17.7504C1237.93 17.7504 1247.35 17.7504 1256.78 17.7504C1262.24 17.7504 1267.09 18.389 1272.47 18.6883C1274.91 18.6742 1277.35 18.8009 1279.77 19.0675C1281.98 19.3868 1283.77 20.0454 1286.01 20.3248C1300.34 22.1009 1322.72 22.3204 1336.05 18.6683C1343.23 16.5767 1349.9 13.3913 1355.72 9.26882C1357.95 7.21644 1360.88 5.81823 1364.11 5.27749C1369.92 4.06339 1375.83 3.19649 1381.78 2.68315C1410.05 -0.230523 1439.19 0.268349 1468.22 0.268349C1498.44 0.268349 1532.53 -1.50775 1559.51 5.29747C1564.22 6.47491 1568.41 7.41279 1573.12 8.3308C1579.16 9.49866 1585.36 10.015 1591.55 9.8675C1609.74 9.8675 1628.63 10.5062 1646.72 9.66798C1668.4 8.65019 1689.72 7.09357 1711.3 5.67665C1732.01 4.35951 1752.67 3.42144 1773.38 2.20409C1794.08 0.986731 1814.58 1.1863 1835.52 1.08652C1847.3 1.08652 1858.94 2.06444 1870.34 2.88267C1878.94 3.48137 1887.12 4.59889 1895.93 4.57893C1937.13 4.57893 1978.39 4.81849 2019.33 3.78074C2025.65 3.60113 2031.53 2.76287 2037.99 2.82274C2044.45 2.88261 2049.18 2.20418 2055.52 1.92479C2060.87 1.70526 2066.45 2.1044 2071.87 1.92479C2087.44 1.68531 2103.13 0.627511 2118.7 0.208421C2138.94 -0.310452 2159.08 0.20847 2179.11 1.00674C2184.08 1.2063 2188.01 1.92477 2193.24 1.90481C2200.76 1.90481 2208.6 1.54562 2216.05 2.0645C2227.83 2.90268 2239.61 2.90267 2251.39 3.80072C2257.02 4.23976 2262.74 4.43932 2268.4 4.91828C2274.05 5.39724 2275.09 5.41715 2278.57 7.11347C2284.37 9.94731 2288.87 10.6259 2297.63 11.2645C2315.3 12.5816 2334.1 10.9652 2351.98 11.9031C2376.37 13.1604 2402.92 12.7612 2427.37 12.2623C2439.43 12.0029 2452.18 11.9231 2465.07 11.6636C2465.18 11.8233 2465.25 11.9829 2465.35 12.1426C2467.3 15.2558 2469.2 18.369 2471.05 21.4823C2472.63 24.0767 2474.16 26.6909 2475.62 29.2853L2477.1 31.9196C2473.17 31.9196 2469.26 32.0792 2465.33 32.2788C2458.49 32.6181 2451.68 33.0372 2444.78 33.1968C2438.44 33.3565 2432.46 33.1969 2426.15 32.9973C2415.52 32.647 2404.88 32.8069 2394.27 33.4763C2387.7 33.9353 2381.31 34.8133 2374.77 35.372C2371.63 35.6115 2368.31 35.851 2365.34 36.2701C2362.37 36.6892 2360.44 37.3079 2357.64 37.6471C2352.66 38.1121 2347.79 39.2157 2343.2 40.9201C2341.81 41.5387 2339.76 41.9977 2339.36 42.9157C2338.96 43.8337 2340.25 44.2329 2341.45 44.9114C2346.47 47.406 2355.59 48.3239 2359.62 48.3638C2364.33 49.3218 2369.32 50.1998 2374.53 50.8385C2381.48 51.6567 2388.52 52.8342 2395.73 53.373C2402.94 53.9118 2410.29 54.4507 2417.69 54.5705C2428.27 54.7102 2438.7 54.4308 2449.23 54.1913C2462.07 53.8919 2474.51 52.7344 2486.93 51.7365C2487.42 52.894 2487.97 54.0516 2488.51 55.1891L2482.88 55.5283C2479.14 55.9309 2475.37 56.0245 2471.62 55.8078C2468.29 55.5882 2465.09 55.6481 2461.72 55.6481C2458.96 55.6481 2457.01 55.8476 2454.44 56.0073C2453.55 56.0073 2452.32 56.0073 2451.43 56.0073C2450.09 56.0097 2448.75 56.0964 2447.42 56.2667C2443.49 56.6459 2438.73 56.5062 2435.52 57.544C2434.44 57.7765 2433.5 58.3482 2432.89 59.1441C2432.28 59.9401 2432.05 60.9013 2432.25 61.8346C2432.25 63.0919 2431.47 64.7882 2432.96 65.8259C2434.44 66.9755 2436.21 67.822 2438.14 68.3005C2442.83 69.3542 2447.6 70.1146 2452.42 70.5756C2456.84 71.0147 2461.27 71.5137 2465.58 72.0325C2467.49 72.272 2468.79 72.6113 2470.77 72.7709C2472.75 72.9306 2475.36 73.0901 2477.65 73.2897C2481.98 73.7088 2486.01 74.3475 2490.25 74.8663C2492.35 75.1058 2494.4 75.4052 2496.38 75.7245C2497.62 80.9132 2498.57 86.1418 2499.49 91.3106C2501.28 101.089 2498.38 110.689 2490.93 120.148ZM2405.91 99.0738C2410.61 98.3712 2415.18 97.1291 2419.48 95.3817C2420.54 94.9294 2421.43 94.2388 2422.05 93.3861C2422.47 92.7874 2421.51 91.9691 2420.54 92.508C2417.24 91.672 2413.84 91.1499 2410.41 90.9514C2407.21 90.692 2403.91 90.5324 2400.84 90.1133C2390.79 88.7163 2379.97 88.377 2369.63 87.3393C2363.67 86.7406 2357.47 85.7626 2351.89 84.7847C2346.31 83.8069 2340.42 83.288 2334.62 82.6893C2331.51 82.37 2329.2 81.8512 2325.95 81.6117C2323.43 81.4121 2321.43 80.9531 2319.05 80.6537C2317.68 80.4741 2316.22 80.4941 2314.85 80.3145C2313.49 80.1349 2312.19 79.7757 2310.59 79.5961C2307.66 79.263 2304.71 79.0631 2301.76 78.9974L2290.45 78.8377C2287.62 78.8377 2284.79 78.9974 2281.99 78.8377C2277.4 78.5783 2272.99 77.9596 2268.35 77.8199C2263.71 77.6802 2259.23 77.5605 2254.66 77.3809C2245.07 77.0217 2235.46 76.9818 2225.92 76.6425C2222.34 76.5388 2218.77 76.6054 2215.2 76.842C2211.45 77.0616 2207.8 76.9617 2204.08 77.0416C2201.72 77.0416 2199.37 77.3209 2197.01 77.5405C2194.86 77.6163 2192.73 77.8501 2190.63 78.239C2188.27 78.8377 2187.99 80.2347 2188.41 81.0928C2188.84 81.951 2191.08 82.8889 2192.89 83.8668C2195.81 85.2919 2198.83 86.5648 2201.94 87.6785C2209.59 90.7518 2220.78 92.7276 2230.87 94.4638C2237.93 95.6612 2244.27 97.2377 2251.06 98.6147C2257.84 99.9917 2266.09 100.97 2273.6 101.928C2286.16 103.524 2300.72 103.065 2313.65 102.965C2327.62 102.846 2341.64 102.965 2355.61 102.586C2360.49 102.466 2365.34 102.586 2370.15 102.287C2374.95 101.987 2380.82 102.187 2385.6 101.648C2392.53 100.83 2399.57 100.291 2405.91 99.0738V99.0738ZM2298.55 112.425C2304.84 113.223 2311.25 113.782 2317.75 114.261C2334.2 115.576 2350.74 115.816 2367.23 114.979C2364.63 113.882 2393.66 113.662 2386.69 109.87C2383.55 108.134 2378.28 108.054 2372.93 108.074H2356.08C2350.85 108.074 2345.79 107.735 2340.6 107.695C2330.14 107.595 2319.26 108.194 2308.94 108.793C2306.59 108.912 2290.42 109.411 2290.78 110.968C2290.9 111.766 2297.19 112.225 2298.55 112.425V112.425ZM2046.94 100.032C2050.11 100.96 2053.4 101.556 2056.74 101.808C2059.9 102.147 2063.17 102.407 2066.17 102.905C2075.97 104.522 2086.66 105.121 2096.79 106.398C2102.64 107.136 2108.57 108.274 2114.04 109.391C2119.5 110.509 2125.18 111.167 2130.88 111.886C2133.92 112.285 2136.11 112.864 2139.29 113.183C2141.81 113.423 2143.7 113.942 2146.03 114.301C2147.37 114.48 2148.83 114.52 2150.13 114.74C2151.43 114.959 2152.7 115.338 2154.28 115.538C2157.15 115.946 2160.06 116.219 2162.97 116.356C2166.74 116.496 2170.51 116.676 2174.23 116.795C2177.06 116.795 2179.91 116.795 2182.69 116.975C2187.21 117.354 2191.48 118.072 2196.12 118.332C2200.76 118.591 2205.16 118.811 2209.69 119.09C2219.11 119.689 2228.75 119.948 2238.24 120.507C2241.81 120.687 2245.39 120.687 2248.96 120.507C2252.73 120.368 2256.33 120.507 2260.1 120.507C2262.58 120.507 2264.82 120.328 2267.17 120.188C2269.33 120.199 2271.49 120.053 2273.63 119.749C2275.98 119.19 2276.59 117.913 2276.36 116.935C2276.12 115.957 2274 115.099 2272.4 114.061C2269.72 112.585 2266.94 111.252 2264.06 110.07C2256.99 106.837 2246.3 104.582 2236.43 102.606C2229.59 101.249 2223.61 99.5328 2217.09 97.9762C2210.56 96.4196 2202.48 95.282 2195.15 94.1444C2182.97 92.2485 2168.34 92.3683 2155.34 92.1488C2141.37 91.9292 2127.37 91.5101 2113.4 91.5101C2108.5 91.5101 2103.67 91.3106 2098.82 91.5101C2093.97 91.7097 2088.19 91.3505 2083.29 91.7696C2076.23 92.3483 2069.16 92.7275 2062.7 93.7652C2057.79 94.368 2052.99 95.5084 2048.43 97.1579C2047.27 97.5999 2046.28 98.2875 2045.53 99.1536C2045.1 99.7922 2045.86 100.551 2046.94 100.032V100.032ZM1629.57 89.1752C1630.22 88.4892 1630.78 87.7544 1631.27 86.9801C1631.86 85.9224 1630.61 84.9843 1630.42 84.0464C1630.29 83.2113 1629.84 82.4373 1629.12 81.8512C1628.14 80.9132 1628.02 79.8555 1627.19 78.9774C1625.66 77.7198 1623.81 76.7775 1621.77 76.2234C1619.99 75.7737 1618.17 75.4467 1616.33 75.2455C1613.98 74.9063 1611.62 74.3674 1609.48 73.8685C1604.62 72.6975 1599.68 71.7844 1594.68 71.1345C1586.77 70.3524 1578.82 69.9261 1570.86 69.8572C1560.4 69.5778 1550.08 70.1964 1539.65 70.1964C1532.93 70.1964 1526.08 70.3361 1519.36 70.1964C1513.64 69.9969 1507.94 69.7176 1502.19 69.538C1483.34 68.9592 1464.07 68.9392 1445.22 69.2585C1426.99 69.5579 1408.71 70.1765 1390.52 70.6954C1382.56 70.9348 1374.52 71.3539 1366.65 71.9327C1356.31 72.691 1345.45 73.4095 1335.39 74.6069C1324.04 75.944 1307.43 77.8399 1302.41 82.2503C1296.92 87.0998 1306.72 90.9914 1316.05 94.1046C1324.15 96.5425 1332.52 98.2418 1341.05 99.1735C1351.98 100.67 1363.4 101.868 1374.88 102.646C1408.03 104.971 1441.31 105.637 1474.55 104.642C1502.83 103.744 1531.45 103.085 1559.37 101.189C1575.53 100.052 1592.56 99.0738 1607.38 96.3397C1612.45 95.5462 1617.47 94.4864 1622.39 93.1666C1624.34 92.5479 1629.45 91.171 1626.39 91.3506C1627.56 90.7426 1628.63 90.0116 1629.57 89.1752V89.1752ZM1907.78 83.8269C1903.03 82.7696 1898.13 82.2265 1893.22 82.2104C1885.04 81.8409 1876.84 81.8809 1868.67 82.3301C1861.84 82.6324 1855.07 83.6034 1848.51 85.2239C1846.89 85.5592 1845.31 86.0132 1843.79 86.5809C1843.44 86.8603 1843.65 87.3193 1843.46 87.6187C1843.04 88.2573 1841.86 88.9358 1843.23 89.6143C1845.69 90.0752 1848.22 90.183 1850.72 89.9336C1854.28 89.7739 1857.25 89.5944 1860.83 89.6143C1869.05 89.6143 1877.32 89.1353 1885.56 88.7761C1890.7 88.5566 1895.84 88.3371 1900.97 88.0577C1904.29 88.0537 1907.61 87.773 1910.87 87.2195C1910.61 86.6807 1909.74 86.2616 1908.27 85.9822C1915.29 85.8226 1909.57 84.3258 1907.78 83.8269ZM1856.09 75.485C1859.53 74.4273 1863.72 73.6889 1866.93 72.6112C1871.53 71.1955 1876.25 70.1074 1881.06 69.3583C1883.93 68.7974 1886.73 68.0227 1889.43 67.0434C1891.78 66.3249 1894.14 65.766 1896.64 65.1873C1895.4 64.4587 1893.96 64.012 1892.47 63.8902C1887.77 63.4566 1883.05 63.3432 1878.33 63.551C1874.99 63.551 1871.88 63.1318 1868.48 63.1518C1863.61 63.1518 1859.06 62.8125 1854.18 62.7726C1843.77 62.7726 1833.55 62.4533 1823.2 62.114C1819.17 61.9743 1815.1 62.2138 1811.07 61.9943C1807.04 61.7748 1802.9 61.7149 1798.61 61.7149C1789.42 61.7149 1779.97 61.4555 1770.88 61.8945C1767.2 62.0542 1764.12 62.3934 1760.56 62.7127C1757 63.032 1753 63.0919 1749.16 63.2516C1738.72 63.7305 1728.24 64.2094 1717.92 64.9678C1702.44 66.0654 1687.29 67.9015 1672.43 69.8772C1665.83 70.7752 1659.52 71.8729 1653.18 73.0104C1648.8 73.7687 1641.99 74.0481 1639.04 75.6047C1635.32 77.6004 1634.97 80.4542 1639.4 82.3301C1646.3 85.2837 1657.63 86.0221 1667.27 87.0798C1674.33 87.8581 1681.94 88.357 1689.25 89.0755C1695.68 89.5944 1701.87 90.4525 1708.38 90.9115C1716.1 91.4503 1723.76 91.7696 1731.58 92.069C1740.44 92.4082 1748.97 92.8872 1757.87 92.6677C1768.01 92.4446 1778.12 91.7784 1788.17 90.672C1795 89.8538 1801.62 88.8958 1808.38 88.0177C1813.64 87.3392 1818.77 86.5609 1823.77 85.6429C1828.13 85.0403 1832.44 84.2005 1836.68 83.1284C1843.96 80.8534 1848.84 77.8399 1856.09 75.525V75.485ZM1915.53 60.5973C1920.48 60.5973 1925.19 60.2781 1930.21 60.298C1933.72 60.298 1937.28 60.298 1940.74 60.298C1948.28 60.298 1955.82 59.7193 1963.26 59.2802C1972.26 58.7414 1980.69 57.9231 1989.18 56.8255C1991.5 56.5993 1993.81 56.2325 1996.08 55.7279C1997.61 55.3287 1997.96 54.9696 1998.08 54.4507C1998.95 54.3474 1999.74 53.988 2000.32 53.4365C2000.9 52.8849 2001.24 52.1768 2001.26 51.4373C2001.26 49.6811 1998.43 48.5036 1995.23 47.2862C1989.13 45.1249 1982.67 43.7784 1976.08 43.2949C1964.49 42.2971 1952.73 41.6784 1940.88 41.1995C1935.04 40.9999 1929.1 40.6407 1923.31 40.5608C1917.51 40.481 1912.42 40.7804 1906.81 41.0997C1895.86 41.6984 1884.67 41.878 1873.69 42.4767C1862.71 43.0754 1851.21 43.3548 1839.91 43.7738C1831.31 44.0931 1822.26 44.3127 1813.99 45.1708C1808.97 45.6897 1804.97 46.8072 1800.21 47.4858C1795.45 48.1643 1791.82 49.3816 1787.3 50.2198C1783.88 50.8405 1780.61 51.9616 1777.64 53.5327C1774.91 54.9097 1776.77 56.3066 1780.23 57.3244C1785.63 58.507 1791.15 59.2357 1796.72 59.4997C1801.43 59.8988 1805.91 60.298 1810.55 60.6173C1822.33 61.4155 1835.38 60.9566 1847.4 60.9366C1860.24 60.9366 1873.03 61.4554 1885.85 61.3357C1895.76 61.3157 1905.68 60.8168 1915.53 60.5973ZM1709.2 59.34C1704.44 58.2803 1699.54 57.7371 1694.62 57.7235C1686.46 57.3542 1678.27 57.3942 1670.12 57.8433C1663.27 58.1458 1656.49 59.1169 1649.9 60.737C1648.29 61.0747 1646.71 61.5356 1645.19 62.114C1644.81 62.3735 1645.07 62.8325 1644.89 63.1318C1644.46 63.7704 1643.26 64.449 1644.65 65.1275C1647.11 65.5729 1649.64 65.674 1652.14 65.4269C1655.65 65.2672 1658.67 65.0876 1662.25 65.1075C1670.45 65.1075 1678.74 64.6286 1686.96 64.2893C1692.13 64.0632 1697.27 63.8236 1702.39 63.5708C1705.71 63.5507 1709.01 63.2633 1712.26 62.7127C1711.98 62.1739 1711.13 61.7747 1709.7 61.4754C1716.72 61.3157 1710.99 59.8788 1709.22 59.34H1709.2ZM1709.48 92.9471C1703.78 92.2639 1698.02 91.9039 1692.26 91.8695C1677.02 91.4703 1662.77 89.0355 1647.15 90.3926C1642.44 90.8117 1633.27 91.3506 1632.54 93.7054C1632 95.4616 1638.85 97.4972 1642.25 98.4352C1648.28 100.112 1658.97 100.63 1666.16 101.01C1674.69 101.449 1684.37 101.349 1692.97 101.249C1702.39 101.109 1705.03 100.271 1714.93 98.3952L1724.56 97.4573C1724.87 95.2621 1713.98 93.6056 1709.51 92.9471H1709.48ZM1648.44 69.6577C1650.56 69.4979 1652.65 69.1637 1654.69 68.6599C1655.11 68.5202 1656.43 67.6022 1656.22 67.4226C1654.96 67.0627 1653.64 66.8675 1652.31 66.8437C1648.47 66.5444 1645 66.5644 1641.12 66.4845C1633.34 66.3448 1625.59 65.5067 1617.84 65.367C1613.77 65.1492 1609.69 65.4588 1605.73 66.285C1603.09 67.0633 1603.78 67.4625 1606.01 68.2807C1609.05 69.2785 1611.64 69.8772 1609.81 69.0988C1611.64 69.6941 1613.56 70.0768 1615.51 70.2364C1616.17 70.2364 1617.16 70.2364 1617.86 70.2364C1620.22 70.2364 1622.58 70.5956 1624.93 70.6355C1632.79 70.8166 1640.65 70.4898 1648.44 69.6577V69.6577ZM1361.02 66.265C1372.61 67.9015 1385.85 67.5621 1398.44 67.5621H1442.23C1455.75 67.5621 1469.39 67.7218 1482.89 67.5621C1489.28 67.5621 1495.38 67.183 1501.74 67.183H1515.5C1529.92 67.183 1544.15 67.3627 1558.24 66.5445C1560.85 66.3848 1563.72 66.285 1566.13 66.0256C1567.89 65.826 1569.87 65.327 1571.78 65.1075C1578.85 64.2294 1586.41 63.8702 1593.86 63.2715C1599.56 62.8125 1604.53 62.8125 1610.54 62.8125H1622.32C1626.52 62.8395 1630.71 62.5994 1634.87 62.094C1633.46 62.593 1635.65 62.0941 1637.54 61.6551C1640.34 61.0564 1643 60.4976 1645.83 59.9388C1648.65 59.38 1655.79 57.4242 1653.79 56.3465C1651.18 54.9495 1642.98 54.3509 1638.31 53.7322C1634.64 53.2133 1630.8 52.6945 1626.79 52.3752C1618.81 51.6966 1609.97 51.8962 1601.75 51.4771C1590.89 50.9183 1580.55 50.2797 1569.31 50.5392C1556.68 50.8186 1544.08 50.9782 1531.45 51.2776C1507.89 51.8763 1483.95 51.9361 1460.28 51.9162C1438.32 51.9162 1415.52 52.1356 1393.82 53.0936C1388.43 53.2493 1383.06 53.6758 1377.73 54.3708C1374.51 54.9182 1371.36 55.7062 1368.3 56.7257C1364.39 57.8233 1361 59.0406 1357.28 60.1981C1355.28 60.6761 1353.41 61.4683 1351.77 62.5332C1350.12 64.3093 1355.91 65.5266 1361.12 66.265H1361.02ZM1524.95 43.9136C1531 46.4281 1542.52 47.0867 1551.26 47.1865C1556.3 47.1865 1561.18 47.5656 1566.18 47.5457C1571.17 47.5257 1575.6 47.9248 1580.31 47.9049H1602.62C1611.17 47.9049 1619.25 48.7031 1627.73 48.9825C1633.6 49.1621 1638.97 50.6989 1644.23 51.4572C1648.19 51.7225 1652.13 52.2293 1656.01 52.9738C1658.64 53.8914 1661.36 54.6257 1664.13 55.1691C1667.53 55.708 1669.76 55.4086 1671.37 54.1713C1672.51 53.1793 1673.89 52.4039 1675.42 51.8962C1674.51 51.5051 1673.8 50.8493 1673.42 50.0496C1673.04 49.25 1673.01 48.3607 1673.34 47.5457C1674.19 45.9292 1678.29 45.55 1681.68 45.0111C1684.3 44.5122 1686.77 44.153 1689.53 43.7938C1691.89 43.4945 1693.42 43.0954 1695.54 42.7162C1697.66 42.337 1699.64 42.1774 1701.66 41.7184C1704.02 41.3249 1706.31 40.7229 1708.52 39.9222C1711.37 38.4454 1711.37 36.8089 1709.01 35.2723C1704.16 32.0992 1696.81 31.1812 1686.91 31.1612C1673.93 31.1612 1661 32.3587 1648.11 32.9973C1642.11 33.3166 1636.05 33.596 1630 33.7357C1626.01 33.7357 1622.08 34.075 1618.08 34.1149C1614.54 34.1149 1611.01 34.0151 1607.57 34.1149C1601.23 34.3743 1595.08 34.3942 1588.72 34.3942C1581.65 34.3942 1574.8 34.5937 1567.75 34.7534C1560.71 34.913 1553.38 35.392 1546.15 35.7512C1540.63 35.9121 1535.16 36.6426 1529.85 37.9266C1526.43 38.8246 1524.92 39.563 1524.05 41.0398C1523.3 42.2971 1522.61 42.9756 1524.95 43.9136ZM1680.44 47.5457C1678.5 48.304 1676.97 49.0823 1677.4 50.16C1677.66 50.8784 1677.89 50.8984 1679.56 51.2576C1682.49 51.8762 1685.85 52.2355 1688.82 52.8741C1691.41 53.4528 1693.89 54.0914 1696.41 54.73C1700.02 55.6359 1703.72 56.2704 1707.46 56.6259C1715.92 57.504 1724.49 58.1027 1733.23 58.6216C1747.57 59.5962 1761.97 59.8028 1776.34 59.2403C1776.65 58.901 1774.62 57.4243 1774.25 56.9253C1773.87 56.4264 1772.43 55.5682 1772.29 54.7101C1772.03 52.8341 1775.31 51.2176 1778.89 49.9803C1781.24 49.1621 1782.19 48.5235 1780.84 47.406C1779.5 46.2884 1774.81 44.9913 1771.11 44.4724C1755.27 42.5664 1739.23 42.0914 1723.27 43.0554C1708.82 43.6541 1691.11 43.4147 1680.41 47.5856L1680.44 47.5457ZM1765.25 38.8047C1765.25 37.9665 1760.82 37.3079 1758.93 37.0684C1756.55 36.7995 1754.15 36.6528 1751.75 36.6293C1745.39 36.4896 1739.43 35.5318 1732.9 36.0706C1730.9 36.2303 1727.08 36.4497 1726.8 37.3677C1726.52 38.2857 1729.44 38.8246 1730.83 39.1838C1734.11 39.7938 1737.46 40.128 1740.82 40.1817C1744.4 40.3812 1748.45 40.3213 1752.03 40.2814C1755.13 40.2402 1758.21 39.8647 1761.2 39.1639L1765.25 38.8047ZM1713.84 26.5512C1718.37 29.5447 1728.94 31.6203 1737.21 32.9374C1742.7 33.8354 1747.67 34.4741 1753.54 34.9331C1758.41 35.2871 1763.25 35.86 1768.05 36.6493C1771.8 37.3877 1775.59 38.0662 1779.36 38.7447C1781.72 39.2037 1784.61 39.4432 1786.85 40.022C1789.96 40.8202 1792.51 41.6984 1793.47 40.2016C1793.82 40.7223 1794.23 41.2106 1794.7 41.6584C1797.05 41.6584 1799.29 41.8181 1801.62 41.9379C1807.28 42.2173 1812.84 41.9378 1818.44 41.7382C1824.05 41.5387 1829.85 41.7383 1835.55 41.5986C1842.05 41.3592 1848.51 40.9998 1854.96 40.7404C1873.81 40.002 1892.23 39.104 1910.61 37.5674C1916.81 36.9388 1922.88 35.5959 1928.65 33.576C1932.49 32.4385 1937.18 31.7799 1941.07 30.6623C1944.57 29.6832 1947.99 28.5236 1951.32 27.1899C1952.75 26.6311 1954.97 25.8328 1955.02 25.0345C1955.16 23.3382 1949.41 22.1608 1945.78 21.5421C1940.98 20.916 1936.14 20.5296 1931.29 20.3847C1924.74 20.0055 1918.31 19.6063 1911.64 19.4666C1895.36 19.1673 1879.04 18.7083 1862.76 18.6485C1852.39 18.6485 1842.19 18.5287 1831.8 18.6485C1821.41 18.7682 1810.6 19.0475 1799.95 19.287C1782.55 19.7127 1765.14 20.0986 1747.72 20.4445C1740.3 20.7838 1705.41 21.0232 1713.84 26.5512ZM1950 32.658C1947.64 32.7977 1931.5 33.2767 1931.86 34.8533C1932.05 35.6715 1938.19 36.1105 1939.7 36.2901C1945.97 37.0884 1952.38 37.6471 1958.9 38.1261C1975.35 39.4607 1991.89 39.701 2008.38 38.8446C2005.78 37.7669 2034.79 37.5473 2027.84 33.7556C2024.68 32.0193 2019.4 31.9196 2014.08 31.9396H1997.07C1991.84 31.9396 1986.8 31.6003 1981.61 31.5604C1971.2 31.4805 1960.29 32.0792 1950 32.658V32.658ZM2019.19 39.2038C2017.57 39.2205 2015.95 39.3204 2014.34 39.5031C2012.59 39.6428 2011.06 39.5031 2009.63 39.7426C2006.82 40.1616 2004.91 41.0996 2008.61 41.7382C2006.26 42.7161 2002.96 43.734 2003.5 45.091C2004.32 47.3661 2013.49 48.1244 2018.53 48.3838C2024.63 48.6832 2030.66 49.0225 2036.79 49.2819C2040.13 49.3576 2043.47 49.5975 2046.78 50.0003C2048.36 50.2398 2049.72 50.5991 2051.49 50.7986C2053.54 51.0381 2055.78 51.098 2057.92 51.2776C2060.87 51.517 2063.74 51.976 2066.66 52.2754C2071.37 52.7943 2076.51 52.8741 2081.36 53.1135C2086.22 53.353 2090.79 53.3929 2095.5 53.373C2099.64 53.373 2103.11 53.5526 2107.14 53.7522C2115 54.1114 2122.78 54.0515 2130.84 54.1114C2132.32 54.1114 2133.19 54.2711 2133.92 53.7721C2134.65 53.2732 2133.73 52.934 2133.38 52.6346C2132.22 51.8267 2130.94 51.1554 2129.56 50.6389C2128.41 50.14 2126.76 49.7808 2125.77 49.2419C2124.69 48.5728 2123.75 47.7568 2122.99 46.8273C2121.25 45.5735 2119.29 44.563 2117.17 43.8338C2110.05 41.0312 2102.33 39.5026 2094.48 39.3435C2078.98 38.4654 2062.94 38.9044 2047.37 38.9044C2037.61 38.8445 2028.61 39.2637 2019.19 39.2038ZM2131.45 50.1001C2132.74 50.9183 2137.79 51.2577 2139.95 51.577C2143.56 52.0958 2147.19 52.5348 2150.79 53.0138C2154.82 53.5327 2158.09 54.4507 2161.91 55.1292C2164.97 55.688 2168.2 56.0871 2171.33 56.6659C2175.57 57.4642 2179.77 58.2824 2184.15 58.921C2187.87 59.4997 2191.57 59.7991 2195.25 60.298C2209.83 58.3023 2225.26 56.9452 2240.01 55.209C2247.83 54.291 2255.86 53.6325 2263.57 52.6546C2265.57 52.3951 2272.5 52.0359 2268.54 50.9184C2267.76 50.7188 2265.43 50.4992 2264.49 50.3795C2262.27 50.0801 2260.06 50.0801 2257.84 49.7608C2254.33 49.2619 2250.77 48.7431 2247.31 48.2043C2240.4 47.2079 2233.4 46.7535 2226.39 46.8471C2215.04 46.8471 2203.84 46.9669 2192.51 47.1665C2181.94 47.3661 2171.31 47.9848 2160.66 47.9448C2153.1 47.9448 2143.77 47.386 2136.61 48.2841C2134.13 48.6233 2129.73 49.1022 2131.38 50.1001H2131.45ZM2183.91 66.0654C2184.36 65.0875 2188.63 63.6108 2186.41 62.7526C2184.72 62.4018 2183.01 62.1616 2181.28 62.0342C2179.78 61.7792 2178.3 61.4528 2176.85 61.0564C2174.49 60.5175 2171.97 59.839 2169.5 59.4399C2163.94 58.7472 2158.33 58.4202 2152.72 58.4619C2137.08 58.1626 2121.18 57.6238 2105.75 56.6859C2097.52 56.167 2089.02 55.8876 2080.7 55.6681C2072.76 55.4685 2064.4 55.0893 2056.51 55.2489C2041.67 55.5283 2026.26 56.586 2011.91 57.983C1996.2 59.5196 1980.41 60.737 1964.39 61.7748C1949.9 62.7128 1935.08 63.2915 1920.88 64.6685C1912.79 65.2981 1904.78 66.5675 1896.97 68.4602C1895.36 68.8793 1893.62 69.1388 1891.95 69.498C1890.14 69.7691 1888.36 70.1222 1886.6 70.5556C1884.18 71.1967 1882.06 72.4848 1880.57 74.2277C1880.4 74.4548 1880.29 74.7077 1880.24 74.9717C1880.2 75.2357 1880.21 75.5053 1880.29 75.7644C1880.64 76.5427 1881.89 76.862 1883.33 77.4807C1889.12 79.9752 1896.99 80.8134 1905.47 81.5917C1919.46 82.8889 1934.92 82.6295 1949.22 82.9488C1959.94 83.1683 1970.42 83.2082 1981.26 83.2282C1989.41 83.2282 1997.56 82.9089 2005.71 82.869C2012.78 82.869 2019.85 82.5697 2026.71 82.39C2034.48 82.2104 2042.35 82.0906 2050.08 81.6715C2058.53 81.2125 2066.57 80.6737 2074.91 79.9353C2081.29 79.3765 2087.61 78.9974 2093.75 78.1193C2105.18 76.5028 2117.57 75.9241 2129.09 74.4074C2140.61 72.8907 2152.93 71.8529 2163.63 69.8572C2167.23 69.1388 2171.19 68.7994 2175.03 68.3005C2179.74 67.7018 2183.54 67.0034 2188.06 66.1253C2183.3 66.0854 2183.56 66.0655 2183.84 66.0455L2183.91 66.0654ZM2059.05 88.2174C2068.48 88.6564 2077.66 89.0555 2087.13 89.0355C2094.79 89.0355 2102.47 89.2352 2110.06 89.4946C2118.28 89.754 2126.55 89.9137 2134.72 89.7341C2138 89.7341 2141.25 89.3948 2144.52 89.3749C2146.88 89.3749 2149.24 89.4946 2151.59 89.3749C2156.63 89.0157 2162 88.397 2167.14 88.3571C2169.92 88.3571 2174.49 88.6164 2175.22 87.6385C2174.67 86.846 2173.92 86.1649 2173.03 85.6429C2171.9 85.0641 2169.94 84.7847 2168.65 84.2659C2166.39 83.5252 2164.32 82.413 2162.57 80.9931C2161.91 79.9852 2161.12 79.0415 2160.21 78.1791C2158.9 77.2559 2157.38 76.576 2155.74 76.1834C2151.03 74.8264 2143.23 75.2655 2137.76 75.7444C2134.72 75.9839 2131.73 76.1036 2128.67 76.4629C2125.61 76.8221 2122.85 76.8021 2119.9 77.1813C2116.96 77.5604 2113.92 77.8399 2111.16 78.3188C2107.91 78.8776 2104.4 78.9973 2100.94 79.3166C2098.11 79.5761 2095.24 79.6759 2092.36 80.075C2090.43 80.3544 2088.78 80.2945 2086.85 80.4342C2086.14 80.4342 2085.6 80.6737 2085.11 80.7336C2083.81 80.8533 2082.54 80.7336 2081.22 80.7336C2077.97 80.9531 2075.21 81.2923 2072.17 81.5518C2068.26 81.891 2064.21 82.2903 2060.18 82.6295C2055.75 83.0286 2051.28 83.4676 2046.87 83.9266C2044.56 84.0243 2042.27 84.3253 2040.04 84.8247C2032.83 87.3592 2056.32 88.0776 2058.86 88.1974L2059.05 88.2174ZM1730.07 115.558C1738.18 117.991 1746.57 119.697 1755.09 120.647C1766 122.144 1777.45 123.321 1788.9 124.099C1822.05 126.424 1855.34 127.091 1888.58 126.095C1916.85 125.197 1945.47 124.558 1973.39 122.623C1989.55 121.525 2006.61 120.627 2021.4 117.793C2026.49 117.016 2031.51 115.956 2036.44 114.62C2038.37 114.001 2043.36 112.624 2040.42 112.804C2041.57 112.203 2042.64 111.479 2043.57 110.649C2044.23 109.968 2044.79 109.232 2045.27 108.453C2045.88 107.396 2044.63 106.458 2044.42 105.52C2044.31 104.694 2043.87 103.926 2043.17 103.345C2042.14 102.387 2042.04 101.349 2041.22 100.451C2039.69 99.2018 2037.84 98.2665 2035.82 97.7167C2034.03 97.2586 2032.19 96.9313 2030.33 96.7388C2027.98 96.3995 2025.62 95.8408 2023.48 95.3619C2018.62 94.1835 2013.68 93.2702 2008.68 92.6277C2000.78 91.8702 1992.84 91.4572 1984.89 91.3904C1974.4 91.131 1964.13 91.7497 1953.65 91.7297C1946.96 91.7297 1940.08 91.8694 1933.39 91.7297C1927.64 91.5302 1921.94 91.2508 1916.21 91.0711C1897.37 90.4724 1878.07 90.4724 1859.25 90.7917C1841.01 91.0911 1822.73 91.7296 1804.52 92.2485C1796.56 92.468 1788.52 92.9072 1780.68 93.466C1770.31 94.2243 1759.48 94.9427 1749.42 96.1401C1738.06 97.4772 1721.43 99.3931 1716.43 103.784C1710.97 108.553 1720.77 112.445 1730.07 115.558ZM1399.92 123.221C1400.27 124.02 1401.52 124.319 1402.96 124.938C1408.75 127.432 1416.62 128.27 1425.13 129.049C1439.1 130.346 1454.58 130.086 1468.88 130.406C1479.57 130.625 1490.08 130.665 1500.92 130.685C1509.07 130.685 1517.2 130.366 1525.35 130.326C1532.42 130.326 1539.48 130.027 1546.34 129.867C1554.11 129.667 1562.01 129.548 1569.73 129.129C1578.17 128.689 1586.22 128.131 1594.54 127.392C1600.92 126.834 1607.24 126.454 1613.39 125.576C1624.79 123.96 1637.18 123.381 1648.73 121.864C1660.27 120.348 1672.66 119.39 1683.33 117.314C1686.96 116.596 1690.9 116.256 1694.76 115.758C1699.47 115.159 1703.24 114.46 1707.79 113.602C1706.38 113.678 1704.96 113.678 1703.55 113.602C1703.99 112.584 1708.26 111.128 1706.04 110.269C1704.36 109.917 1702.64 109.677 1700.91 109.551C1699.24 109.312 1698.03 108.912 1696.48 108.573C1694.12 108.034 1691.6 107.356 1689.13 106.957C1683.57 106.274 1677.97 105.947 1672.36 105.979C1656.74 105.679 1640.83 105.141 1625.38 104.203C1617.16 103.704 1608.65 103.404 1600.36 103.185C1592.42 102.985 1584.06 102.606 1576.14 102.766C1561.3 103.045 1545.89 104.123 1531.57 105.52C1515.85 107.036 1500.05 108.254 1484.03 109.292C1469.54 110.23 1454.74 110.808 1440.51 112.205C1432.42 112.821 1424.41 114.084 1416.6 115.977C1415 116.396 1413.25 116.676 1411.58 117.015C1409.91 117.354 1407.62 117.633 1406.23 118.072C1403.82 118.704 1401.71 119.986 1400.23 121.725C1399.91 122.175 1399.8 122.707 1399.92 123.221V123.221ZM1058.6 127.572C1059.1 128.334 1059.68 129.055 1060.34 129.727C1061.29 130.557 1062.36 131.281 1063.52 131.883C1060.55 131.783 1065.57 133.08 1067.48 133.699C1072.41 135.028 1077.44 136.087 1082.53 136.872C1097.3 139.606 1114.39 140.604 1130.55 141.721C1158.39 143.717 1187.09 144.276 1215.36 145.154C1248.6 146.159 1281.89 145.493 1315.04 143.158C1326.51 142.38 1337.94 141.162 1348.87 139.686C1357.32 138.762 1365.64 137.083 1373.67 134.676C1383.1 131.543 1392.8 127.672 1387.32 122.822C1382.32 118.412 1365.74 116.516 1354.33 115.159C1344.27 114.001 1333.46 113.163 1323.07 112.505C1315.25 111.926 1307.22 111.507 1299.25 111.287C1281.02 110.768 1262.78 110.13 1244.55 109.83C1225.7 109.511 1206.38 109.531 1187.56 110.11C1181.83 110.289 1176.13 110.589 1170.41 110.768C1163.69 110.988 1156.81 110.768 1150.1 110.768C1139.66 110.768 1129.37 110.17 1118.91 110.429C1110.96 110.495 1103.02 110.908 1095.11 111.666C1090.11 112.303 1085.16 113.209 1080.3 114.381C1078.13 114.859 1075.84 115.438 1073.46 115.758C1071.6 115.943 1069.76 116.277 1067.97 116.755C1065.94 117.3 1064.09 118.236 1062.56 119.489C1061.75 120.427 1061.64 121.485 1060.62 122.383C1059.91 122.96 1059.46 123.73 1059.35 124.558C1059.26 125.736 1057.99 126.514 1058.6 127.572V127.572ZM410.962 88.8958C411.905 88.8958 413.177 88.9956 414.048 88.8958C414.448 88.8099 414.842 88.7034 415.226 88.5766C419.137 88.2373 423.26 87.9579 427.124 87.4989C437.419 86.3415 448.68 86.082 459.329 85.3236C462.91 85.0642 466.797 85.3236 470.425 85.3236H484.56C495.468 85.3236 506.117 85.9423 516.954 86.3414C527.391 86.6807 537.945 87.5188 548.429 87.5188C553.659 87.5188 560.467 87.5188 564.355 86.062C565.772 85.5778 566.929 84.6685 567.606 83.5076C568.589 82.4212 569.449 81.2585 570.174 80.0351C571.116 78.0394 569.867 76.0438 566.381 74.5071C561.407 72.3546 556.023 70.9629 550.478 70.3961C547.356 70.0005 544.21 69.7605 541.055 69.6775C537.332 69.6775 533.751 69.458 530.006 69.3183C524.446 69.1587 519.027 68.8992 513.397 68.9392C505.622 68.9392 497.989 69.3383 490.167 69.3183C475.537 69.3183 461.001 69.3184 446.466 69.957C431.93 70.5956 417.347 70.3561 402.787 70.875C391.636 71.1739 380.525 72.1677 369.546 73.8485C364.777 74.4456 360.056 75.2921 355.41 76.3831C352.938 76.9536 350.63 77.9449 348.625 79.2967C346.434 80.973 347.353 82.0109 351.547 83.0087C361.267 85.1229 371.169 86.5843 381.16 87.3792C390.584 88.2773 399.819 89.0755 409.431 89.1952C408.394 89.1553 409.808 88.8958 410.962 88.8958ZM730.963 78.7379C737.442 78.239 743.897 77.6803 750.164 76.882C751.672 76.7024 757.821 76.2633 758.009 75.445C758.362 73.8685 742.201 73.4494 739.869 73.2499C729.526 72.6711 718.666 72.0723 708.182 72.1721C702.999 72.1721 697.957 72.5713 692.704 72.5513H675.718C670.393 72.5513 665.116 72.5513 661.959 74.3275C655.009 78.1392 684.01 78.3188 681.419 79.4364C697.93 80.2926 714.495 80.0591 730.963 78.7379V78.7379ZM688.44 92.069C688.449 92.8105 688.785 93.5222 689.382 94.0646C689.942 94.6424 690.744 95.0144 691.62 95.1024C691.761 95.6413 692.068 95.9804 693.622 96.3796C695.897 96.8844 698.212 97.2513 700.549 97.4773C709.148 98.5749 717.582 99.4729 726.581 99.9319C734.026 100.371 741.541 100.89 749.08 100.95C752.614 100.95 756.148 100.95 759.635 100.95C764.606 100.95 769.364 101.169 774.312 101.289C784.183 101.469 794.101 101.967 803.973 102.067C816.789 102.207 829.558 101.668 842.397 101.688C854.436 101.688 867.417 102.147 879.267 101.329C883.979 101.03 888.502 100.65 893.072 100.251C898.64 99.968 904.162 99.233 909.564 98.056C913.027 97.0581 914.888 95.6412 912.132 94.2642C909.172 92.6927 905.911 91.5716 902.496 90.9514C897.973 90.1132 894.345 88.9558 889.586 88.2174C884.827 87.479 880.822 86.4212 875.757 85.9023C867.417 85.0641 858.394 84.8248 849.842 84.5054C838.533 84.0864 827.272 83.8269 816.058 83.2282C804.844 82.6295 793.889 82.4299 782.911 81.8312C777.374 81.5119 772.144 81.2325 766.537 81.2923C760.93 81.3522 754.758 81.7314 748.939 81.9509C737.159 82.39 725.38 83.0286 713.765 84.0464C707.175 84.528 700.714 85.8745 694.612 88.0377C691.267 89.1353 688.44 90.3128 688.44 92.069V92.069ZM681.372 82.3701C685.071 81.6915 683.162 80.7536 680.359 80.3744C678.827 80.1549 677.296 80.3744 675.529 80.1349C673.928 79.9583 672.315 79.865 670.7 79.8555C661.276 79.8555 652.206 79.4763 642.806 79.4763C627.163 79.4763 611.119 79.0372 595.688 79.9153C587.841 80.0692 580.116 81.5981 573.001 84.4056C570.886 85.1475 568.916 86.1568 567.158 87.3991C566.411 88.3329 565.478 89.15 564.402 89.8139C563.412 90.3527 561.739 90.7319 560.585 91.2109C559.212 91.756 557.935 92.4613 556.792 93.3063C556.439 93.5857 555.803 94.0646 556.25 94.4238C556.698 94.7831 557.829 94.7631 559.336 94.7431C567.347 94.7431 575.121 94.7431 583.037 94.4039C587.065 94.2043 590.529 94.0247 594.675 94.0247C599.387 94.0247 604.098 94.0247 608.81 93.7652C613.522 93.5058 618.823 93.446 623.535 92.9471C626.479 92.6278 629.354 92.1687 632.299 91.9293C634.395 91.7297 636.633 91.6898 638.73 91.4503C640.379 91.2508 641.699 90.8915 643.324 90.652C646.636 90.2582 649.97 90.0184 653.313 89.9336C659.415 89.6742 665.47 89.3349 671.548 89.0355C676.613 88.7761 685.683 88.0178 686.602 85.7428C687.073 84.246 683.869 83.3479 681.419 82.3701H681.372ZM558.535 90.692C560.185 89.6941 555.732 89.1952 553.235 88.8958C546.167 87.9778 536.743 88.5167 529.134 88.5566C518.556 88.5566 507.931 87.9578 497.306 87.7583C485.998 87.5787 474.783 87.459 463.428 87.439C456.428 87.3462 449.433 87.8005 442.531 88.7961C439.045 89.3548 435.464 89.8538 431.977 90.3527C429.786 90.692 427.571 90.692 425.333 90.9914C423.979 91.1 422.633 91.2799 421.305 91.5301C417.323 92.6277 424.273 93.0069 426.252 93.2464C434.05 94.2242 442.084 94.8829 449.811 95.8009C464.677 97.5371 480.084 98.8742 494.691 100.89C498.366 100.411 502.065 100.072 505.763 99.5327C510.169 98.8542 514.339 98.0559 518.603 97.2577C521.642 96.6789 524.87 96.2799 528.027 95.7211C531.843 95.0426 535.094 94.1246 539.123 93.6057C542.751 93.1267 546.379 92.6876 549.96 92.1687C552.151 91.8095 557.193 91.5102 558.535 90.692ZM460.46 65.6264C468.234 66.1054 475.867 65.9856 483.736 65.9856C490.521 65.9856 497.094 65.6264 503.855 65.6464C509.533 65.6464 514.928 65.9058 520.511 65.9856C526.095 66.0654 531.631 66.5843 537.215 66.744C544.987 66.8673 552.731 67.5887 560.349 68.8993C566.347 70.256 572.254 71.8881 578.042 73.7886C580.535 74.569 583.075 75.2352 585.652 75.7843C589.94 76.5139 594.306 76.8618 598.68 76.8221C601.036 76.8221 603.392 76.9218 605.748 76.8221C608.104 76.7223 610.459 76.4628 612.815 76.4229C616.208 76.4229 619.624 76.4229 623.04 76.4229C626.456 76.4229 629.047 76.0836 632.11 76.0437C644.714 75.7643 652.748 71.6133 664.339 70.0567C672.618 69.2031 680.948 68.7567 689.288 68.7197C694.423 68.5999 699.347 67.9813 704.554 67.9813C707.644 68.021 710.734 67.9277 713.812 67.7019C717.676 67.3426 721.94 67.3826 724.65 66.0854C726.181 65.3669 726.699 64.4889 728.419 63.7904C731.268 62.7874 734.217 61.9994 737.23 61.4356C746.654 59.3202 757.161 58.6616 767.503 57.4442C769.689 57.183 771.853 56.803 773.982 56.3067C776.338 55.7479 778.246 55.0494 780.366 54.311C786.922 55.7262 793.604 56.6807 800.344 57.1648C806.887 57.534 813.451 57.534 819.993 57.1648C822.82 56.9852 834.293 55.1691 827.39 54.1713C824.28 53.7123 821.241 53.2533 817.967 52.894C806.823 51.5769 792.829 51.1179 782.628 53.6324C781.827 53.832 781.073 54.0316 780.272 54.2511C778.694 53.9517 777.068 53.6724 775.419 53.393C762.744 51.2776 748.232 51.2177 734.568 50.6789C718.077 50.0203 701.585 49.3417 684.929 48.8628H683.445C670.535 48.5035 657.53 48.5036 644.643 48.2043C632.864 47.9448 620.92 47.6255 608.999 47.4459C580.328 47.0268 551.562 47.0268 522.914 47.7652C513.09 48.0246 503.384 48.6234 493.583 48.9427C485.573 49.1822 477.917 49.4615 470.025 50.12C462.132 50.7786 455.889 51.6767 448.704 52.6746C445.735 53.0737 443.827 53.393 442.72 54.4507C441.612 55.5084 442.908 56.2467 444.628 57.2046C446.44 58.2439 448.436 59.0322 450.541 59.5397C453.126 60.1633 455.661 60.9298 458.127 61.8346C459.376 62.3535 460.884 62.7726 462.132 63.2915C463.758 64.1896 463.381 64.888 460.412 65.6264H460.46ZM827.107 59.4597C810.828 59.4597 794.525 59.9587 778.223 60.2581C771.555 60.3978 765.147 60.7969 758.574 61.1761C753.73 61.321 748.9 61.7074 744.109 62.3335C740.481 62.9322 734.686 64.1296 734.874 65.8259C734.874 66.6242 737.23 67.4225 738.549 67.9813C741.892 69.3099 745.322 70.4759 748.821 71.4737C752.708 72.5713 757.397 73.2299 761.237 74.3674C767.01 76.3873 773.081 77.7302 779.283 78.3588C797.659 79.8954 816.176 80.7934 834.929 81.5518C841.384 81.7913 847.839 82.1705 854.342 82.39C859.996 82.5697 865.721 82.3899 871.422 82.5296C877.123 82.6693 882.589 83.0087 888.266 82.7293C890.622 82.7293 892.837 82.4299 895.193 82.4698C895.655 82.0115 896.066 81.5171 896.418 80.9931C897.36 82.4898 899.928 81.6117 903.038 80.8134C905.276 80.2546 908.056 79.9952 910.506 79.5561C914.299 78.8576 918.092 78.1791 921.838 77.4407C926.635 76.6484 931.479 76.0821 936.35 75.7444C942.193 75.1857 947.164 74.5071 952.677 73.7488C960.946 72.4117 971.524 70.3362 976.023 67.3626C984.481 61.8147 949.567 61.5752 942.169 61.3756C924.767 61.0164 907.357 60.6372 889.939 60.2381C879.314 59.9786 868.736 59.7192 858.087 59.5995C847.439 59.4797 837.45 59.4198 827.107 59.4597ZM924.665 79.4164L928.694 79.7956C931.681 80.4914 934.76 80.8604 937.858 80.8933C941.439 80.8933 945.491 80.9931 949.049 80.8933C952.411 80.8223 955.758 80.4679 959.038 79.8355C960.451 79.4763 963.325 78.6981 963.09 78.0195C962.854 77.341 958.99 76.882 956.988 76.7223C950.462 76.2034 944.525 77.1413 938.141 77.281C935.729 77.3045 933.322 77.4512 930.932 77.7201C929.071 77.9397 924.5 78.5982 924.641 79.4364L924.665 79.4164ZM966.623 83.6074C950.669 82.6368 934.637 83.1051 918.799 85.0044C915.1 85.5232 910.695 86.5609 909.069 87.9379C907.443 89.3149 908.692 89.6941 911.024 90.5123C914.582 91.7496 917.88 93.3661 917.597 95.242C917.597 96.1002 916.278 96.6989 915.665 97.4573C915.053 98.2157 913.31 99.4529 913.569 99.7922C927.941 100.348 942.341 100.135 956.682 99.1536C965.398 98.7145 973.974 98.1358 982.455 97.1579C986.204 96.7871 989.903 96.119 993.504 95.1622C996.001 94.5236 998.475 93.885 1001.09 93.3063C1004.06 92.6876 1007.43 92.3085 1010.33 91.6898C1012 91.3306 1012.26 91.3107 1012.52 90.6122C1012.94 89.5146 1011.39 88.7362 1009.45 87.9779C998.734 84.0065 981.042 84.246 966.6 83.6273L966.623 83.6074ZM977.602 103.205C980.844 103.757 984.143 104.038 987.45 104.043C992.609 104.322 997.745 104.562 1002.9 104.781C1011.08 105.141 1019.4 105.619 1027.62 105.6C1031.2 105.6 1034.19 105.779 1037.7 105.919C1040.21 106.176 1042.75 106.075 1045.22 105.62C1046.61 105.021 1045.4 104.342 1044.98 103.624C1044.79 103.324 1044.98 102.865 1044.63 102.606C1043.1 102.038 1041.53 101.577 1039.92 101.229C1033.33 99.6029 1026.55 98.6384 1019.7 98.3554C1011.55 97.8862 1003.38 97.8461 995.224 98.2355C990.293 98.2293 985.382 98.7729 980.618 99.8521C978.827 100.291 973.126 101.848 980.146 101.848C978.686 102.287 977.885 102.686 977.578 103.225L977.602 103.205ZM1059.05 103.424H1067.71C1071.83 103.337 1075.95 103.484 1080.04 103.863C1085.53 104.462 1090.99 104.841 1096.29 105.699C1097.71 105.939 1099.17 106.418 1100.49 106.617C1102.23 106.877 1104.37 106.977 1106.28 107.136C1116.67 107.954 1127.15 107.775 1137.8 107.775H1147.91C1152.62 107.775 1157.12 108.094 1161.83 108.154C1171.8 108.274 1181.83 108.154 1191.82 108.154H1224.08C1233.38 108.154 1243.13 108.473 1251.66 106.837C1255.5 106.119 1259.86 104.841 1258.47 103.125C1257.34 102.109 1255.97 101.312 1254.44 100.79C1251.69 99.6325 1249.19 98.4352 1246.32 97.3176C1244.08 96.2873 1241.71 95.4962 1239.25 94.9627C1235.37 94.2837 1231.43 93.8566 1227.47 93.6855C1211.47 92.7275 1194.65 92.488 1178.47 92.5279C1161.01 92.5279 1143.41 92.5279 1126.05 91.8893C1116.62 91.57 1107.44 91.4303 1098.11 91.131C1090.13 91.0343 1082.15 91.3409 1074.22 92.049C1068.16 92.488 1061.66 92.2885 1055.77 92.9471C1052.78 93.2863 1050 93.7853 1047.27 94.3241C1043.8 95.0226 1037.84 95.5414 1035.86 96.9384C1034.38 98.036 1039.63 99.9518 1041.71 100.531C1043.78 101.109 1045.78 101.648 1047.83 102.247C1049.24 102.666 1050.85 103.185 1049.81 102.686C1052.84 103.192 1055.93 103.446 1059.02 103.444L1059.05 103.424ZM981.301 80.534C983.527 81.3226 985.839 81.9242 988.203 82.3301C990.206 82.7891 992.232 82.9288 994.329 83.328C996.426 83.7271 998.004 84.1262 1000.34 84.4255C1003.07 84.7648 1005.57 85.1241 1008.16 85.623C1011.53 86.2616 1015.67 86.5409 1016.52 88.1574C1016.85 88.9755 1016.82 89.8664 1016.44 90.6683C1016.06 91.4702 1015.35 92.13 1014.45 92.5279C1015.88 93.0486 1017.16 93.8168 1018.22 94.7831C1019.25 95.4297 1020.45 95.8577 1021.71 96.0313C1022.98 96.2049 1024.28 96.1191 1025.5 95.7809C1028.27 95.2406 1030.99 94.5064 1033.63 93.5857C1037.51 92.8493 1041.44 92.3425 1045.4 92.069C1050.75 91.3106 1056.12 89.774 1061.9 89.5944C1070.35 89.3349 1078.39 88.4967 1087.01 88.5166C1094.43 88.5166 1101.88 88.5166 1109.32 88.5166C1114.03 88.5166 1118.74 88.0975 1123.46 88.1375C1128.17 88.1774 1133.37 87.8182 1138.42 87.7782C1147.13 87.7782 1158.68 87.02 1164.71 84.4855C1167.06 83.5276 1166.36 82.849 1165.67 81.6915C1164.8 80.2147 1163.32 79.4763 1159.88 78.5783C1154.56 77.3042 1149.08 76.574 1143.55 76.403C1136.32 76.0239 1129.27 75.5649 1121.97 75.4052C1114.67 75.2456 1108.07 75.0259 1100.96 75.0459C1094.6 75.0459 1088.45 75.046 1082.11 74.7466C1078.53 74.6069 1075.04 74.7466 1071.58 74.7466C1067.6 74.7466 1063.66 74.4473 1059.66 74.3674C1053.6 74.2277 1047.57 73.9484 1041.54 73.629C1028.75 72.9904 1015.63 71.773 1002.72 71.7929C992.868 71.7929 985.518 72.731 980.665 75.9041C978.497 77.4408 978.497 79.0772 981.301 80.5539V80.534ZM1165.06 88.876C1176.84 90.233 1189.51 90.6919 1201.74 91.0512C1207.94 91.2507 1213.85 91.5102 1220.09 91.4303C1223.68 91.4303 1227.16 91.0711 1230.7 91.0312C1234.7 91.0312 1238.66 91.0312 1242.66 91.0312C1256.8 90.5522 1271.85 90.8716 1284.86 88.5965C1288.32 87.9779 1289.43 86.6008 1288.42 85.3236C1286.25 82.5496 1277.41 81.9309 1270.56 81.6515C1259.91 81.2125 1249.35 81.492 1238.68 81.1328C1228.48 80.7735 1218.16 80.9331 1208.06 80.9331C1201.88 80.9331 1195.92 80.8134 1189.92 81.2923C1186.28 81.6228 1182.67 82.1091 1179.1 82.7493C1176.86 83.189 1174.67 83.7967 1172.55 84.5653C1171.75 84.8646 1171.16 85.124 1170.43 85.4434C1169.93 85.6431 1169.47 85.9055 1169.07 86.2217C1168.5 86.7165 1168 87.258 1167.56 87.8382C1166.77 88.3128 1165.89 88.6705 1164.97 88.8958L1165.06 88.876ZM833.869 116.117C841.125 118.352 845.978 121.425 853.258 123.7C857.492 124.777 861.804 125.617 866.168 126.215C871.163 127.133 876.299 127.891 881.529 128.59C888.314 129.468 894.934 130.426 901.742 131.244C911.8 132.36 921.921 133.026 932.062 133.24C940.944 133.459 949.496 132.98 958.307 132.641C966.152 132.362 973.809 132.022 981.56 131.483C988.062 131.024 994.235 130.186 1000.69 129.647C1007.99 129.029 1015.46 128.53 1022.62 127.652C1032.31 126.594 1043.61 125.876 1050.54 122.922C1054.97 120.926 1054.59 118.192 1050.89 116.177C1048.04 114.62 1041.21 114.341 1036.76 113.582C1030.42 112.485 1024.11 111.347 1017.51 110.469C1002.72 108.473 987.497 106.657 972.019 105.54C961.676 104.801 951.216 104.302 940.779 103.823C936.939 103.664 933.146 103.664 929.377 103.305C925.607 102.945 922.733 102.626 919.058 102.466C909.941 102.027 900.517 102.307 891.329 102.287C887.041 102.287 883.107 102.287 878.866 102.566C874.626 102.846 870.762 102.566 866.71 102.686C856.391 103.025 846.167 103.305 835.754 103.364C830.924 103.364 826.33 103.764 821.453 103.724C818.037 103.724 814.951 104.063 811.582 104.123C806.867 103.904 802.139 104.018 797.447 104.462C795.935 104.587 794.484 105.033 793.23 105.759C795.75 106.378 798.201 106.897 800.486 107.615C803.185 108.6 805.984 109.375 808.849 109.93C813.658 110.684 818.386 111.772 822.985 113.183C826.094 114.341 830.335 115.059 833.775 116.137L833.869 116.117ZM523.079 128.849C528.215 128.849 533.61 129.508 538.628 129.867C540.984 130.047 543.34 129.867 545.696 129.867C548.971 129.867 552.175 130.146 555.449 130.226C563.718 130.406 571.941 130.226 580.139 129.987C587.749 129.727 595.429 129.488 603.085 129.528C612.509 129.528 621.768 129.148 631.168 128.709C633.712 128.59 657.2 127.871 650.156 125.257C647.923 124.75 645.633 124.442 643.324 124.339C638.919 123.88 634.442 123.441 629.99 123.062L618.022 121.984C614.959 121.705 612.203 121.345 608.952 121.146C607.656 121.146 606.384 121.146 605.041 121.146C604.593 121.146 604.028 120.906 603.321 120.846C601.389 120.707 599.74 120.846 597.832 120.507C594.958 120.088 592.083 120.008 589.256 119.729C585.793 119.43 582.189 119.29 579.032 118.731C576.252 118.232 573.26 117.973 570.291 117.594C567.323 117.214 564.355 117.214 561.504 116.875C558.653 116.536 555.449 116.416 552.434 116.157C546.968 115.678 539.241 115.259 534.458 116.596C532.82 116.992 531.295 117.672 529.982 118.591C529.119 119.459 528.369 120.402 527.744 121.405C525.984 122.821 523.921 123.938 521.666 124.698C520.37 125.197 518.415 125.476 517.26 126.055C516.379 126.588 515.633 127.267 515.069 128.051C515.635 129.128 520.229 128.869 522.985 128.869L523.079 128.849ZM526.33 110.389C537.003 112.385 549.536 113.462 560.938 114.979C572.341 116.496 584.827 116.975 596.277 118.671C602.473 119.549 608.787 119.928 615.124 120.487C623.37 121.226 631.497 121.784 639.932 122.223C647.659 122.643 655.551 122.762 663.326 122.962C670.276 123.122 677.343 123.381 684.293 123.421C692.468 123.421 700.619 123.8 708.747 123.78C719.514 123.78 729.95 123.78 740.787 123.501C755.088 123.181 770.566 123.501 784.56 122.144C793.018 121.365 800.91 120.527 806.705 118.033C808.142 117.434 809.391 117.095 809.721 116.316C809.801 116.054 809.817 115.781 809.769 115.513C809.72 115.246 809.608 114.989 809.438 114.76C807.958 113.021 805.849 111.739 803.431 111.108C802.041 110.669 799.732 110.389 798.083 110.05C796.434 109.711 794.643 109.431 793.065 109.012C785.252 107.119 777.246 105.856 769.152 105.24C755.017 103.863 740.128 103.245 725.639 102.327C709.619 101.289 693.787 100.052 678.097 98.5349C663.75 97.1579 648.366 96.0803 633.524 95.8009C625.608 95.6412 617.244 96.0203 609.329 96.2399C600.989 96.4594 592.484 96.7388 584.285 97.2377C568.831 98.1756 552.928 98.7145 537.309 98.9939C531.696 98.9786 526.09 99.3121 520.535 99.9917C518.061 100.391 515.517 101.089 513.185 101.608C511.723 102.005 510.236 102.331 508.732 102.586C507.001 102.715 505.284 102.955 503.596 103.305C501.24 104.163 505.669 105.639 506.117 106.617C506.4 106.617 506.659 106.617 501.9 106.617C506.423 107.475 510.145 108.174 514.904 108.773C518.674 109.371 522.608 109.771 526.236 110.409L526.33 110.389ZM267.865 106.677C269.747 107.253 271.699 107.648 273.684 107.855C275.899 108.254 277.878 108.633 280.234 108.872C283.862 109.252 287.466 109.451 290.977 109.97C294.399 110.469 297.852 110.809 301.319 110.988C310.86 111.407 320.166 112.105 329.849 112.505C334.372 112.684 338.943 112.924 343.466 113.143C347.989 113.363 352.748 113.143 357.389 113.143C360.24 113.143 362.878 113.602 365.635 113.782C369.357 114.061 373.103 114.281 376.802 114.54C379.629 114.72 382.927 114.68 385.801 114.54C387.45 114.54 388.793 114.281 390.513 114.201C392.233 114.121 393.34 114.201 394.801 114.201C397.298 114.201 399.513 113.782 402.104 113.802C405.449 113.802 407.97 113.502 411.198 113.443C417.229 113.303 423.448 113.223 429.338 112.724C435.228 112.225 442.013 111.746 448.185 111.607C458.928 111.407 469.648 111.906 480.32 111.367C483.571 111.187 486.916 111.367 490.191 111.367C493.815 111.44 497.438 111.199 501.004 110.649C501.617 111.247 503.054 110.529 502.984 109.91C502.973 109.49 502.856 109.076 502.641 108.698C502.426 108.319 502.117 107.984 501.735 107.715C498.424 105.601 494.688 104.012 490.709 103.025C484.728 101.419 478.649 100.087 472.498 99.0338C468.14 98.1358 462.556 97.8764 457.821 97.1979C453.086 96.5193 448.397 96.2798 443.686 95.7809C430.257 94.364 416.522 93.3461 402.952 92.1288C390.301 91.0112 376.378 89.4148 363.161 89.9935C355.245 90.3527 346.788 90.6321 339.155 91.4703C331.522 92.3085 324.595 93.3263 316.962 93.9449C305.96 94.8629 293.945 95.9406 284.639 98.2954C280.87 99.2733 276.888 100.171 273.496 101.309C271.329 101.794 269.28 102.598 267.441 103.684C266.405 104.622 265.886 105.919 267.771 106.697L267.865 106.677ZM132.566 87.4989C137.364 88.5195 142.247 89.2267 147.173 89.6143C152.332 90.0933 157.468 90.4525 162.792 90.6122C168.117 90.7718 173.606 90.6121 179.024 90.7917C199.945 91.4902 219.781 94.2043 240.772 94.7831C251.28 95.0425 261.74 95.3219 272.294 95.1622C279.715 95.1622 287.019 94.5436 294.275 93.9849C301.531 93.4261 308.41 92.2685 315.478 91.4503C320.732 90.8117 325.632 89.9536 330.414 88.9757C334.537 88.9757 343.56 88.0177 348.578 85.5231C349.78 84.9244 351.099 84.4056 350.699 83.5275C350.298 82.6494 348.343 82.2502 346.835 81.5318C342.242 79.8327 337.374 78.7294 332.393 78.259C329.566 77.9197 327.446 77.2811 324.666 76.882C321.886 76.4829 318.328 76.2433 315.242 75.9639C308.716 75.4251 302.332 74.567 295.735 74.108C285.123 73.4216 274.472 73.255 263.837 73.6091C257.546 73.7887 251.586 73.9682 245.225 73.8086C238.322 73.6489 231.537 73.2499 224.705 72.8907C214.227 72.3244 203.712 72.4377 193.254 73.2299C188.801 73.5891 184.537 74.2078 180.132 74.6269C175.09 75.1058 169.836 75.465 164.889 76.0437C159.942 76.6225 154.947 77.6204 149.788 78.259C146.738 78.5645 143.721 79.0715 140.765 79.7756C136.501 80.8932 129.975 82.9089 128.797 84.8846C127.807 86.2417 129.621 86.9001 132.472 87.5188L132.566 87.4989ZM207.813 43.0954C206.141 41.7184 201.759 40.6806 198.06 40.1617C182.222 38.2625 166.19 37.7942 150.235 38.7647C135.794 39.3634 118.101 39.1439 107.382 43.3149C105.45 44.0732 103.919 44.8516 104.343 45.9492C104.602 46.6477 104.837 46.6676 106.534 47.0268C109.431 47.6454 112.8 48.0246 115.769 48.6433C118.737 49.2619 120.857 49.8606 123.355 50.4992C126.955 51.4579 130.655 52.1261 134.404 52.4949C142.885 53.3929 151.46 53.9916 160.177 54.4906C174.518 55.4715 188.918 55.6848 203.29 55.1292C203.596 54.77 201.57 53.2733 201.193 52.7943C200.816 52.3153 199.379 51.4572 199.262 50.5791C198.979 48.7032 202.254 47.0866 205.834 45.8493C208.073 44.8714 209.039 44.2328 207.719 43.1152L207.813 43.0954ZM141.848 58.8013C128.632 58.442 115.392 58.1028 102.152 58.4221C89.5948 58.7015 77.085 59.34 64.4574 59.7192C55.7406 59.9986 47.4948 59.4997 38.8487 59.4199C30.2025 59.3401 22.1219 59.4199 13.7821 59.4199C11.1906 59.4199 5.77197 59.3002 5.183 60.5175C4.59402 61.7349 7.72733 61.9744 11.3318 63.4312C18.5662 64.8874 25.9523 65.7362 33.3831 65.9656C39.1932 66.1436 44.9843 66.6302 50.7225 67.4226C53.7851 67.8616 56.8949 68.2806 60.0283 68.6199C62.5962 68.8793 65.0698 69.2985 67.5906 69.538C71.6663 69.9371 75.5535 69.9969 79.3701 70.7153C83.1866 71.4338 87.7336 71.7731 91.9742 72.252C98.4294 72.9505 104.508 73.609 111.104 74.068C112.871 74.1878 114.12 74.3075 115.816 74.3475C117.159 74.3475 118.831 74.2078 120.151 74.3475C122.134 74.5835 124.132 74.7168 126.135 74.7466C139.351 74.7466 151.673 73.1899 164.512 72.2919C171.438 71.8129 178.506 71.4338 185.503 71.0945C188.212 70.9748 191.134 70.9349 193.819 70.7553C194.738 70.7553 195.374 70.4759 196.317 70.4161C197.259 70.3562 198.673 70.4159 199.827 70.2962C204.192 70.0011 208.572 69.908 212.949 70.0169C217.85 70.0169 222.137 70.3961 227.085 70.3761C232.668 70.3761 239.123 70.6954 244.636 70.3761C247.239 70.2535 249.828 69.9801 252.387 69.5578C254.418 69.2959 256.399 68.806 258.277 68.101C259.29 67.163 249.607 65.9257 247.463 65.7262C241.715 65.1873 236.767 64.1497 231.255 63.4312C224.8 62.593 218.038 62.1539 211.347 61.6351C188.66 59.8789 164.913 59.4398 141.778 58.8211L141.848 58.8013ZM318.022 43.0954C316.373 41.7184 311.991 40.6806 308.292 40.1617C292.446 38.2621 276.407 37.7938 260.444 38.7647C246.026 39.3634 228.31 39.1439 217.614 43.3149C215.682 44.0732 214.151 44.8516 214.575 45.9492C214.834 46.6477 215.07 46.6676 216.742 47.0268C219.664 47.6454 223.033 48.0246 225.977 48.6433C228.922 49.2619 231.09 49.8606 233.587 50.4992C237.187 51.4599 240.887 52.1281 244.636 52.4949C253.07 53.3929 261.646 53.9916 270.41 54.4906C284.75 55.4718 299.15 55.6851 313.522 55.1292C313.805 54.77 311.803 53.2733 311.402 52.7943C311.002 52.3153 309.612 51.4572 309.494 50.5791C309.188 48.7032 312.486 47.0866 316.067 45.8493C318.234 44.8714 319.294 44.2328 317.952 43.1152L318.022 43.0954ZM287.984 57.2246C279.573 57.3425 271.185 58.0097 262.894 59.2203C259.266 59.7591 253.471 60.757 252.575 62.2338C251.68 63.7105 254.814 64.3492 256.887 65.2272C257.947 65.6862 258.889 66.1452 259.785 66.5643C260.18 66.7039 260.566 66.864 260.939 67.0434C261.41 67.3627 261.245 67.5622 261.646 67.8815C262.47 68.58 262.753 68.8593 262.682 69.6975C262.682 69.8173 262.47 70.2962 262.682 70.4359C262.894 70.5756 263.884 70.9149 264.002 70.9948C270.292 71.4737 276.558 72.2321 283.037 72.252C285.558 72.252 287.584 72.5713 290.105 72.6112C291.919 72.6112 293.78 72.6112 295.571 72.6112C297.361 72.6112 299.222 72.9505 301.178 72.9904C303.133 73.0303 305.159 72.9904 307.185 72.9904C311.897 73.2499 316.491 73.2298 321.108 73.5491C323.182 73.6888 325.302 73.5491 327.422 73.5491C329.543 73.5491 331.003 73.7688 332.935 73.8885C337.889 74.2477 342.87 74.2477 347.824 73.8885C358.921 72.8907 369.993 71.7132 381.113 70.7153C384.388 70.4359 387.568 70.0169 390.937 69.8772C394.306 69.7375 397.769 69.8771 400.997 69.458C409.69 68.5999 418.336 67.8616 427.171 67.1631C434.71 66.5844 442.013 66.2052 449.316 65.1674C452.261 64.7883 460.436 63.5309 454.311 62.4732C449.599 61.655 443.497 61.3557 438.361 60.9167C430.139 60.2182 421.87 59.859 413.601 59.4199C393.481 58.3822 373.15 57.983 352.937 57.4243C341.534 57.065 330.179 57.1448 318.752 57.1448C308.363 57.2646 298.091 57.1248 287.914 57.2446L287.984 57.2246ZM636.657 35.2723C634.984 32.4784 625.726 29.6047 619.694 28.0082C615.499 27.0268 611.223 26.313 606.902 25.8728C599.575 24.9747 592.767 23.6376 585.487 22.7595C578.207 21.8815 571.045 21.4025 563.86 20.7639C557.64 20.1652 551.586 19.2871 545.319 18.7682C530.499 17.6236 515.596 17.4568 500.745 18.2693C491.039 18.7682 481.427 19.3469 471.626 19.5664C462.627 19.8059 454.169 19.5664 445.241 19.287C430.167 18.7898 415.073 19.0231 400.031 19.9855C390.607 20.6242 381.655 21.9812 372.396 22.6398C367.944 22.999 363.232 23.3382 358.968 23.9169C355.057 24.4757 352.018 25.3937 348.036 25.9126C340.972 26.5689 334.068 28.1371 327.564 30.5625C325.585 31.4406 322.663 32.0993 322.122 33.2368C321.58 34.3743 323.394 35.1127 325.09 35.9509C332.158 39.4832 344.997 40.8003 350.84 40.8601C357.625 42.2371 364.575 43.4546 372.043 44.3327C381.867 45.5301 391.832 47.1665 401.986 47.9448C412.14 48.7231 422.624 49.4815 433.131 49.6411C448.091 49.8407 462.886 49.4216 477.893 49.0824C507.601 48.4238 535.754 44.5522 565.391 43.5344C573.071 43.2749 580.704 43.5344 588.385 43.3149C596.065 43.0954 603.203 42.5764 610.53 41.8979C617.512 41.333 624.434 40.3257 631.238 38.8844C635.126 37.9265 637.694 37.0086 636.657 35.2325V35.2723ZM973.95 27.4893C973.864 26.6588 973.419 25.8844 972.702 25.3139C971.689 24.376 971.594 23.3182 970.77 22.4202C969.235 21.1735 967.38 20.2446 965.351 19.7061C963.559 19.2392 961.723 18.9053 959.862 18.7083C957.506 18.369 955.15 17.8302 953.03 17.3512C948.169 16.1524 943.218 15.2323 938.211 14.5972C930.317 13.8552 922.383 13.4489 914.44 13.3799C903.957 13.1205 893.661 13.7391 883.225 13.7191C876.511 13.7191 869.631 13.8389 862.941 13.6194C857.216 13.4397 851.515 13.1603 845.766 12.9807C826.919 12.382 807.648 12.382 788.801 12.6813C770.542 12.9807 752.284 13.6194 734.097 14.1383C726.134 14.3578 718.053 14.7968 710.232 15.3556C699.842 16.1339 689.028 16.8523 678.969 18.0497C667.59 19.3868 650.981 21.2827 645.986 25.6731C640.497 30.5226 650.298 34.4341 659.58 37.5474C667.695 39.9782 676.089 41.6838 684.623 42.6363C695.531 44.1131 706.957 45.3106 718.454 46.0689C751.604 48.4044 784.888 49.0708 818.131 48.0646C846.402 47.1665 875.026 46.5278 902.944 44.612C919.105 43.4944 936.138 42.5166 950.957 39.7625C956.038 39.0038 961.053 37.9503 965.964 36.6095C967.919 35.9908 972.89 34.6137 969.969 34.7933C971.136 34.1968 972.199 33.4647 973.126 32.6181C973.774 31.9375 974.349 31.2095 974.846 30.4428C975.529 29.3452 974.162 28.507 973.95 27.4493V27.4893ZM968.979 50.4194C962.171 50.2598 955.551 49.8207 948.672 50.12C931.45 50.8584 914.087 51.1977 896.842 51.4971C883.79 51.7365 871.61 52.7744 859.148 53.9518C856.179 54.2312 852.716 54.2711 850.007 54.77C848.368 54.932 846.775 55.3303 845.295 55.9475C846.486 56.2076 847.719 56.3018 848.947 56.2268C853.267 56.762 857.632 57.0024 861.998 56.9453C866.427 56.9453 871.021 56.5062 875.38 56.6659C888.314 57.065 901.295 57.1049 914.252 57.5838C920.519 57.8233 926.856 57.8433 933.099 58.1227C938.73 58.4021 944.502 58.7015 950.156 58.7813C954.868 58.7813 959.579 59.1605 964.291 59.1405C969.945 59.1405 975.081 59.2802 980.782 59.4997C984.623 59.6394 988.604 59.7193 992.397 59.9388C994.724 59.9427 997.041 60.1839 999.3 60.6572C1000.08 61.0364 999.441 62.2937 999.441 62.6529C999.441 63.4512 999.182 64.1297 1000.69 64.7883C1003.54 66.0056 1009.48 66.4247 1013.53 66.7839C1025.17 67.7219 1037.09 68.4402 1048.87 69.0589C1057.7 69.5379 1066.61 69.5978 1075.37 70.2164C1084.8 70.9149 1094.22 71.2541 1103.64 71.6932C1111.2 72.0324 1119.33 71.6932 1126.61 72.4316C1131 72.8952 1135.46 72.6788 1139.76 71.7929C1145.2 70.1365 1141.53 68.3205 1138.01 66.704C1131.52 64.1109 1124.65 62.246 1117.59 61.1561L1119.36 60.5375C1121.29 60.6772 1123.22 60.7969 1125.08 61.0364C1136.43 62.4528 1147.56 64.9085 1158.28 68.3605C1161.1 69.2984 1164.02 70.1167 1166.95 71.0347C1170.35 71.9071 1173.86 72.469 1177.41 72.711C1189.84 74.009 1202.34 74.775 1214.86 75.0061C1235.03 75.6646 1255.39 74.5071 1275.39 73.8685C1283.8 73.6091 1291.88 72.8906 1300.19 72.3718C1307.26 71.9128 1314.33 71.5934 1321.04 70.6754C1328.35 69.6775 1341.21 68.0013 1343.5 64.888C1345.07 62.7127 1340.2 60.0984 1336.15 58.6616C1328.09 55.8277 1315.81 53.9917 1305.05 52.934C1292.99 51.7566 1280.08 50.7188 1267.57 50.3995C1254 50.0203 1239.95 50.3995 1226.46 50.8984C1218.52 51.2376 1210.62 51.7566 1202.75 52.3154C1196.77 52.7344 1190.98 53.5127 1185.16 54.0116C1179.88 54.4507 1174.44 54.5904 1169.11 54.6702C1160.54 54.79 1151.7 55.5882 1143.2 56.147C1139.5 56.3865 1135.97 56.7656 1132.41 57.2246C1130.14 57.7585 1127.82 58.1257 1125.48 58.3222L1119.24 60.5375C1117.14 60.4177 1115.07 60.298 1113.02 60.1184C1109.41 59.799 1105.95 59.2402 1102.63 58.7214C1088 56.5461 1072.38 55.4085 1056.95 54.3309C1035.96 52.8341 1014.68 52.0559 993.457 51.1379C985.306 50.8385 977.154 50.5391 968.979 50.3795V50.4194ZM1304.34 37.9266C1302.69 35.1326 1293.46 32.2588 1287.4 30.6623C1283.22 29.6742 1278.95 28.9538 1274.63 28.5071C1267.28 27.629 1260.5 26.2918 1253.19 25.3937C1245.89 24.4957 1238.73 24.0367 1231.59 23.398C1225.35 22.8193 1219.32 21.9412 1213.03 21.4024C1198.21 20.2743 1183.3 20.1142 1168.45 20.9234C1158.75 21.4224 1149.13 22.0012 1139.33 22.2407C1130.31 22.4602 1121.9 22.2406 1112.95 21.9413C1097.88 21.4474 1082.8 21.674 1067.76 22.6198C1058.34 23.2784 1049.39 24.5156 1040.1 25.274C1035.67 25.6532 1030.94 25.9925 1026.68 26.5912C1022.41 27.1899 1019.75 28.048 1015.74 28.5869C1008.69 29.249 1001.79 30.8239 995.295 33.2566C993.292 34.1347 990.394 34.7734 989.829 35.9309C989.264 37.0884 991.101 37.7868 992.797 38.645C999.865 42.1773 1012.7 43.4945 1018.55 43.5344C1025.33 44.9313 1032.26 46.1288 1039.75 47.0468C1049.62 48.2242 1059.56 49.8606 1069.72 50.619C1079.87 51.3773 1090.36 52.1757 1100.84 52.3154C1115.85 52.5149 1130.62 52.1157 1145.6 51.7765C1175.36 51.098 1203.46 47.2263 1233.15 46.2285C1240.78 45.969 1248.46 46.2285 1256.12 46.009C1263.77 45.7895 1270.96 45.2507 1278.28 44.5921C1285.26 44.0273 1292.17 43.02 1298.97 41.5787C1302.83 40.6207 1305.35 39.7027 1304.34 37.9266ZM1335.84 41.0198C1323.71 41.2792 1308.02 41.9179 1304.22 44.6919C1302.46 45.9691 1304.22 47.3462 1310.49 47.9648C1333.6 50.2399 1360.43 49.9604 1385.38 50.3995C1392.45 50.5392 1399.52 50.3995 1406.59 50.3995C1412.92 50.3995 1419.07 50.7787 1425.43 50.7986C1436.48 50.7986 1447.01 50.5991 1457.97 50.4194C1479.62 50.0802 1502.28 49.6012 1523.06 48.2641C1521.6 48.017 1520.17 47.6425 1518.8 47.1465C1517.98 46.5383 1517.09 45.9908 1516.16 45.5101C1515.4 45.1984 1514.61 44.9446 1513.8 44.7517C1512.53 44.4324 1511.45 44.153 1510.06 43.8936C1506.23 43.0915 1502.35 42.4785 1498.44 42.0576C1491.96 41.4589 1486.29 40.9401 1479.27 40.6008C1468.59 40.1218 1458.06 40.2415 1447.13 40.2415C1428.99 40.2415 1410.64 40.0619 1392.55 40.4211C1373.67 40.8602 1354.83 40.5808 1335.84 41.0198ZM1840 14.1383C1837.27 13.6393 1833.8 13.5794 1830.86 13.32C1818.33 12.1425 1806.15 11.0849 1793.17 10.8653C1775.87 10.566 1758.51 10.2267 1741.34 9.48832C1734.43 9.18897 1727.84 9.62804 1721.03 9.76774C1712.85 9.94735 1704.7 10.2466 1696.55 10.5859C1675.35 11.5039 1654.14 12.2823 1633.08 13.779C1617.6 14.8567 1602.03 15.9941 1587.38 18.1694C1583.96 18.6883 1580.62 19.2471 1577.01 19.5664C1574.94 19.746 1572.87 19.8458 1570.79 19.9855L1564.5 17.7704C1562.11 17.5777 1559.75 17.2104 1557.43 16.6727C1553.92 16.2137 1550.37 15.8345 1546.69 15.595C1538.3 15.0163 1529.45 14.238 1520.78 14.1183C1515.43 14.1183 1510.03 13.8987 1504.76 13.4597C1498.84 12.9408 1493.14 12.1825 1487.16 11.7634C1479.29 11.2046 1471.4 10.6857 1463.43 10.3464C1449.96 9.78765 1435.89 9.46833 1422.32 9.82755C1409.84 10.1668 1396.93 11.2046 1384.87 12.3821C1374.08 13.4398 1361.82 15.2558 1353.77 18.1096C1349.72 19.5465 1344.82 22.1009 1346.42 24.3161C1348.77 27.4493 1361.57 29.1257 1368.82 30.1236C1375.61 31.0416 1382.63 31.3608 1389.67 31.7998C1397.99 32.3187 1406.16 33.0571 1414.5 33.3166C1434.53 33.9552 1454.88 35.0927 1475.03 34.4541C1487.49 34.055 1500.61 33.576 1512.51 32.179C1516.05 31.9326 1519.55 31.364 1522.94 30.4828C1525.87 29.5648 1528.81 28.7465 1531.61 27.8085C1542.33 24.3529 1553.46 21.8971 1564.81 20.4845C1566.69 20.245 1568.63 20.1053 1570.56 19.9855L1572.32 20.6042C1565.25 21.6755 1558.39 23.5412 1551.9 26.1521C1548.39 27.7486 1544.83 29.5847 1550.15 31.2211C1554.44 32.1061 1558.88 32.3226 1563.25 31.8598C1570.58 31.2212 1578.68 31.5005 1586.27 31.1412C1595.69 30.7022 1605.12 30.363 1614.54 29.6844C1623.31 29.0259 1632.19 28.9661 1641.07 28.5071C1652.85 27.8685 1664.79 27.1699 1676.41 26.212C1680.46 25.8927 1686.4 25.4736 1689.22 24.2163C1690.73 23.5777 1690.5 22.8992 1690.5 22.2207C1690.5 21.5421 1689.84 20.4845 1690.64 20.1053C1692.9 19.6319 1695.21 19.3907 1697.54 19.3869C1701.31 19.1673 1705.31 19.0874 1709.13 18.9278C1714.74 18.7282 1719.9 18.5686 1725.62 18.5885C1730.33 18.5885 1735.05 18.2892 1739.76 18.2293C1745.44 18.1296 1751.21 17.8302 1756.81 17.5707C1763.06 17.2913 1769.39 17.2715 1775.66 17.032C1788.57 16.553 1801.58 16.513 1814.51 16.074C1818.84 15.9542 1823.46 16.4133 1827.91 16.3934C1832.27 16.4411 1836.63 16.2008 1840.94 15.6748C1844.19 15.6748 1844.38 15.4754 1844.59 15.3955C1843.14 14.755 1841.57 14.3297 1839.95 14.1383H1840ZM2247.15 14.1383C2246.06 13.0606 2244.15 12.7412 2241.19 12.3421C2234.12 11.3443 2227.36 10.3465 2219.87 9.76774C2212 9.12913 2204.34 8.84968 2196.31 8.59024C2186.51 8.29089 2176.8 7.69216 2166.98 7.43272C2138.35 6.69433 2109.59 6.69438 2080.89 7.11347C2069.11 7.29308 2057.14 7.61239 2045.25 7.87183C2032.31 8.17118 2019.33 8.17122 2006.47 8.53044H2004.94C1988.45 9.0094 1971.84 9.68787 1955.32 10.3464C1941.68 10.8853 1927.05 10.9451 1914.47 13.0605L1909.76 13.9186C1909.03 13.7191 1908.25 13.4796 1907.4 13.3C1897.18 10.7854 1883.21 11.3044 1872.06 12.5417C1868.86 12.9209 1865.82 13.3798 1862.64 13.8189C1855.76 14.8167 1867.23 16.6527 1870.06 16.8324C1876.6 17.2014 1883.17 17.2014 1889.71 16.8324C1896.45 16.3466 1903.13 15.3921 1909.69 13.9786C1911.81 14.6371 1913.76 15.3356 1916.05 15.9742C1918.18 16.4725 1920.36 16.8525 1922.55 17.1118C1932.87 18.369 1943.38 19.1074 1952.82 21.1031C1955.84 21.667 1958.79 22.4619 1961.64 23.478C1963.31 24.1565 1963.87 25.0346 1965.38 25.753C1968.11 27.0502 1972.45 26.9903 1976.24 27.3496C1979.32 27.5953 1982.41 27.6886 1985.5 27.629C1990.68 27.629 1995.61 28.2675 2000.77 28.3872C2009.11 28.4122 2017.44 28.8654 2025.72 29.7444C2037.26 31.2212 2045.34 35.3722 2057.94 35.7314C2061.01 35.7314 2063.93 36.0905 2067.01 36.1304C2070.1 36.1703 2073.82 36.1304 2077.22 36.1304C2079.57 36.1304 2081.93 36.4697 2084.28 36.5495C2086.64 36.6294 2089 36.5495 2091.35 36.5495C2095.72 36.5893 2100.09 36.2414 2104.38 35.5118C2106.96 34.9659 2109.5 34.2997 2111.99 33.5161C2117.77 31.6284 2123.67 30.0029 2129.66 28.6467C2137.29 27.3459 2145.04 26.6247 2152.82 26.4914C2158.38 26.3318 2163.89 25.8328 2169.52 25.7331C2175.15 25.6333 2180.5 25.3739 2186.15 25.3739C2192.91 25.3739 2199.51 25.753 2206.27 25.7331C2214.14 25.7331 2221.77 25.7331 2229.57 25.3739C2226.58 24.6155 2226.2 23.937 2227.78 23.3782C2229.36 22.8194 2230.58 22.4601 2231.83 21.9413C2234.3 21.0334 2236.83 20.2667 2239.42 19.6463C2241.52 19.1261 2243.51 18.3387 2245.33 17.3113C2246.91 15.9742 2248.23 15.2159 2247.1 14.1383H2247.15ZM2357.14 33.3764C2359.07 33.2566 2360.63 33.0172 2362.68 33.0371C2364.73 33.0571 2366.92 33.0371 2368.97 33.0371C2373.68 32.7178 2378.25 32.7379 2382.92 32.4784C2384.94 32.3387 2386.9 32.4784 2388.9 32.4784C2390.9 32.4784 2392.58 32.1591 2394.53 32.0793C2396.49 31.9994 2398.18 32.0793 2400 32.0793C2402.49 32.0793 2404.52 31.7001 2407.06 31.7001C2413.57 31.7001 2419.86 30.9218 2426.15 30.4628C2426.15 30.4628 2427.18 30.1833 2427.44 29.9039C2427.7 29.6245 2427.33 29.2653 2427.33 29.1456C2427.33 28.3074 2427.54 28.048 2428.36 27.3496C2428.74 27.0302 2428.62 26.8307 2429.07 26.5114C2429.45 26.3321 2429.84 26.172 2430.25 26.0323C2431.14 25.6133 2432.08 25.1343 2433.14 24.6953C2435.22 23.8172 2438.33 23.0189 2437.46 21.6818C2436.58 20.3447 2430.74 19.2271 2427.11 18.6883C2418.82 17.4777 2410.43 16.8105 2402.02 16.6926C2391.87 16.5929 2381.57 16.6926 2371.4 16.6926C2359.97 16.6926 2348.64 16.6927 2337.24 16.9521C2317.02 17.5907 2296.64 17.9699 2276.57 18.9478C2268.21 19.3668 2260.08 19.746 2251.81 20.4445C2246.68 20.8636 2240.64 21.183 2235.86 22.0012C2229.74 23.0589 2237.91 24.3161 2240.83 24.6953C2248.16 25.6532 2255.46 26.0124 2263 26.6909C2271.84 27.3894 2280.48 28.1279 2289.15 28.986C2292.4 29.3253 2295.94 29.2853 2299.21 29.405C2302.49 29.5248 2305.78 29.9639 2309.06 30.2433C2320.18 31.2411 2331.25 32.4185 2342.32 33.4163C2347.24 33.7566 2352.18 33.7432 2357.1 33.3764H2357.14ZM2341.29 38.7647C2339.3 37.4037 2337 36.4112 2334.53 35.8511C2329.88 34.7547 2325.16 33.9082 2320.39 33.3166C2309.39 31.5957 2298.26 30.5552 2287.08 30.2033C2272.5 29.7044 2257.91 29.9239 2243.4 29.3053C2228.89 28.6866 2214.28 28.6666 2199.7 28.6666C2191.88 28.6666 2184.24 28.3473 2176.47 28.2875C2170.79 28.2875 2165.42 28.507 2159.84 28.6666C2156.09 28.7864 2152.53 28.9261 2148.81 29.0258C2145.66 29.107 2142.51 29.347 2139.39 29.7444C2133.84 30.3025 2128.46 31.6875 2123.49 33.8355C2119.98 35.452 2118.77 37.3478 2119.67 39.3834C2120.41 40.6029 2121.28 41.7649 2122.26 42.8558C2122.92 44.0249 2124.09 44.9377 2125.51 45.4103C2129.4 46.8472 2136.21 46.8671 2141.44 46.8671C2151.92 46.8671 2162.48 46.029 2172.91 45.6897C2183.75 45.3105 2194.37 44.652 2205.31 44.6719H2219.44C2223.07 44.6719 2226.96 44.4923 2230.51 44.6719C2241.16 45.4303 2252.42 45.6896 2262.74 46.8471C2266.61 47.2862 2270.73 47.5856 2274.64 47.9448C2274.95 47.9448 2275.35 48.2042 2275.82 48.2441C2276.69 48.2441 2277.94 48.2441 2278.88 48.2441C2279.82 48.2441 2281.47 48.5036 2280.46 48.5835C2290.07 48.4637 2299.31 47.6854 2308.73 46.7873C2318.72 45.9997 2328.63 44.5314 2338.34 42.3968C2342.54 41.4788 2343.46 40.4411 2341.24 38.7647H2341.29ZM2422.57 63.1318C2420.73 62.0451 2418.68 61.2475 2416.51 60.777C2413.14 59.6195 2409.16 58.7813 2405.39 57.7635C2395.97 55.3687 2384.07 54.311 2373.07 53.393C2365.41 52.7743 2358.34 51.7366 2350.85 50.9184C2343.36 50.1001 2334.76 49.8008 2326.87 49.4416C2313.65 48.8628 2299.73 50.4394 2287.08 51.577C2273.49 52.7943 2259.77 53.7921 2246.32 55.2289C2241.61 55.7079 2236.9 56.0073 2232.3 56.6459C2227.71 57.2845 2221.96 57.5838 2217.63 58.4619C2211.48 59.5122 2205.4 60.8446 2199.42 62.4532C2195.43 63.4317 2191.7 65.0214 2188.39 67.1431C2188.01 67.4163 2187.7 67.7516 2187.48 68.1288C2187.26 68.506 2187.13 68.9174 2187.09 69.3383C2187.09 69.937 2188.48 70.6953 2189.12 70.0567C2192.68 70.6262 2196.31 70.8737 2199.93 70.7951C2203.21 70.7951 2206.55 70.7951 2209.78 70.7951C2220.45 71.3739 2231.2 70.7951 2241.94 71.0745C2248.11 71.1943 2254.78 71.6533 2260.79 72.1721C2266.79 72.691 2272.9 72.7509 2278.93 72.8707C2282.18 72.8707 2284.7 73.2698 2288.02 73.2499C2290.61 73.2499 2292.73 73.5293 2295.35 73.649C2296.79 73.649 2298.2 73.649 2299.64 73.649C2301.07 73.649 2302.58 73.9683 2304.23 74.0082C2307.23 74.1482 2310.23 74.1482 2313.23 74.0082C2316.93 73.7687 2320.67 73.5491 2324.37 73.2897C2327.15 73.0901 2329.77 72.6711 2332.64 72.6312C2337.35 72.6312 2341.92 72.7909 2346.54 72.6312C2351.16 72.4716 2355.61 72.1722 2360.18 71.9926C2369.72 71.5935 2379.17 70.875 2388.69 70.4559C2392.16 70.2935 2395.61 69.9603 2399.03 69.458C2402.56 68.9392 2406.1 68.7396 2409.8 68.3605C2412.15 68.121 2414.13 67.7218 2416.35 67.3426C2418.32 67.1266 2420.27 66.732 2422.14 66.1653C2423.93 65.3271 2423.51 64.0299 2422.52 63.1318H2422.57ZM1998.51 53.7522C1998.51 54.0316 1998.51 54.271 1998.39 54.4706C1997.47 54.5305 1997.19 54.2311 1998.34 53.7522H1998.51ZM691.785 95.0625C691.785 94.8629 691.785 94.6235 691.667 94.3441C692.68 94.843 692.374 95.1423 691.62 95.0625H691.785ZM1998.22 54.4706C1997.47 54.4706 1997.19 54.2311 1998.34 53.7522C1998.29 54.0316 1998.27 54.271 1998.22 54.4706ZM691.62 95.0625C691.62 94.8629 691.62 94.6235 691.502 94.3441C692.68 94.843 692.374 95.1423 691.62 95.0625ZM1998.22 54.4706C1997.47 54.4706 1997.19 54.2311 1998.34 53.7522C1998.29 54.0316 1998.27 54.271 1998.22 54.4706ZM691.62 95.0625C691.62 94.8629 691.62 94.6235 691.502 94.3441C692.68 94.843 692.374 95.1423 691.62 95.0625ZM1998.22 54.4706C1997.47 54.4706 1997.19 54.2311 1998.34 53.7522C1998.29 54.0316 1998.27 54.271 1998.22 54.4706ZM691.62 95.0625C691.62 94.8629 691.62 94.6235 691.502 94.3441C692.68 94.843 692.374 95.1423 691.62 95.0625ZM1998.22 54.4706C1997.47 54.4706 1997.19 54.2311 1998.34 53.7522C1998.29 54.0316 1998.27 54.271 1998.22 54.4706ZM691.62 95.0625C691.62 94.8629 691.62 94.6235 691.502 94.3441C692.68 94.843 692.374 95.1423 691.62 95.0625ZM1998.22 54.4706C1997.47 54.4706 1997.19 54.2311 1998.34 53.7522C1998.29 54.0316 1998.27 54.271 1998.22 54.4706ZM691.62 95.0625C691.62 94.8629 691.62 94.6235 691.502 94.3441C692.68 94.843 692.374 95.1423 691.62 95.0625ZM1998.22 54.4706C1997.47 54.4706 1997.19 54.2311 1998.34 53.7522C1998.29 54.0316 1998.27 54.271 1998.22 54.4706ZM691.62 95.0625C691.62 94.8629 691.62 94.6235 691.502 94.3441C692.68 94.843 692.374 95.1423 691.62 95.0625ZM1998.22 54.4706C1997.47 54.4706 1997.19 54.2311 1998.34 53.7522C1998.29 54.0316 1998.27 54.271 1998.22 54.4706ZM691.62 95.0625C691.62 94.8629 691.62 94.6235 691.502 94.3441C692.68 94.843 692.374 95.1423 691.62 95.0625ZM1998.22 54.4706C1997.47 54.4706 1997.19 54.2311 1998.34 53.7522C1998.29 54.0316 1998.27 54.271 1998.22 54.4706ZM691.62 95.0625C691.62 94.8629 691.62 94.6235 691.502 94.3441C692.68 94.843 692.374 95.1423 691.62 95.0625ZM691.62 95.0625C691.62 94.8629 691.62 94.6235 691.502 94.3441C692.68 94.843 692.374 95.1423 691.62 95.0625ZM691.62 95.0625C691.62 94.8629 691.62 94.6235 691.502 94.3441C692.68 94.843 692.374 95.1423 691.62 95.0625ZM691.62 95.0625C691.62 94.8629 691.62 94.6235 691.502 94.3441C692.68 94.843 692.374 95.1423 691.62 95.0625ZM691.62 95.0625C691.62 94.8629 691.62 94.6235 691.502 94.3441C692.68 94.843 692.374 95.1423 691.62 95.0625ZM691.62 95.0625C691.62 94.8629 691.62 94.6235 691.502 94.3441C692.68 94.843 692.374 95.1423 691.62 95.0625ZM691.62 95.0625C691.62 94.8629 691.62 94.6235 691.502 94.3441C692.68 94.843 692.374 95.1423 691.62 95.0625ZM691.62 95.0625C691.62 94.8629 691.62 94.6235 691.502 94.3441C692.68 94.843 692.374 95.1423 691.62 95.0625ZM691.62 95.0625C691.62 94.8629 691.62 94.6235 691.502 94.3441C692.68 94.843 692.374 95.1423 691.62 95.0625ZM691.62 95.0625C691.62 94.8629 691.62 94.6235 691.502 94.3441C692.68 94.843 692.374 95.1423 691.62 95.0625ZM691.62 95.0625C691.62 94.8629 691.62 94.6235 691.502 94.3441C692.68 94.843 692.374 95.1423 691.62 95.0625ZM691.62 95.0625C691.62 94.8629 691.62 94.6235 691.502 94.3441C692.68 94.843 692.374 95.1423 691.62 95.0625ZM691.62 95.0625C691.62 94.8629 691.62 94.6235 691.502 94.3441C692.68 94.843 692.374 95.1423 691.62 95.0625ZM691.62 95.0625C691.62 94.8629 691.62 94.6235 691.502 94.3441C692.68 94.843 692.374 95.1423 691.62 95.0625ZM691.62 95.0625C691.62 94.8629 691.62 94.6235 691.502 94.3441C692.68 94.843 692.374 95.1423 691.62 95.0625ZM691.62 95.0625C691.62 94.8629 691.62 94.6235 691.502 94.3441C692.68 94.843 692.374 95.1423 691.62 95.0625ZM691.62 95.0625C691.62 94.8629 691.62 94.6235 691.502 94.3441C692.68 94.843 692.374 95.1423 691.62 95.0625ZM691.62 95.0625C691.62 94.8629 691.62 94.6235 691.502 94.3441C692.68 94.843 692.374 95.1423 691.62 95.0625ZM691.62 95.0625C691.62 94.8629 691.62 94.6235 691.502 94.3441C692.68 94.843 692.374 95.1423 691.62 95.0625ZM691.62 95.0625C691.62 94.8629 691.62 94.6235 691.502 94.3441C692.68 94.843 692.374 95.1423 691.62 95.0625ZM691.62 95.0625C691.62 94.8629 691.62 94.6235 691.502 94.3441C692.68 94.843 692.374 95.1423 691.62 95.0625ZM691.62 95.0625C691.62 94.8629 691.62 94.6235 691.502 94.3441C692.68 94.843 692.374 95.1423 691.62 95.0625ZM691.62 95.0625C691.62 94.8629 691.62 94.6235 691.502 94.3441C692.68 94.843 692.374 95.1423 691.62 95.0625ZM691.62 95.0625C691.62 94.8629 691.62 94.6235 691.502 94.3441C692.68 94.843 692.374 95.1423 691.62 95.0625ZM691.62 95.0625C691.62 94.8629 691.62 94.6235 691.502 94.3441C692.68 94.843 692.374 95.1423 691.62 95.0625ZM691.62 95.0625C691.62 94.8629 691.62 94.6235 691.502 94.3441C692.68 94.843 692.374 95.1423 691.62 95.0625ZM691.62 95.0625C691.62 94.8629 691.62 94.6235 691.502 94.3441C692.68 94.843 692.374 95.1423 691.62 95.0625ZM691.62 95.0625C691.62 94.8629 691.62 94.6235 691.502 94.3441C692.68 94.843 692.374 95.1423 691.62 95.0625ZM691.62 95.0625C691.62 94.8629 691.62 94.6235 691.502 94.3441C692.68 94.843 692.374 95.1423 691.62 95.0625ZM691.62 95.0625C691.62 94.8629 691.62 94.6235 691.502 94.3441C692.68 94.843 692.374 95.1423 691.62 95.0625ZM691.62 95.0625C691.62 94.8629 691.62 94.6235 691.502 94.3441C692.68 94.843 692.374 95.1423 691.62 95.0625ZM691.62 95.0625C691.62 94.8629 691.62 94.6235 691.502 94.3441C692.68 94.843 692.374 95.1423 691.62 95.0625ZM691.62 95.0625C691.62 94.8629 691.62 94.6235 691.502 94.3441C692.68 94.843 692.374 95.1423 691.62 95.0625ZM691.62 95.0625C691.62 94.8629 691.62 94.6235 691.502 94.3441C692.68 94.843 692.374 95.1423 691.62 95.0625ZM691.62 95.0625C691.62 94.8629 691.62 94.6235 691.502 94.3441C692.68 94.843 692.374 95.1423 691.62 95.0625ZM691.62 95.0625C691.62 94.8629 691.62 94.6235 691.502 94.3441C692.68 94.843 692.374 95.1423 691.62 95.0625ZM691.62 95.0625C691.62 94.8629 691.62 94.6235 691.502 94.3441C692.68 94.843 692.374 95.1423 691.62 95.0625ZM691.62 95.0625C691.62 94.8629 691.62 94.6235 691.502 94.3441C692.68 94.843 692.374 95.1423 691.62 95.0625ZM691.62 95.0625C691.62 94.8629 691.62 94.6235 691.502 94.3441C692.68 94.843 692.374 95.1423 691.62 95.0625ZM691.62 95.0625C691.62 94.8629 691.62 94.6235 691.502 94.3441C692.68 94.843 692.374 95.1423 691.62 95.0625ZM691.62 95.0625C691.62 94.8629 691.62 94.6235 691.502 94.3441C692.68 94.843 692.374 95.1423 691.62 95.0625ZM691.62 95.0625C691.62 94.8629 691.62 94.6235 691.502 94.3441C692.68 94.843 692.374 95.1423 691.62 95.0625ZM691.62 95.0625C691.62 94.8629 691.62 94.6235 691.502 94.3441C692.68 94.843 692.374 95.1423 691.62 95.0625ZM691.62 95.0625C691.62 94.8629 691.62 94.6235 691.502 94.3441C692.68 94.843 692.374 95.1423 691.62 95.0625ZM691.62 95.0625C691.62 94.8629 691.62 94.6235 691.502 94.3441C692.68 94.843 692.374 95.1423 691.62 95.0625ZM691.62 95.0625C691.62 94.8629 691.62 94.6235 691.502 94.3441C692.68 94.843 692.374 95.1423 691.62 95.0625ZM691.62 95.0625C691.62 94.8629 691.62 94.6235 691.502 94.3441C692.68 94.843 692.374 95.1423 691.62 95.0625ZM691.62 95.0625C691.62 94.8629 691.62 94.6235 691.502 94.3441C692.68 94.843 692.374 95.1423 691.62 95.0625ZM691.62 95.0625C691.62 94.8629 691.62 94.6235 691.502 94.3441C692.68 94.843 692.374 95.1423 691.62 95.0625ZM691.62 95.0625C691.62 94.8629 691.62 94.6235 691.502 94.3441C692.68 94.843 692.374 95.1423 691.62 95.0625ZM691.62 95.0625C691.62 94.8629 691.62 94.6235 691.502 94.3441C692.68 94.843 692.374 95.1423 691.62 95.0625ZM691.62 95.0625C691.62 94.8629 691.62 94.6235 691.502 94.3441C692.68 94.843 692.374 95.1423 691.62 95.0625ZM691.62 95.0625C691.62 94.8629 691.62 94.6235 691.502 94.3441C692.68 94.843 692.374 95.1423 691.62 95.0625ZM691.62 95.0625C691.62 94.8629 691.62 94.6235 691.502 94.3441C692.68 94.843 692.374 95.1423 691.62 95.0625ZM691.62 95.0625C691.62 94.8629 691.62 94.6235 691.502 94.3441C692.68 94.843 692.374 95.1423 691.62 95.0625Z" fill="url(#paint0_linear_5072_132346)" style="mix-blend-mode:screen"/>
</g>
<defs>
<linearGradient id="paint0_linear_5072_132346" x1="1250.08" y1="0.0487768" x2="1250.08" y2="163.314" gradientUnits="userSpaceOnUse">
<stop/>
<stop offset="1" stop-color="#11868D"/>
</linearGradient>
</defs>
</svg>
