<svg width="385" height="292" viewBox="0 0 385 292" fill="none" xmlns="http://www.w3.org/2000/svg">
<g clip-path="url(#clip0_5072_132217)">
<path d="M0.109619 186.183C0.109619 186.183 4.91498 186.711 7.36723 186.183C7.36723 187.422 18.1146 186.183 22.766 186.183C27.4174 186.183 27.4817 186.474 31.7455 185.374C36.0093 184.274 44.8834 185.374 51.6394 185.374H67.7938H75.5462C77.2905 185.374 86.3995 186.474 96.2837 186.474C104.191 186.474 174.831 184.893 203.359 185.374C215.926 185.374 201.009 170.433 201.655 169.734C209.347 161.419 195.109 144.776 195.109 134.944C195.109 125.111 184.746 130.682 187.171 124.597C189.597 118.512 180.603 118.632 177.901 114.493C175.198 110.355 169.193 114.493 161.987 114.493C154.78 114.493 158.384 117.171 151.327 117.171C144.271 117.171 143.671 123.867 140.368 124.597C137.065 125.327 138.866 136.161 133.311 136.283C128.868 136.38 126.756 138.596 126.255 139.691C125.354 140.909 123.193 142.467 121.751 138.961C119.95 134.579 113.644 134.944 110.191 134.944C106.738 134.944 106.438 133.24 106.438 127.884C106.438 122.527 93.3762 117.899 93.8266 114.493C94.277 111.088 86.7704 108.893 85.1189 106.094C83.4675 103.295 77.0118 106.944 72.2075 104.022C67.4033 101.101 60.1969 107.676 51.6394 108.893C43.0818 110.111 50.5884 112.542 44.8834 112.542C39.1784 112.542 38.728 115.586 35.5752 117.899C32.4224 120.212 38.728 124.108 33.6235 130.682C28.519 137.255 30.4707 137.375 25.8166 137.984C21.1625 138.592 22.2134 145.041 20.8622 145.041C19.511 145.041 18.0097 154.047 15.3073 160.742C12.6049 167.437 13.0553 176.931 10.8033 176.81C6.41468 176.572 4.62065 179.945 3.76994 180.797C2.6189 180.837 0.109297 181.766 0.109619 186.183Z" fill="url(#paint0_linear_5072_132217)" fill-opacity="0.5"/>
<path fill-rule="evenodd" clip-rule="evenodd" d="M359.328 5.19208C361.552 4.63827 395.203 1.49994 411.751 0V106.505C411.751 106.599 411.751 106.691 411.749 106.783C420.708 105.222 431.671 105.626 437.052 106.164L433.863 246.685L443.399 284.637L421.644 340L269.641 330.362H174.057C159.923 322.532 130.792 306.372 127.343 304.367C123.893 302.363 117.281 290.379 114.406 284.637C111.172 277.956 104.13 263.779 101.83 260.522C99.53 257.265 95.1219 251.44 93.2053 248.934C93.9239 248.099 96.0079 246.366 98.5951 246.115C98.7142 246.104 98.8358 246.092 98.9599 246.081C102.203 245.773 107.138 245.304 114.406 240.478C118.704 237.624 136.644 237.513 150.825 237.426C161.539 237.36 170.108 237.307 169.026 236.094C168.052 235.003 168.262 232.366 168.532 228.98C168.959 223.614 169.537 216.365 165.79 210.413C160.902 202.646 160.401 190.056 160.761 184.732C158.844 181.391 154.365 173.895 151.777 170.638C148.543 166.567 168.666 162.182 176.572 160.93C181.663 160.123 188.036 157.057 193.752 154.307C196.911 152.788 199.869 151.365 202.299 150.473C205.439 149.32 213.413 148.567 221.559 147.797H221.559L221.56 147.797L221.56 147.797H221.561C226.947 147.288 232.409 146.772 236.598 146.129C231.697 141.608 230.761 133.698 230.114 128.223C229.802 125.585 229.556 123.512 228.967 122.655C228.254 121.621 227.513 120.801 226.812 120.025C225.417 118.481 224.181 117.114 223.653 114.583L223.625 114.45C222.85 110.732 222.421 108.675 218.894 105.942C215.326 103.177 215.722 95.9193 218.894 94.1912C220.908 93.0945 234.38 89.5771 244.885 86.9507L240.616 86.1313C239.227 83.9835 236.001 79.4579 234.213 78.5379C232.425 77.6179 229.72 74.8146 228.591 73.5279C228.199 72.8485 227.265 71.4058 226.657 71.0702C225.898 70.6507 222.974 68.0209 222.529 67.025C222.085 66.0291 223.471 66.2701 223.733 66.7838C223.994 67.2974 227.479 70.2438 227.303 69.6058C227.162 69.0954 227.511 67.9124 227.703 67.3847C226.68 67.124 224.543 66.4386 224.174 65.7819C223.714 64.9609 224.919 65.129 225.179 65.3696C225.387 65.5622 227.151 66.0125 228.007 66.2137C228.203 65.9524 228.653 65.1897 228.881 64.229C228.892 64.1825 228.903 64.1364 228.914 64.0907C229.182 62.9563 229.389 62.0833 230.556 62.2263C231.77 62.375 231.165 64.7857 229.673 67.3388C228.474 69.3931 228.792 70.0613 229.508 71.5628C229.682 71.9275 229.879 72.3413 230.084 72.8361C230.596 74.075 231.618 74.688 232.901 75.4574C234.24 76.2603 235.863 77.2337 237.487 79.2668C240.668 83.2481 243.591 84.2894 242.993 83.5721C242.515 82.9983 242.978 80.639 243.269 79.5312C239.004 77.9947 235.779 74.1546 235.376 72.8577C235.112 72.0081 235.434 71.7259 235.892 71.3254C236.133 71.1145 236.412 70.8707 236.662 70.4941C237.139 69.7757 236.879 68.574 236.642 67.4722C236.518 66.8993 236.4 66.3535 236.394 65.9166C236.385 65.1261 235.73 63.4933 235.191 62.1479C234.859 61.32 234.571 60.6009 234.503 60.2539C234.326 59.343 234.603 58.2296 235.927 59.4434C237.25 60.6572 238.708 67.2343 238.832 69.3718C238.895 70.443 238.698 70.8172 238.486 71.2208C238.274 71.6225 238.048 72.0534 238.046 73.2297C238.043 75.1163 242.057 77.0143 244.064 77.7275L245.884 73.6C246.448 72.3205 246.386 70.8641 246.336 69.6687C246.305 68.9455 246.279 68.3179 246.397 67.8826C246.711 66.7275 247.197 64.9644 247.846 63.0496C248.281 61.7667 247.878 60.0048 247.613 58.8488C247.482 58.2795 247.386 57.8571 247.439 57.7111C247.536 57.447 246.681 56.5064 245.915 55.6637C245.398 55.0949 244.922 54.5707 244.806 54.3291C244.518 53.7295 244.491 52.2437 245.169 52.0329C245.846 51.8222 246.048 53.4269 246.052 54.0813C246.056 54.7357 248.09 56.0145 248.159 55.3412C248.215 54.8026 248.286 53.0147 248.315 52.188C247.84 50.32 246.824 46.4659 246.565 45.9938L246.545 45.958C246.212 45.354 245.532 44.1182 245.793 42.5878C246.059 41.0266 246.959 41.2682 247.119 41.9371C247.171 42.1546 247.17 42.4913 247.169 42.8764C247.168 43.6759 247.166 44.6836 247.633 45.2636C248.188 45.9511 248.794 48.794 249.028 50.1295C249.476 48.8915 250.436 46.2572 250.689 45.6241C250.942 44.9909 250.901 43.6459 250.849 43.0525C250.704 42.2767 250.703 40.7306 251.863 40.7527C252.863 40.7717 252.808 41.9223 252.742 43.2875C252.712 43.899 252.681 44.5536 252.741 45.1688C252.864 46.4271 251.92 48.3683 251.215 49.8167C250.806 50.6577 250.477 51.3326 250.485 51.6113C250.508 52.3701 250.094 55.3711 249.757 57.2421C249.486 58.7388 249.523 60.1543 249.575 60.6749C249.958 60.4185 250.835 59.7754 251.272 59.2551C251.819 58.6047 252.853 56.5546 252.915 56.1927C252.977 55.8309 253.635 55.5158 254.364 56.2203C255.092 56.9248 252.317 60.7157 251.092 61.286C250.501 61.5606 250.456 62.0638 250.395 62.7489C250.328 63.4864 250.243 64.4349 249.439 65.5362C248.197 67.2356 248.765 71.4383 249.205 73.3272C251.658 72.7074 256.635 71.4254 256.912 71.2556C257.257 71.0434 258.676 69.8208 259.199 68.9214C259.721 68.0219 260.579 68.0723 261.301 68.5037C261.987 68.913 259.993 70.7739 259.1 71.6068C259.052 71.6516 259.007 71.6934 258.966 71.7319C258.497 72.1716 256.22 72.9596 254.025 73.7195C252.458 74.2618 250.933 74.7899 250.136 75.1665C248.605 75.8901 247.142 80.8126 246.602 83.1834C246.747 82.6896 247.382 81.7071 248.758 81.7273C250.478 81.7526 252.738 80.4004 253.189 80.1293C253.641 79.8582 254.992 77.7127 255.088 77.494C255.185 77.2753 255.936 77.1598 255.98 77.5205C256.015 77.809 255.147 78.9546 254.709 79.4913C255.627 79.3667 257.699 79.0792 258.642 78.9256C259.312 78.8166 260.602 77.8106 261.699 76.8824C261.182 76.4829 260.891 76.1792 260.934 76.0492C261.142 75.4285 262.129 74.8116 262.391 75.2454C262.469 75.3756 262.655 75.5964 262.893 75.8505C263.177 75.6026 263.396 75.4141 263.514 75.3278C264.102 74.8974 265.469 73.1501 265.691 72.6465C265.913 72.1428 267.069 72.6826 267.382 73.3276C267.533 73.638 265.9 75.1703 263.786 76.7304C264.137 77.0501 264.473 77.3248 264.691 77.4463C264.831 77.5247 265.12 77.7202 265.494 77.9728C266.447 78.6171 267.949 79.6329 268.935 80.0253C269.963 79.6967 270.997 79.3627 272.03 79.0258C271.894 78.8484 271.805 78.701 271.804 78.6187C271.801 78.2859 272.498 78.3091 272.611 78.4974C272.634 78.5342 272.708 78.6326 272.817 78.7685C274.614 78.1792 276.4 77.5828 278.126 76.9917C277.685 76.4019 277.245 75.9762 276.837 75.8409C276.068 75.5852 274.617 75.2714 273.128 74.949C271.041 74.4974 268.876 74.0291 268.397 73.6804L268.261 73.5812C267.35 72.9211 265.314 71.4463 265.888 70.9994C266.493 70.5284 267.268 70.389 267.85 71.1499C268.433 71.9109 269.87 72.8678 270.209 73.0232C270.48 73.1475 275.159 73.7707 277.465 74.0667C277.639 72.301 277.654 68.4173 276.322 67.0072C275.459 66.0935 275.268 65.2403 275.12 64.5768C274.982 63.9605 274.881 63.5079 274.312 63.3225C273.129 62.9375 270.153 59.7928 270.731 59.0727C271.31 58.3526 271.946 58.5673 272.046 58.8896C272.146 59.2119 273.33 60.9635 273.905 61.4954C274.364 61.9209 275.239 62.41 275.618 62.6014C275.603 62.1223 275.467 60.8312 275.043 59.4995C274.513 57.8349 273.778 55.151 273.708 54.4585C273.683 54.2042 273.303 53.6263 272.831 52.9062L272.831 52.9061C272.017 51.6657 270.926 50.0035 270.888 48.8459C270.87 48.2798 270.763 47.688 270.663 47.1351C270.44 45.9008 270.252 44.8606 271.16 44.7341C272.212 44.5877 272.396 45.9937 272.357 46.715C272.38 47.2603 272.503 48.488 272.808 49.0361C273.114 49.5843 274.301 51.8752 274.857 52.9521C274.91 51.7121 275.122 49.0607 275.544 48.3751C275.9 47.7967 275.778 46.8805 275.681 46.1536L275.681 46.1535C275.635 45.8035 275.594 45.4973 275.615 45.294C275.681 44.6683 276.47 44.3504 276.899 45.7411C277.319 47.1043 276.847 48.3022 276.617 48.8878L276.603 48.9226C276.424 49.3802 275.96 52.9957 275.751 54.7463C275.875 55.4949 276.154 57.113 276.269 57.5967C276.412 58.2014 278.109 56.8167 278.035 56.2212C277.96 55.6257 277.952 54.1444 278.593 54.2622C279.235 54.38 279.387 55.7341 279.197 56.3107C279.121 56.543 278.75 57.0715 278.348 57.6451L278.348 57.6453C277.752 58.4952 277.087 59.4438 277.206 59.6733C277.272 59.8002 277.235 60.1949 277.184 60.7268C277.081 61.807 276.925 63.4532 277.473 64.5724C278.292 66.2428 278.944 67.7932 279.368 68.8093C279.527 69.1923 279.578 69.7659 279.637 70.4267V70.4269C279.733 71.5195 279.851 72.8506 280.517 73.9527L281.617 75.7738C282.389 75.4988 283.14 75.227 283.865 74.9596C284.875 74.587 286.046 74.2055 287.348 73.819C287.547 73.4579 287.645 73.1008 287.6 72.7612C287.458 71.6917 287.201 71.3246 286.961 70.9823C286.72 70.6384 286.496 70.3196 286.425 69.3387C286.283 67.3814 286.823 61.2414 287.882 59.9933C288.941 58.7451 289.326 59.7273 289.274 60.575C289.254 60.898 289.077 61.5833 288.874 62.3724L288.874 62.3726C288.544 63.6548 288.144 65.2109 288.229 65.9308C288.277 66.3287 288.234 66.8379 288.19 67.3723V67.3724V67.3725C288.105 68.4003 288.013 69.5213 288.532 70.1226C288.805 70.4379 289.087 70.6291 289.332 70.7946C289.796 71.109 290.123 71.3304 289.984 72.1318C289.94 72.385 289.799 72.7505 289.571 73.1874C291.148 72.7569 292.864 72.3227 294.677 71.8895C294.721 71.7765 294.761 71.6586 294.794 71.5351C294.921 71.0628 295.051 70.665 295.165 70.3144C295.637 68.8709 295.847 68.2285 294.511 66.4913C292.85 64.3321 292.012 62.2059 293.098 61.9383C294.143 61.681 294.434 62.4523 294.814 63.4547L294.86 63.5769C295.183 64.4256 295.683 65.0701 295.892 65.2863C296.647 65.0101 298.197 64.4082 298.363 64.2104C298.57 63.9633 299.647 63.679 299.326 64.4758C299.069 65.1132 297.207 65.9696 296.308 66.3181C296.546 66.777 297.004 67.8148 296.937 68.2943C296.854 68.8937 299.671 65.8343 299.847 65.3387C300.023 64.8431 301.256 64.4728 300.97 65.4269C300.685 66.381 298.34 69.0913 297.699 69.5556C297.3 69.8444 296.802 70.7633 296.471 71.4683C301.99 70.1947 308.24 68.9438 314.184 67.8398C313.442 66.8089 312.736 65.8798 312.067 65.0739C309.155 62.0741 303.012 55.5897 301.741 53.6514C300.47 51.713 299.094 44.0749 298.564 40.4981L291.415 26.6526L295.387 22.8451C297.902 21.6913 303.568 18.9684 306.11 17.3069C308.038 16.0465 312.307 15.551 317.318 14.9693C320.564 14.5926 324.121 14.1797 327.556 13.4994C334.066 12.2098 346.971 8.61399 354.277 6.57846C356.775 5.88222 358.619 5.36852 359.328 5.19208ZM262.636 77.5476C260.612 78.931 258.384 80.1664 256.908 80.3767C255.177 80.6231 254.097 81.0926 253.097 81.5271C252.133 81.9462 251.243 82.3327 249.919 82.4544C248.231 82.6093 247.728 84.6243 247.665 86.259C249.336 85.8453 250.884 85.466 252.238 85.1371C255.623 84.1538 261.544 82.3771 267.868 80.3659C266.012 79.5843 264.01 78.4615 262.636 77.5476Z" fill="url(#paint1_linear_5072_132217)"/>
<path d="M397.168 252.623C393.841 257.523 400.283 266.312 403.92 270.094L388.77 281.005C381.837 278.307 366.712 273.228 361.672 274.5C356.633 275.772 346.037 274.064 341.369 273.051C339.26 272.099 334.601 270.289 332.84 270.662C330.639 271.129 320.029 270.313 317.161 268.655C314.293 266.998 317.206 264.797 318.741 265.586C320.276 266.376 332.525 266.866 330.877 265.582C329.559 264.556 327.673 260.803 326.895 259.055C324.572 260.465 319.42 263.05 317.398 262.111C314.87 260.937 317.316 258.916 318.273 259.007C319.038 259.08 323.047 256.65 324.956 255.426C324.746 254.354 323.921 251.478 322.295 248.541C320.263 244.871 318.564 242.071 320.984 239.983C323.404 237.896 327.428 245.328 330.217 254.929C333.005 264.529 335.355 263.852 342.503 268.234C349.651 272.616 354.986 265.945 368.888 269.714C382.789 273.483 390.054 270.215 387.506 269.586C385.468 269.083 381.304 262.073 379.476 258.631C368.841 263.356 355.161 260.038 351.731 257.523C348.301 255.008 350.026 253.112 348.985 248.828C347.944 244.544 341.6 240.85 338.883 237.598C336.167 234.346 325.904 228.863 323.679 226.88C321.453 224.898 319.591 221.47 324.443 221.899C329.295 222.329 345.672 236.28 350.388 241.525C355.104 246.77 352.187 246.976 357.146 253.049C361.113 257.907 372.074 254.623 377.058 252.374L371.525 238.056C368.772 230.933 362.265 225.915 360.378 222.305C358.491 218.695 355.621 213.173 352.716 206.927C349.811 200.681 341.419 195.491 340.77 194.023C340.12 192.555 330.842 191.637 329.08 190.681C327.318 189.724 324.143 185.957 324.875 184.037C325.606 182.117 329.335 185.834 330.72 187.509C332.104 189.185 338.326 188.336 337.029 186.463C335.991 184.964 332.351 180.22 330.661 178.035C325.903 174.197 316.025 166.35 314.581 165.664C312.776 164.806 308.897 163.03 306.071 158.473C303.246 153.916 305.316 152.706 307.002 154.102C308.687 155.497 311.887 160.81 314.898 161.611C317.307 162.252 324.345 168.331 327.563 171.29C325.734 167.194 321.853 158.465 320.959 156.322C320.065 154.178 317.162 150.803 315.821 149.383C313.936 147.683 310.68 143.707 312.738 141.405C315.31 138.528 319.035 146.258 323.56 150.977C328.086 155.696 331.575 170.231 333.212 172.136C334.849 174.042 340.449 182.603 343.803 188.102C346.485 192.502 349.529 196.069 350.715 197.302C350.841 195.862 351.008 192.424 350.671 190.196C350.25 187.412 347.727 180.036 347.072 178.979C346.418 177.922 346.898 175.771 349.645 176.102C352.392 176.432 355.559 191.828 354.633 195.788C353.708 199.748 358.934 201.462 360.714 210.083C362.138 216.98 371.973 226.634 376.712 230.599C379.665 224.013 385.6 210.59 385.722 209.592C385.874 208.343 385.763 202.311 384.775 198.935C383.788 195.559 385.383 193.942 387.544 193.583C389.705 193.223 390.098 203.063 390.29 206.637C390.481 210.211 383.616 227.217 382.2 233.436C381.068 238.41 388.894 254.049 392.948 261.246C392.161 259.68 391.194 255.861 393.624 253.113C396.661 249.68 397.735 241.604 397.947 239.988C398.159 238.373 395.987 230.106 395.693 229.347C395.4 228.588 396.46 226.763 397.296 227.602C397.964 228.273 398.871 232.984 399.241 235.255C400.571 233.068 403.56 228.114 404.874 225.799C406.517 222.905 405.637 208.938 405.751 206.635C405.865 204.332 404.559 197.055 403.883 195.308C403.208 193.561 406.35 192.598 408.251 193.62C410.152 194.642 409.798 224.9 404.919 233.061C400.041 241.221 401.327 246.497 397.168 252.623Z" fill="url(#paint2_linear_5072_132217)" stroke="#2F6193"/>
<path d="M377.447 219.716C381.257 220.01 383.096 226.796 383.539 230.151L395.138 226.904C396.567 222.322 400.093 212.652 402.763 210.623C405.432 208.593 408.835 202.564 410.203 199.803C410.572 198.356 411.534 195.279 412.431 194.541C413.553 193.619 417.411 187.941 417.73 185.828C418.048 183.714 415.766 184.297 415.546 185.389C415.327 186.481 410.644 192.854 410.66 191.507C410.673 190.429 409.54 187.968 408.972 186.872C410.617 186.268 413.994 184.711 414.334 183.313C414.76 181.566 412.757 181.986 412.417 182.505C412.146 182.92 409.307 183.964 407.922 184.433C407.466 183.897 406.348 182.323 405.522 180.321C404.489 177.82 403.761 175.836 401.734 176.216C399.708 176.596 401.836 181.616 405.554 186.886C409.273 192.156 407.985 193.068 407.318 198.436C406.651 203.803 401.14 203.808 397.446 212.335C393.752 220.861 389.18 223.208 389.889 221.671C390.455 220.441 388.597 215.52 387.596 213.213C394.259 209.753 398.092 201.52 398.204 198.778C398.316 196.036 396.666 196.143 394.925 193.894C393.184 191.645 393.874 186.96 393.328 184.281C392.781 181.603 394.147 174.222 394.043 172.302C393.939 170.382 392.96 168.063 391.224 170.682C389.488 173.301 389.931 187.174 390.678 191.663C391.425 196.151 392.702 194.763 393.768 199.708C394.622 203.663 388.555 207.868 385.415 209.476L380.422 200.924C377.939 196.669 378.028 191.369 376.967 188.964C375.906 186.56 374.276 182.89 372.296 178.912C370.316 174.934 371.077 168.614 370.598 167.696C370.119 166.777 373.39 161.73 373.617 160.456C373.844 159.183 373.222 156.066 371.959 155.662C370.697 155.258 371.07 158.634 371.358 160.007C371.646 161.379 368.714 164.175 368.291 162.767C367.953 161.641 367.026 157.896 366.605 156.164C366.584 152.22 366.603 144.082 366.838 143.078C367.132 141.822 367.798 139.152 366.637 135.893C365.477 132.634 364.033 133.192 364.059 134.603C364.084 136.014 365.475 139.766 364.667 141.607C364.021 143.08 364.254 149.074 364.451 151.888C363.121 149.317 360.282 143.847 359.561 142.534C358.84 141.221 358.307 138.398 358.13 137.151C358.032 135.516 357.337 132.274 355.348 132.386C352.862 132.525 355.261 137.514 355.819 141.695C356.377 145.876 362.302 153.484 362.604 155.077C362.906 156.669 364.968 162.938 366.392 166.842C367.53 169.965 368.104 172.935 368.249 174.03C367.472 173.514 365.671 172.214 364.684 171.148C363.449 169.815 360.745 165.574 360.476 164.819C360.206 164.064 358.929 163.44 357.99 164.958C357.051 166.476 363.539 174.269 365.908 175.396C368.277 176.523 367.038 179.848 370.669 184.215C373.573 187.709 374.483 196.553 374.575 200.538C370.066 199.376 360.909 196.967 360.357 196.627C359.666 196.201 356.669 193.717 355.364 191.861C354.059 190.004 352.602 190.158 351.551 191.103C350.501 192.048 355.304 196.206 357.029 197.741C358.753 199.275 370.091 202.658 373.796 204.447C376.76 205.878 381.496 216.118 383.493 221.058C383.02 220.031 381.484 218.007 379.121 218.126C376.167 218.276 371.663 215.567 370.763 215.024C369.863 214.481 366.569 210.058 366.305 209.605C366.04 209.152 364.693 208.952 364.78 209.71C364.849 210.317 366.859 212.671 367.856 213.771C366.217 213.562 362.517 213.075 360.821 212.806C358.701 212.47 352.012 206.405 350.805 205.535C349.598 204.666 346.455 201.079 345.846 200.035C345.236 198.992 343.486 200.188 343.237 201.558C342.987 202.928 358.386 214.927 364.464 215.751C370.542 216.576 372.685 219.347 377.447 219.716Z" fill="url(#paint3_linear_5072_132217)" stroke="#2F6193"/>
<path d="M198.176 197.357C213.747 180.605 230.955 188.038 237.612 193.849C231.133 188.272 223.318 189.021 220.22 190.093C219.332 190.341 225.17 202.529 225.395 204.952C225.574 206.891 222.738 211.305 221.298 213.27L223.922 216.421C221.78 218.996 217.322 224.161 216.634 224.219C215.947 224.278 214.737 222.924 214.219 222.24L212.352 227.364C210.332 227.259 205.429 221.935 203.231 219.285L202.608 220.356C199.306 220.155 197.717 212.159 195.884 210.71C194.052 209.262 193.851 202.456 193.725 201.523C193.599 200.59 192.669 199.38 193.181 198.627C193.591 198.025 196.682 197.53 198.176 197.357Z" fill="#ABC475" stroke="black" stroke-width="0.894899"/>
<path d="M215.305 193.666C216.93 190.648 219.458 190.004 220.519 190.059C220.302 191.514 219.509 195.121 218.079 197.916C216.292 201.409 217.574 213.013 216.229 214.338C215.153 215.398 214.521 219.95 214.339 222.094L212.493 226.817C206.56 217.145 213.273 197.438 215.305 193.666Z" fill="black" stroke="black" stroke-width="0.894899"/>
<path d="M207.828 198.907C210 192.582 214.469 188.576 216.431 187.364C210.847 188.225 208.31 191.598 206.246 193.876C204.595 195.698 198.936 205.993 196.263 211.009C196.86 211.899 197.193 212.697 198.019 214.493C199.837 218.446 201.754 220.286 202.677 220.578L203.319 219.475C203.916 215.255 205.655 205.233 207.828 198.907Z" fill="black" stroke="black" stroke-width="0.894899"/>
</g>
<defs>
<linearGradient id="paint0_linear_5072_132217" x1="107.246" y1="99.8255" x2="107.246" y2="186.734" gradientUnits="userSpaceOnUse">
<stop stop-color="#3A61D2"/>
<stop offset="0.81" stop-color="#347ED3"/>
</linearGradient>
<linearGradient id="paint1_linear_5072_132217" x1="273.322" y1="-14.0794" x2="273.322" y2="340" gradientUnits="userSpaceOnUse">
<stop stop-color="#3A61D2"/>
<stop offset="0.76" stop-color="#347ED3"/>
<stop offset="1" stop-color="#347ED3" stop-opacity="0"/>
</linearGradient>
<linearGradient id="paint2_linear_5072_132217" x1="325.712" y1="136.141" x2="368.605" y2="247.128" gradientUnits="userSpaceOnUse">
<stop stop-color="#2177A1"/>
<stop offset="0.556317" stop-color="#2177A1"/>
<stop offset="1" stop-color="#4AA1F7"/>
</linearGradient>
<linearGradient id="paint3_linear_5072_132217" x1="347.473" y1="136.809" x2="386.172" y2="203.103" gradientUnits="userSpaceOnUse">
<stop stop-color="#2177A1"/>
<stop offset="0.556317" stop-color="#2177A1"/>
<stop offset="1" stop-color="#4AA1F7"/>
</linearGradient>
<clipPath id="clip0_5072_132217">
<rect width="385" height="292" fill="white"/>
</clipPath>
</defs>
</svg>
