<svg width="237" height="212" viewBox="0 0 237 212" fill="none" xmlns="http://www.w3.org/2000/svg">
<g opacity="0.5">
<g style="mix-blend-mode:luminosity">
<path d="M107.207 109.462C110.941 110.126 118.021 104.792 121.009 103.195C122.527 102.236 128.05 98.2726 128.84 97.7737C129.629 97.2748 131.217 97.4342 131.913 97.5762L129.065 92.0348C128.85 92.7284 128.359 94.4142 128.126 95.6085C127.833 97.1014 126.024 97.6075 121.002 98.855C119.454 99.2396 112.446 100.684 109.734 101.453C107.022 102.222 102.181 107.259 102.094 108.041C102.006 108.823 102.54 108.632 107.207 109.462Z" fill="#9A716B"/>
</g>
<g style="mix-blend-mode:luminosity">
<path d="M103.448 42.4447C102.578 42.4205 103.589 41.5086 104.203 41.0556C106.787 39.1231 111.037 38.1366 112.839 37.885V39.7874C112.144 38.7909 109.125 40.3913 108.46 41.0556C107.796 41.7199 104.535 42.4749 103.448 42.4447Z" fill="#9A716B"/>
</g>
<g style="mix-blend-mode:luminosity">
<path d="M148.055 82.678C145.347 81.5463 147.279 80.1372 147.279 80.1372C154.815 73.2602 162.58 71.9842 168.81 70.5676C172.581 69.7103 181.512 71.5149 184.195 70.7385C185.915 70.2406 188.657 68.258 190.501 66.7759C190.856 66.313 191.248 65.9693 191.676 65.7979C191.359 66.0732 190.958 66.4092 190.501 66.7759C188.985 68.7524 188.132 72.9035 187.865 75.1147C187.371 73.5619 184.526 73.4603 182.056 73.8132C179.586 74.1661 163.341 80.1709 159.882 81.3002C157.116 82.2036 150.763 83.8098 148.055 82.678Z" fill="#C06FB4"/>
</g>
<g style="mix-blend-mode:luminosity">
<path d="M202.265 12.5144C194.31 13.3806 181.044 13.8668 175.931 22.9025C173.575 27.0653 201.537 24.1638 208.983 20.1925C217.5 15.6503 226.945 16.9051 229.107 25.4356C228.599 23.4301 228.007 18.8583 229.706 16.615C231.406 14.3716 234.74 10.8741 236.195 9.40581C233.699 10.9641 227.998 14.1678 225.161 14.5167C221.615 14.9529 212.842 11.3628 202.265 12.5144Z" fill="#566B78"/>
</g>
<g style="mix-blend-mode:luminosity">
<path d="M33.1419 171.876C32.0101 175.44 28.9752 179.454 31.7426 183.891C33.0175 185.936 38.0012 175.947 38.9853 171.161C39.8933 166.745 39.6611 158.512 43.7995 160.025C42.8265 159.67 40.7324 158.641 40.1392 157.375C39.546 156.108 38.7708 153.872 38.4573 152.912C38.5821 154.295 39.1006 159.801 38.6313 160.983C38.0447 162.46 34.6322 167.184 33.1419 171.876Z" fill="#566B78"/>
</g>
<g style="mix-blend-mode:luminosity">
<path d="M81.6135 134.243C83.6788 131.576 88.0398 130.757 89.9622 130.681C90.8248 130.13 93.3665 125.535 93.7695 126.926C93.8535 127.215 94.4256 129.813 94.6145 131.136C93.8142 130.707 91.5672 131.419 90.9902 131.586C90.2689 131.795 84.7171 136.651 84.0297 137.392C83.3423 138.132 78.5175 139.952 78.0166 139.676C77.5157 139.4 79.032 137.578 81.6135 134.243Z" fill="#C06FB4"/>
</g>
<g style="mix-blend-mode:luminosity">
<path d="M54.7371 182.605C56.0377 179.492 58.9091 176.601 60.5919 175.668C61.1146 174.789 61.3186 169.542 62.3037 170.602C62.509 170.823 64.1881 172.886 64.9519 173.983C64.0441 173.959 62.3572 175.606 61.917 176.015C61.3668 176.526 60.0701 182.673 57.8308 185.791C57.2415 186.612 54.5388 189.096 53.9674 189.075C53.396 189.054 52.7417 187.38 54.7371 182.605Z" fill="#B3BE87"/>
</g>
<g style="mix-blend-mode:luminosity">
<path d="M13.8414 192.86C14.7101 190.781 16.628 188.85 17.752 188.227C18.1012 187.639 18.2374 184.135 18.8954 184.843C19.0325 184.991 20.154 186.368 20.6642 187.101C20.0579 187.085 18.9311 188.185 18.6371 188.458C18.2696 188.799 17.4035 192.905 15.9078 194.988C15.5142 195.537 13.709 197.195 13.3273 197.181C12.9457 197.167 12.5086 196.05 13.8414 192.86Z" fill="#B3BE87"/>
</g>
<g style="mix-blend-mode:luminosity">
<path d="M4.06672 185.175C4.39382 182.946 5.77403 180.6 6.7089 179.718C6.90175 179.062 6.16628 175.633 6.97911 176.156C7.14857 176.266 8.57621 177.323 9.25185 177.906C8.66048 178.041 7.84096 179.386 7.6237 179.723C7.35212 180.145 7.52918 184.337 6.59565 186.726C6.34998 187.354 5.01151 189.408 4.63825 189.489C4.26499 189.57 3.56489 188.595 4.06672 185.175Z" fill="#566B78"/>
</g>
<g style="mix-blend-mode:luminosity">
<path d="M25.1302 132.495C23.9348 133.819 25.9128 134.114 27.0513 134.096C36.3362 133.349 40.4454 130.788 46.2086 126.252C50.8191 122.623 54.8889 125.558 56.3474 127.479C56.2763 126.536 56.1767 124.384 56.3474 123.317C56.5609 121.983 57.5748 121.823 57.8949 120.862C58.1511 120.094 58.0017 118.941 57.8949 118.461C56.1695 119.546 52.1745 121.823 49.9973 122.25C47.2758 122.783 43.327 121.769 37.5638 122.25C31.8007 122.73 26.6244 130.841 25.1302 132.495Z" fill="#32AE98"/>
</g>
<g style="mix-blend-mode:luminosity">
<path d="M20.4346 84.175C16.9892 86.4516 12.106 91.8181 11.3433 94.4188C14.3572 95.7352 20.4969 91.5677 22.9488 90.3496C25.4007 89.1315 31.9121 84.0686 33.4312 82.1804C34.6464 80.6699 38.5654 81.4117 40.373 81.9714C41.0578 80.8671 41.0957 76.9722 41.0291 75.1628C40.3075 76.6474 34.5472 79.9795 32.5714 80.1681C30.5956 80.3567 24.7413 81.3292 20.4346 84.175Z" fill="#B3BE87"/>
</g>
<g style="mix-blend-mode:luminosity">
<path d="M27.9082 145.821C26.6429 148.457 25.7659 152.292 26.2486 154.15C28.5588 153.854 30.1876 150.713 30.9352 148.924C32.0241 146.319 34.9814 140.378 35.2175 138.678C35.4064 137.318 38.0575 136.344 39.3595 136.026C39.3738 135.106 37.9799 132.725 37.2812 131.65C37.3828 132.815 35.0949 136.935 33.963 137.768C32.8311 138.602 29.4898 142.525 27.9082 145.821Z" fill="#B3BE87"/>
</g>
<g style="mix-blend-mode:luminosity">
<path d="M106.087 58.7341C102.482 62.0304 99.2264 70.9664 100.391 73.3909C101.556 75.8153 108.235 69.6229 110.717 67.1145C112.787 65.021 119.408 54.5139 120.709 52.836C121.749 51.4937 124.221 51.4999 125.327 51.6707C125.12 49.5458 124.965 47.893 125.673 46.1569C125.912 45.5711 126.484 42.3227 126.484 42.3227C123.562 43.1557 122.784 49.1183 119.852 51.0533C119.037 51.5914 109.403 55.7017 106.087 58.7341Z" fill="#B3BE87"/>
</g>
<g style="mix-blend-mode:luminosity">
<path d="M194.064 90.7462C190.534 89.194 184.085 88.6663 182.921 90.1313C181.757 91.5962 188.354 94.4484 190.942 95.4506C193.102 96.2871 202.526 97.9082 204.123 98.3332C205.4 98.6731 206.324 100.363 206.626 101.166C207.952 100.438 208.985 99.8754 210.397 99.8801C210.874 99.8817 213.233 99.3749 213.233 99.3749C211.587 97.6098 207.357 98.7244 204.978 97.2561C204.317 96.8477 197.312 92.1741 194.064 90.7462Z" fill="#B3BE87"/>
</g>
<g style="mix-blend-mode:luminosity">
<path d="M76.7407 52.3616C72.3595 53.9391 66.1293 61.7363 67.2062 62.1094C69.3023 62.8357 73.1512 60.3793 75.5668 59.6545C78.5863 58.7486 83.7926 54.955 86.238 52.892C88.1943 51.2415 91.4698 52.4325 92.8629 53.2343C91.6119 51.4993 92.5307 47.9002 93.1464 46.3176L88.5491 50.1214C86.4385 50.2109 81.122 50.7842 76.7407 52.3616Z" fill="#6A5547"/>
</g>
<g style="mix-blend-mode:luminosity">
<path d="M63.7648 81.8718C66.0202 80.3165 69.7594 80.0896 71.3471 80.1706C72.9348 80.2516 74.7009 79.0042 74.7009 79.0042L75.4316 83.6625C75.4787 83.7702 75.4968 83.871 75.4786 83.9619L75.4316 83.6625C75.1015 82.9069 73.3463 81.8112 72.7081 81.3858C71.979 80.8998 67.2157 84.8854 65.3201 85.8089C63.8036 86.5477 60.9618 86.538 59.7305 86.4408C60.1355 85.5659 61.5094 83.4272 63.7648 81.8718Z" fill="#C06FB4"/>
</g>
<g style="mix-blend-mode:luminosity">
<path d="M114.168 122.259C110.568 123.159 105.725 125.236 103.986 127.793C105.069 128.793 111.202 130.136 114.168 129.42C117.135 128.704 123.477 125.533 126.239 123.794C128.449 122.403 131.729 125.055 133.093 126.556C132.922 126.01 132.52 124.551 132.274 123.078C132.029 121.605 133.468 118.918 134.218 117.758C133.331 118.406 131.272 119.947 130.126 120.929C128.694 122.157 118.669 121.134 114.168 122.259Z" fill="#9A716B"/>
</g>
<g style="mix-blend-mode:luminosity">
<path d="M125 117.299C129.212 116.337 132.403 115.569 135.408 115.984L138.541 112.235L139.107 115.64L142.63 116.686C140.104 117.671 137.325 117.993 135.716 117.837C133.704 117.641 125.871 128.858 115.473 123.956C112.399 122.506 118.543 118.772 125 117.299Z" fill="#9A716B"/>
</g>
<g style="mix-blend-mode:luminosity">
<path d="M27.175 202.997C30.9853 200.96 33.4408 197.286 35.7079 194.126L37.7428 189.684L39.1862 192.82L42.86 192.901C40.6826 194.517 37.3049 195.496 36.6815 196.987C35.6424 199.474 30.5285 212.263 19.2062 210.273C15.8589 209.685 21.3346 206.119 27.175 202.997Z" fill="#9A716B"/>
</g>
<g style="mix-blend-mode:luminosity">
<path d="M75.5052 112.833C78.2628 109.722 84.7855 109.18 87.7022 109.298L90.3536 105.416L91.2133 108.624L94.6844 109.298C92.357 110.476 89.7256 111.043 88.1699 111.043C86.2253 111.043 75.5052 118.401 72.235 118.401C68.9647 118.401 72.0582 116.722 75.5052 112.833Z" fill="#9A716B"/>
</g>
<g style="mix-blend-mode:luminosity">
<path d="M214.156 72.2452C216.439 71.1195 222.604 70.8535 225.4 70.8612L231.467 70.4293L229.783 72.4773L230.266 75.4794L226.717 71.9759C226.242 71.6733 222.272 73.9472 220.754 74.5234C219.236 75.0995 211.319 74.9291 210.905 74.7115C208.923 73.6697 211.303 73.6523 214.156 72.2452Z" fill="#9A716B"/>
</g>
<g style="mix-blend-mode:luminosity">
<path d="M36.2113 105.537C36.9306 103.579 40.7068 102.757 42.505 102.59C43.274 102.489 44.89 101.582 45.602 101.142L46.2014 103.839L43.9037 103.29C42.3885 104.039 38.9585 105.647 37.3601 106.087C35.7617 106.526 35.9282 105.904 36.2113 105.537Z" fill="#6A5547"/>
</g>
<g style="mix-blend-mode:luminosity">
<path d="M85.1188 165.286C84.9406 163.809 87.0594 158.099 88.8715 156.427C90.6835 154.754 94.9495 152.582 96.856 151.706C97.9096 150.924 100.059 148.965 100.259 147.364C100.26 147.358 100.261 147.352 100.261 147.347C100.261 147.352 100.26 147.358 100.259 147.364C100.139 148.365 100.004 150.416 100.411 150.749C100.82 151.085 102.35 152.418 103.064 153.043C101.957 152.57 99.4791 151.781 98.4178 152.401C97.0912 153.175 93.2657 159.362 92.1984 160.462C90.4984 162.213 86.6737 164.521 85.1188 165.286Z" fill="#B3BE87"/>
</g>
</g>
</svg>
