<svg width="245" height="131" viewBox="0 0 245 131" fill="none" xmlns="http://www.w3.org/2000/svg">
<g opacity="0.5">
<g style="mix-blend-mode:luminosity">
<path d="M72.116 62.6855C69.316 61.797 63.3376 65.175 60.881 66.0988C59.618 66.6815 54.975 69.1652 54.3181 69.4682C53.6612 69.7713 52.4577 69.4879 51.9381 69.3083L53.563 73.8525C53.799 73.3418 54.3463 72.0969 54.6469 71.2034C55.0227 70.0866 56.4638 69.8814 60.4463 69.4325C61.6742 69.2941 67.203 68.8951 69.3637 68.5796C71.5244 68.2641 75.7523 64.8865 75.8986 64.2949C76.0449 63.7032 75.6161 63.7962 72.116 62.6855Z" fill="#9A716B"/>
<path d="M72.116 62.6855C69.316 61.797 63.3376 65.175 60.881 66.0988C59.618 66.6815 54.975 69.1652 54.3181 69.4682C53.6612 69.7713 52.4577 69.4879 51.9381 69.3083L53.563 73.8525C53.799 73.3418 54.3463 72.0969 54.6469 71.2034C55.0227 70.0866 56.4638 69.8814 60.4463 69.4325C61.6742 69.2941 67.203 68.8951 69.3637 68.5796C71.5244 68.2641 75.7523 64.8865 75.8986 64.2949C76.0449 63.7032 75.6161 63.7962 72.116 62.6855Z" stroke="#2F6193"/>
</g>
<g style="mix-blend-mode:luminosity">
<path d="M68.2082 114.532C68.8735 114.639 68.005 115.237 67.4876 115.523C65.3066 116.745 61.9431 117.071 60.534 117.082L60.7269 115.621C61.1592 116.457 63.6404 115.534 64.2179 115.091C64.7954 114.648 67.3765 114.399 68.2082 114.532Z" fill="#9A716B"/>
<path d="M68.2082 114.532C68.8735 114.639 68.005 115.237 67.4876 115.523C65.3066 116.745 61.9431 117.071 60.534 117.082L60.7269 115.621C61.1592 116.457 63.6404 115.534 64.2179 115.091C64.7954 114.648 67.3765 114.399 68.2082 114.532Z" stroke="#2F6193"/>
</g>
<g style="mix-blend-mode:luminosity">
<path d="M38.0312 79.1126C39.9962 80.2563 38.3697 81.1425 38.3697 81.1425C31.8848 85.6596 25.7924 85.8523 20.8644 86.3085C17.882 86.5847 11.2058 84.2932 9.06738 84.6175C7.69594 84.8255 5.38908 86.07 3.82245 87.0212C3.50285 87.3407 3.16746 87.565 2.8209 87.6532C3.09251 87.4739 3.43482 87.2565 3.82245 87.0212C5.18684 85.657 6.26335 82.5558 6.69248 80.8847C6.91447 82.1273 9.08861 82.4937 11.0215 82.4732C12.9544 82.4526 26.0383 79.4882 28.8088 78.9716C31.0252 78.5584 36.0663 77.9689 38.0312 79.1126Z" fill="#C06FB4"/>
<path d="M38.3697 81.1425C38.3697 81.1425 39.9962 80.2563 38.0312 79.1126C36.0663 77.9689 31.0252 78.5584 28.8088 78.9716C26.0383 79.4882 12.9544 82.4526 11.0215 82.4732C9.08861 82.4937 6.91447 82.1273 6.69248 80.8847C6.16283 82.9472 4.64701 87.1884 2.8209 87.6532C4.19025 86.7494 7.35662 84.877 9.06738 84.6175C11.2058 84.2932 17.882 86.5847 20.8644 86.3085C25.7924 85.8523 31.8848 85.6596 38.3697 81.1425Z" stroke="#2F6193"/>
</g>
<g style="mix-blend-mode:luminosity">
<path d="M97.2868 127.499C103.484 127.64 113.721 128.612 118.564 122.191C120.795 119.233 99.0276 118.626 92.9064 120.921C85.9055 123.546 78.7795 121.624 77.9839 114.854C78.1709 116.446 78.1619 120.017 76.6293 121.567C75.0967 123.118 72.1814 125.466 70.9154 126.446C72.9901 125.502 77.6932 123.62 79.9071 123.639C82.6745 123.664 89.0479 127.311 97.2868 127.499Z" fill="#566B78"/>
<path d="M97.2868 127.499C103.484 127.64 113.721 128.612 118.564 122.191C120.795 119.233 99.0276 118.626 92.9064 120.921C85.9055 123.546 78.7795 121.624 77.9839 114.854C78.1709 116.446 78.1619 120.017 76.6293 121.567C75.0967 123.118 72.1814 125.466 70.9154 126.446C72.9901 125.502 77.6932 123.62 79.9071 123.639C82.6745 123.664 89.0479 127.311 97.2868 127.499Z" stroke="#2F6193"/>
</g>
<g style="mix-blend-mode:luminosity">
<path d="M218.261 33.2134C219.492 30.5913 222.229 27.8166 220.554 24.1281C219.782 22.4287 214.942 29.5942 213.701 33.1697C212.556 36.469 211.9 42.8155 208.875 41.2336C209.586 41.6055 211.09 42.6075 211.417 43.6402C211.744 44.6729 212.113 46.4692 212.256 47.2382C212.301 46.1632 212.461 41.8825 212.941 41.0224C213.541 39.9473 216.641 36.6658 218.261 33.2134Z" fill="#566B78"/>
<path d="M218.261 33.2134C219.492 30.5913 222.229 27.8166 220.554 24.1281C219.782 22.4287 214.942 29.5942 213.701 33.1697C212.556 36.469 211.9 42.8155 208.875 41.2336C209.586 41.6055 211.09 42.6075 211.417 43.6402C211.744 44.6729 212.113 46.4692 212.256 47.2382C212.301 46.1632 212.461 41.8825 212.941 41.0224C213.541 39.9473 216.641 36.6658 218.261 33.2134Z" stroke="#2F6193"/>
</g>
<g style="mix-blend-mode:luminosity">
<path d="M177.222 57.1992C175.365 59.0382 171.933 59.225 170.449 59.0886C169.731 59.424 167.313 62.6949 167.145 61.5865C167.109 61.3554 166.933 59.3026 166.922 58.2673C167.494 58.678 169.291 58.3593 169.751 58.2893C170.326 58.2019 175.082 55.0353 175.685 54.5364C176.288 54.0374 180.178 53.1293 180.535 53.3919C180.891 53.6545 179.542 54.9004 177.222 57.1992Z" fill="#C06FB4"/>
<path d="M177.222 57.1992C175.365 59.0382 171.933 59.225 170.449 59.0886C169.731 59.424 167.313 62.6949 167.145 61.5865C167.109 61.3554 166.933 59.3026 166.922 58.2673C167.494 58.678 169.291 58.3593 169.751 58.2893C170.326 58.2019 175.082 55.0353 175.685 54.5364C176.288 54.0374 180.178 53.1293 180.535 53.3919C180.891 53.6545 179.542 54.9004 177.222 57.1992Z" stroke="#2F6193"/>
</g>
<g style="mix-blend-mode:luminosity">
<path d="M202.765 22.7849C201.45 25.0434 198.952 26.9726 197.565 27.5181C197.074 28.1407 196.386 32.1495 195.737 31.2352C195.602 31.0446 194.521 29.2903 194.046 28.3704C194.741 28.4805 196.203 27.3873 196.583 27.118C197.057 26.7812 198.676 22.1921 200.712 20.0241C201.248 19.4535 203.575 17.8203 204.012 17.8944C204.448 17.9685 204.781 19.32 202.765 22.7849Z" fill="#B3BE87"/>
<path d="M202.765 22.7849C201.45 25.0434 198.952 26.9726 197.565 27.5181C197.074 28.1407 196.386 32.1495 195.737 31.2352C195.602 31.0446 194.521 29.2903 194.046 28.3704C194.741 28.4805 196.203 27.3873 196.583 27.118C197.057 26.7812 198.676 22.1921 200.712 20.0241C201.248 19.4535 203.575 17.8203 204.012 17.8944C204.448 17.9685 204.781 19.32 202.765 22.7849Z" stroke="#2F6193"/>
</g>
<g style="mix-blend-mode:luminosity">
<path d="M235.21 19.0559C234.332 20.5644 232.664 21.853 231.737 22.2173C231.41 22.6332 230.95 25.3108 230.516 24.7001C230.426 24.5728 229.704 23.401 229.387 22.7866C229.851 22.8601 230.827 22.13 231.081 21.95C231.398 21.7251 232.479 18.6599 233.839 17.2118C234.197 16.8307 235.751 15.7398 236.043 15.7893C236.335 15.8388 236.557 16.7415 235.21 19.0559Z" fill="#B3BE87"/>
<path d="M235.21 19.0559C234.332 20.5644 232.664 21.853 231.737 22.2173C231.41 22.6332 230.95 25.3108 230.516 24.7001C230.426 24.5728 229.704 23.401 229.387 22.7866C229.851 22.8601 230.827 22.13 231.081 21.95C231.398 21.7251 232.479 18.6599 233.839 17.2118C234.197 16.8307 235.751 15.7398 236.043 15.7893C236.335 15.8388 236.557 16.7415 235.21 19.0559Z" stroke="#2F6193"/>
</g>
<g style="mix-blend-mode:luminosity">
<path d="M241.937 25.9484C241.46 27.6273 240.162 29.2888 239.355 29.8711C239.141 30.3551 239.358 33.0632 238.787 32.5788C238.667 32.4779 237.678 31.5212 237.219 31.0045C237.686 30.9608 238.452 30.0116 238.653 29.7746C238.904 29.4782 239.194 26.2407 240.153 24.5011C240.405 24.0433 241.641 22.6016 241.936 22.5774C242.231 22.5531 242.67 23.3727 241.937 25.9484Z" fill="#566B78"/>
<path d="M241.937 25.9484C241.46 27.6273 240.162 29.2888 239.355 29.8711C239.141 30.3551 239.358 33.0632 238.787 32.5788C238.667 32.4779 237.678 31.5212 237.219 31.0045C237.686 30.9608 238.452 30.0116 238.653 29.7746C238.904 29.4782 239.194 26.2407 240.153 24.5011C240.405 24.0433 241.641 22.6016 241.936 22.5774C242.231 22.5531 242.67 23.3727 241.937 25.9484Z" stroke="#2F6193"/>
</g>
<g style="mix-blend-mode:luminosity">
<path d="M137.482 53.3186C138.534 52.4235 137.045 51.9962 136.169 51.8944C128.963 51.5268 125.548 53.0771 120.662 55.9761C116.754 58.2952 113.926 55.6287 113 54.0056C112.96 54.7368 112.818 56.3997 112.578 57.202C112.279 58.2049 111.484 58.225 111.141 58.9302C110.867 59.4943 110.864 60.3946 110.898 60.7743C112.333 60.116 115.632 58.7725 117.347 58.6654C119.491 58.5315 122.421 59.7105 126.895 59.926C131.37 60.1415 136.167 54.4374 137.482 53.3186Z" fill="#32AE98"/>
<path d="M137.482 53.3186C138.534 52.4235 137.045 51.9962 136.169 51.8944C128.963 51.5268 125.548 53.0771 120.662 55.9761C116.754 58.2952 113.926 55.6287 113 54.0056C112.96 54.7368 112.818 56.3997 112.578 57.202C112.279 58.2049 111.484 58.225 111.141 58.9302C110.867 59.4943 110.864 60.3946 110.898 60.7743C112.333 60.116 115.632 58.7725 117.347 58.6654C119.491 58.5315 122.421 59.7105 126.895 59.926C131.37 60.1415 136.167 54.4374 137.482 53.3186Z" stroke="#2F6193"/>
</g>
<g style="mix-blend-mode:luminosity">
<path d="M136.189 90.9019C139.066 89.5029 143.36 85.8768 144.209 83.9569C142.028 82.6404 136.891 85.2183 134.885 85.9052C132.878 86.5921 127.364 89.8199 126.006 91.116C124.92 92.1528 121.986 91.1858 120.654 90.5727C120.016 91.3513 119.592 94.3386 119.46 95.7348C120.165 94.6679 124.926 92.6931 126.463 92.7485C127.999 92.804 132.593 92.6507 136.189 90.9019Z" fill="#B3BE87"/>
<path d="M136.189 90.9019C139.066 89.5029 143.36 85.8768 144.209 83.9569C142.028 82.6404 136.891 85.2183 134.885 85.9052C132.878 86.5921 127.364 89.8199 126.006 91.116C124.92 92.1528 121.986 91.1858 120.654 90.5727C120.016 91.3513 119.592 94.3386 119.46 95.7348C120.165 94.6679 124.926 92.6931 126.463 92.7485C127.999 92.804 132.593 92.6507 136.189 90.9019Z" stroke="#2F6193"/>
</g>
<g style="mix-blend-mode:luminosity">
<path d="M219.638 53.7536C220.878 51.857 221.94 49.0008 221.757 47.5253C219.953 47.5188 218.384 49.7653 217.629 51.0633C216.528 52.9536 213.655 57.2159 213.301 58.4975C213.018 59.5227 210.883 60.0026 209.851 60.1145C209.747 60.8196 210.576 62.789 211.004 63.6855C211.044 62.7808 213.219 59.8487 214.172 59.3235C215.126 58.7983 218.09 56.1244 219.638 53.7536Z" fill="#B3BE87"/>
<path d="M219.638 53.7536C220.878 51.857 221.94 49.0008 221.757 47.5253C219.953 47.5188 218.384 49.7653 217.629 51.0633C216.528 52.9536 213.655 57.2159 213.301 58.4975C213.018 59.5227 210.883 60.0026 209.851 60.1145C209.747 60.8196 210.576 62.789 211.004 63.6855C211.044 62.7808 213.219 59.8487 214.172 59.3235C215.126 58.7983 218.09 56.1244 219.638 53.7536Z" stroke="#2F6193"/>
</g>
<g style="mix-blend-mode:luminosity">
<path d="M67.8331 101.756C70.9357 99.5898 74.3416 93.0574 73.6928 91.0775C73.0441 89.0975 67.2871 93.1758 65.1272 94.8506C63.3246 96.2483 57.1749 103.646 56.0061 104.803C55.0711 105.728 53.1733 105.473 52.3413 105.229C52.2847 106.882 52.2365 108.167 51.5163 109.429C51.2733 109.854 50.5054 112.291 50.5054 112.291C52.8331 111.947 54.0353 107.447 56.483 106.259C57.1638 105.928 64.9788 103.748 67.8331 101.756Z" fill="#B3BE87"/>
<path d="M67.8331 101.756C70.9357 99.5898 74.3416 93.0574 73.6928 91.0775C73.0441 89.0975 67.2871 93.1758 65.1272 94.8506C63.3246 96.2483 57.1749 103.646 56.0061 104.803C55.0711 105.728 53.1733 105.473 52.3413 105.229C52.2847 106.882 52.2365 108.167 51.5163 109.429C51.2733 109.854 50.5054 112.291 50.5054 112.291C52.8331 111.947 54.0353 107.447 56.483 106.259C57.1638 105.928 64.9788 103.748 67.8331 101.756Z" stroke="#2F6193"/>
</g>
<g style="mix-blend-mode:luminosity">
<path d="M111.516 68.2518C114.07 69.8016 118.969 70.8608 120.011 69.8538C121.054 68.8468 116.277 65.9876 114.391 64.9555C112.817 64.0942 105.744 61.8937 104.561 61.4056C103.615 61.015 103.077 59.6234 102.926 58.9765C101.834 59.401 100.984 59.7282 99.8994 59.5814C99.5336 59.5319 97.6701 59.6818 97.6701 59.6818C98.7557 61.2043 102.117 60.7772 103.795 62.1459C104.261 62.5266 109.167 66.8259 111.516 68.2518Z" fill="#B3BE87"/>
<path d="M111.516 68.2518C114.07 69.8016 118.969 70.8608 120.011 69.8538C121.054 68.8468 116.277 65.9876 114.391 64.9555C112.817 64.0942 105.744 61.8937 104.561 61.4056C103.615 61.015 103.077 59.6234 102.926 58.9765C101.834 59.401 100.984 59.7282 99.8994 59.5814C99.5336 59.5319 97.6701 59.6818 97.6701 59.6818C98.7557 61.2043 102.117 60.7772 103.795 62.1459C104.261 62.5266 109.167 66.8259 111.516 68.2518Z" stroke="#2F6193"/>
</g>
<g style="mix-blend-mode:luminosity">
<path d="M89.7232 109.624C93.2477 108.857 98.8227 103.501 98.0335 103.105C96.4975 102.335 93.2927 103.831 91.3641 104.143C88.9535 104.532 84.5706 106.918 82.4835 108.254C80.8139 109.323 78.4192 108.077 77.4306 107.32C78.2155 108.779 77.145 111.45 76.5116 112.603L80.4278 110.148C82.0577 110.293 86.1986 110.392 89.7232 109.624Z" fill="#6A5547"/>
<path d="M89.7232 109.624C93.2477 108.857 98.8227 103.501 98.0335 103.105C96.4975 102.335 93.2927 103.831 91.3641 104.143C88.9535 104.532 84.5706 106.918 82.4835 108.254C80.8139 109.323 78.4192 108.077 77.4306 107.32C78.2155 108.779 77.145 111.45 76.5116 112.603L80.4278 110.148C82.0577 110.293 86.1986 110.392 89.7232 109.624Z" stroke="#2F6193"/>
</g>
<g style="mix-blend-mode:luminosity">
<path d="M102.68 88.2779C100.791 89.2437 97.8961 89.0388 96.6851 88.8156C95.474 88.5925 93.9912 89.3714 93.9912 89.3714L93.9024 85.7199C93.8772 85.6324 93.8735 85.5532 93.8967 85.4852L93.9024 85.7199C94.0793 86.3336 95.3162 87.353 95.7631 87.7444C96.2737 88.1916 100.336 85.6138 101.885 85.0967C103.125 84.6831 105.306 84.9787 106.242 85.1782C105.842 85.809 104.57 87.3121 102.68 88.2779Z" fill="#C06FB4"/>
<path d="M96.6851 88.8156C97.8961 89.0388 100.791 89.2437 102.68 88.2779C104.57 87.3121 105.842 85.809 106.242 85.1782C105.306 84.9787 103.125 84.6831 101.885 85.0967C100.336 85.6138 96.2737 88.1916 95.7631 87.7444C95.2525 87.2972 93.7108 86.0303 93.8967 85.4852L93.9912 89.3714C93.9912 89.3714 95.474 88.5925 96.6851 88.8156Z" stroke="#2F6193"/>
</g>
<g style="mix-blend-mode:luminosity">
<path d="M68.0675 52.1523C70.9239 51.8261 74.8533 50.7224 76.4481 48.9348C75.7178 48.0575 71.1443 46.4041 68.7935 46.6532C66.4427 46.9024 61.2508 48.6946 58.9534 49.7501C57.1156 50.5944 54.8655 48.2246 53.9702 46.9342C54.0458 47.3704 54.2068 48.5319 54.246 49.6881C54.2852 50.8442 52.9077 52.7617 52.2141 53.576C52.9606 53.1684 54.6985 52.1936 55.6779 51.5556C56.9021 50.7581 64.497 52.5601 68.0675 52.1523Z" fill="#9A716B"/>
<path d="M68.0675 52.1523C70.9239 51.8261 74.8533 50.7224 76.4481 48.9348C75.7178 48.0575 71.1443 46.4041 68.7935 46.6532C66.4427 46.9024 61.2508 48.6946 58.9534 49.7501C57.1156 50.5944 54.8655 48.2246 53.9702 46.9342C54.0458 47.3704 54.2068 48.5319 54.246 49.6881C54.2852 50.8442 52.9077 52.7617 52.2141 53.576C52.9606 53.1684 54.6985 52.1936 55.6779 51.5556C56.9021 50.7581 64.497 52.5601 68.0675 52.1523Z" stroke="#2F6193"/>
</g>
<g style="mix-blend-mode:luminosity">
<path d="M142.185 65.813C138.853 66.1242 136.325 66.3911 134.059 65.7674L131.273 68.3288L131.184 65.6563L128.584 64.4958C130.624 63.9956 132.791 64.0301 134.011 64.3135C135.535 64.6676 142.688 56.8479 150.176 61.6668C152.39 63.0914 147.293 65.336 142.185 65.813Z" fill="#9A716B"/>
<path d="M142.185 65.813C138.853 66.1242 136.325 66.3911 134.059 65.7674L131.273 68.3288L131.184 65.6563L128.584 64.4958C130.624 63.9956 132.791 64.0301 134.011 64.3135C135.535 64.6676 142.688 56.8479 150.176 61.6668C152.39 63.0914 147.293 65.336 142.185 65.813Z" stroke="#2F6193"/>
</g>
<g style="mix-blend-mode:luminosity">
<path d="M225.999 9.91908C222.866 11.097 220.608 13.6696 218.546 15.8666L216.533 19.0713L215.743 16.5168L212.93 16.082C214.766 15.0622 217.459 14.6529 218.089 13.5705C219.139 11.7666 224.363 2.46319 232.856 5.13947C235.367 5.93067 230.8 8.11356 225.999 9.91908Z" fill="#9A716B"/>
<path d="M225.999 9.91908C222.866 11.097 220.608 13.6696 218.546 15.8666L216.533 19.0713L215.743 16.5168L212.93 16.082C214.766 15.0622 217.459 14.6529 218.089 13.5705C219.139 11.7666 224.363 2.46319 232.856 5.13947C235.367 5.93067 230.8 8.11356 225.999 9.91908Z" stroke="#2F6193"/>
</g>
<g style="mix-blend-mode:luminosity">
<path d="M179.742 74.2607C177.309 76.3703 172.244 76.1252 170.017 75.739L167.587 78.4515L167.252 75.9004L164.655 75.0311C166.561 74.3621 168.64 74.1933 169.834 74.351C171.328 74.5482 180.306 69.9846 182.818 70.3162C185.329 70.6477 182.783 71.6236 179.742 74.2607Z" fill="#9A716B"/>
<path d="M179.742 74.2607C177.309 76.3703 172.244 76.1252 170.017 75.739L167.587 78.4515L167.252 75.9004L164.655 75.0311C166.561 74.3621 168.64 74.1933 169.834 74.351C171.328 74.5482 180.306 69.9846 182.818 70.3162C185.329 70.6477 182.783 71.6236 179.742 74.2607Z" stroke="#2F6193"/>
</g>
<g style="mix-blend-mode:luminosity">
<path d="M94.2109 80.4229C92.3437 81.0559 87.5828 80.6352 85.4357 80.3457L80.7331 80.0623L82.234 78.6603L82.1672 76.3058L84.5376 79.3562C84.8719 79.6367 88.1508 78.2929 89.3751 78.0044C90.5995 77.7159 96.6619 78.6494 96.9579 78.8586C98.3746 79.8596 96.5448 79.6316 94.2109 80.4229Z" fill="#9A716B"/>
<path d="M94.2109 80.4229C92.3437 81.0559 87.5828 80.6352 85.4357 80.3457L80.7331 80.0623L82.234 78.6603L82.1672 76.3058L84.5376 79.3562C84.8719 79.6367 88.1508 78.2929 89.3751 78.0044C90.5995 77.7159 96.6619 78.6494 96.9579 78.8586C98.3746 79.8596 96.5448 79.6316 94.2109 80.4229Z" stroke="#2F6193"/>
</g>
<g style="mix-blend-mode:luminosity">
<path d="M126.239 72.8973C125.488 74.328 122.505 74.5768 121.107 74.5224C120.507 74.5223 119.174 75.0546 118.582 75.3208L118.395 73.1886L120.104 73.8435C121.344 73.4218 124.141 72.5343 125.413 72.3589C126.685 72.1834 126.494 72.6447 126.239 72.8973Z" fill="#6A5547"/>
<path d="M126.239 72.8973C125.488 74.328 122.505 74.5768 121.107 74.5224C120.507 74.5223 119.174 75.0546 118.582 75.3208L118.395 73.1886L120.104 73.8435C121.344 73.4218 124.141 72.5343 125.413 72.3589C126.685 72.1834 126.494 72.6447 126.239 72.8973Z" stroke="#2F6193"/>
</g>
<g style="mix-blend-mode:luminosity">
<path d="M177.677 33.0043C177.664 34.1572 175.458 38.3274 173.897 39.4278C172.336 40.5282 168.84 41.7636 167.287 42.2438C166.398 42.7373 164.549 44.0235 164.233 45.2328C164.232 45.2373 164.23 45.2416 164.229 45.246C164.23 45.2416 164.232 45.2372 164.233 45.2328C164.426 44.4762 164.738 42.9149 164.46 42.6176C164.18 42.3185 163.14 41.1396 162.655 40.5876C163.457 41.0624 165.28 41.9198 166.158 41.5515C167.255 41.0911 170.82 36.7278 171.751 35.9917C173.234 34.8193 176.405 33.4342 177.677 33.0043Z" fill="#B3BE87"/>
<path d="M177.677 33.0043C177.664 34.1572 175.458 38.3274 173.897 39.4278C172.336 40.5282 168.84 41.7636 167.287 42.2438C166.395 42.7391 164.535 44.0329 164.229 45.246C164.423 44.4945 164.74 42.9167 164.46 42.6176C164.18 42.3185 163.14 41.1396 162.655 40.5876C163.457 41.0624 165.28 41.9198 166.158 41.5515C167.255 41.0911 170.82 36.7278 171.751 35.9917C173.234 34.8193 176.405 33.4342 177.677 33.0043Z" stroke="#2F6193"/>
</g>
</g>
</svg>
