<svg width="83" height="104" viewBox="0 0 83 104" fill="none" xmlns="http://www.w3.org/2000/svg">
<g style="mix-blend-mode:luminosity" opacity="0.5">
<path opacity="0.4" d="M68.6112 27.4717C66.7151 29.5285 62.7362 35.3838 61.9896 42.3509C61.0562 51.0598 63.2225 60.3167 57.7283 62.9609C52.2341 65.6051 43.6398 77.6773 45.5183 90.0581C47.0211 99.9627 41.9472 100.799 39.2224 99.9793" stroke="#9EE8FF" stroke-linecap="round" stroke-linejoin="round"/>
<path opacity="0.4" d="M63.1462 23.542C59.9162 29.6208 55.03 43.2203 53.0847 45.8089C43.0013 59.2266 28.6273 55.6308 24.0052 62.9761C19.3832 70.3214 16.8871 84.4381 1.85931 86.6403" stroke="#9EE8FF" stroke-linecap="round" stroke-linejoin="round"/>
<path opacity="0.6" d="M60.6334 22.4487C59.7088 23.8262 57.5729 27.6715 56.4264 32.0333C54.9932 37.4855 56.8163 46.5618 53.0951 50.8726C49.374 55.1834 36.1602 58.6196 29.2853 63.9695C22.4103 69.3193 21.468 85.3207 5.29476 87.6866" stroke="#9EE8FF" stroke-linecap="round" stroke-linejoin="round"/>
<path opacity="0.6" d="M64.6354 24.5786C63.0553 27.4002 59.8304 33.7444 59.5719 36.5481C59.2488 40.0527 60.5116 50.6136 53.3671 55.6678C49.7208 58.2473 34.4856 63.3195 32.6923 70.7278C30.8991 78.1362 22.9107 89.215 2.73563 90.0828" stroke="#9EE8FF" stroke-linecap="round" stroke-linejoin="round"/>
<path opacity="0.6" d="M69.0909 26.6362C66.5371 30.1717 62.5536 34.341 61.825 42.2496C61.3643 47.2509 57.4797 57.7891 50.4936 59.2023C43.5076 60.6154 38.8562 60.8725 33.2765 74.9271C27.6967 88.9818 20.789 89.5451 10.093 92.1591" stroke="#9EE8FF" stroke-linecap="round" stroke-linejoin="round"/>
<path d="M77.9138 7.6516C74.5122 4.37554 69.5389 7.62995 68.1581 8.73719C66.9127 9.81281 63.7661 11.9036 61.1431 11.662C57.8642 11.3599 52.3644 13.6308 51.9087 15.7051C51.4531 17.7794 55.1805 21.8263 58.7217 22.1525C62.2628 22.4787 73.8456 28.8365 75.8836 29.6856C77.9217 30.5346 81.4117 24.2429 81.8223 19.7836C82.1623 16.0903 82.1658 11.7467 77.9138 7.6516Z" fill="#4DDFFF" fill-opacity="0.44" stroke="#9EE8FF" stroke-linejoin="round"/>
<path d="M77.1078 19.4955C77.3111 17.2895 76.2127 15.7936 75.6381 15.3214C70.0727 11.763 67.1226 13.61 65.4622 14.384C63.8019 15.1579 61.0133 15.9603 60.5528 16.6462C60.0924 17.3321 61.1877 19.8166 63.5331 20.2313C65.8785 20.646 72.8988 24.9343 75.0714 25.0683C77.2441 25.2022 76.8536 22.253 77.1078 19.4955Z" fill="#4DDFFF" fill-opacity="0.44" stroke="#9EE8FF" stroke-linejoin="round"/>
</g>
</svg>
